<?xml version="1.0" encoding="UTF-8"?>
<svg id="Layer_1" data-name="Layer 1" xmlns="http://www.w3.org/2000/svg" viewBox="0 0 642.42 642.42">
  <path d="M173.09,440.47c-5.15-6.46-11.57-11.56-19.24-15.3-7.68-3.74-16.57-5.61-26.67-5.61-8.49,0-16.42,1.62-23.79,4.85-7.38,3.23-13.84,7.93-19.4,14.09-5.56,6.16-10.05,13.59-13.49,22.27-3.44,8.69-5.46,18.49-6.06,29.4h124.25c0-9.49-1.32-18.54-3.94-27.12-2.63-8.59-6.51-16.11-11.67-22.58Z" style="fill: #079df3;"/>
  <g>
    <path d="M321.21,0C148.34,0,7.38,136.57.3,307.71h-.3v333.62s312.28,1.1,321.21,1.1c177.4,0,321.21-143.81,321.21-321.21S498.61,0,321.21,0ZM194.76,496.23H64.44c.2,10.51,1.46,20.26,3.79,29.25,2.32,8.99,5.91,16.82,10.76,23.49,4.85,6.67,11.11,11.92,18.79,15.76,7.68,3.84,17.07,5.76,28.18,5.76,16.37,0,29.95-4.29,40.76-12.88,10.81-8.59,17.53-21.47,20.15-38.64h6.06c-2.23,18.18-9.39,32.28-21.52,42.28-12.12,10-27.08,15-44.85,15-12.12.2-22.48-1.72-31.06-5.76-8.59-4.04-15.61-9.74-21.06-17.12-5.46-7.37-9.5-16.06-12.12-26.06-2.63-10-3.94-20.76-3.94-32.28,0-12.93,1.92-24.44,5.76-34.55,3.84-10.1,8.89-18.64,15.15-25.61,6.26-6.97,13.53-12.27,21.82-15.91,8.28-3.64,16.77-5.46,25.46-5.46,12.12,0,22.58,2.33,31.37,6.97,8.79,4.65,15.96,10.81,21.52,18.49,5.56,7.68,9.59,16.47,12.12,26.37,2.52,9.9,3.58,20.21,3.18,30.91ZM330.83,572.9l-73.04-92.13-40.31,33.34v58.79h-6.06v-216.38h6.06v150.02l107.59-89.4h8.79l-71.52,59.4,76.67,96.37h-8.18ZM465.99,525.78c-3.03,9.8-7.53,18.44-13.49,25.91-5.96,7.48-13.29,13.44-21.97,17.88-8.69,4.44-18.79,6.67-30.31,6.67s-21.32-2.23-30-6.67c-8.69-4.44-16.01-10.4-21.97-17.88-5.96-7.47-10.46-16.11-13.49-25.91-3.03-9.8-4.55-20.05-4.55-30.76s1.51-20.96,4.55-30.76c3.03-9.8,7.52-18.44,13.49-25.91,5.96-7.47,13.28-13.49,21.97-18.03,8.69-4.55,18.79-6.82,30.31-6.82s21.31,2.27,30,6.82c8.68,4.55,16.01,10.56,21.97,18.03,5.96,7.48,10.46,16.11,13.49,25.91,3.03,9.8,4.55,20.05,4.55,30.76s-1.51,20.96-4.55,30.76Z" style="fill: #079df3;"/>
    <path d="M448.11,442.74c-5.46-6.97-12.17-12.58-20.15-16.82-7.98-4.24-17.12-6.36-27.43-6.36s-19.75,2.12-27.73,6.36c-7.98,4.24-14.7,9.85-20.15,16.82-5.46,6.97-9.55,15-12.27,24.09-2.73,9.09-4.09,18.49-4.09,28.19s1.36,19.4,4.09,28.49c2.73,9.09,6.82,17.12,12.27,24.09,5.46,6.97,12.17,12.53,20.15,16.67,7.98,4.14,17.22,6.21,27.73,6.21s19.44-2.07,27.43-6.21c7.98-4.14,14.7-9.7,20.15-16.67,5.46-6.97,9.55-15,12.27-24.09,2.73-9.09,4.09-18.58,4.09-28.49s-1.36-19.09-4.09-28.19c-2.73-9.09-6.82-17.12-12.27-24.09Z" style="fill: #079df3;"/>
  </g>
</svg>
