<?xml version="1.0" encoding="UTF-8"?>
<svg xmlns="http://www.w3.org/2000/svg" version="1.1" viewBox="0 0 304 66">
  <!-- Generator: Adobe Illustrator 28.7.4, SVG Export Plug-In . SVG Version: 1.2.0 Build 166)  -->
  <g>
    <g id="Layer_1">
      <g>
        <g>
          <path d="M135.3,51.7c-2,0-3.8-.3-5.5-1-1.7-.7-3.1-1.6-4.3-2.8-1.2-1.2-2.1-2.6-2.7-4.2-.6-1.6-1-3.3-1-5.2s.3-3.6,1-5.2c.7-1.6,1.6-3,2.8-4.2,1.2-1.2,2.6-2.1,4.2-2.8,1.6-.7,3.4-1,5.2-1s3.6.3,5.2,1c1.6.6,3,1.5,4.2,2.7,1.2,1.2,2.1,2.5,2.7,4.1.7,1.6,1,3.3,1,5.2v2.1h-21.1c.4,2,1.3,3.5,2.7,4.7,1.4,1.2,3.3,1.8,5.5,1.8s3.2-.4,4.5-1.2c1.3-.8,2.2-1.9,2.9-3.3l4.5,2.5c-1.1,2.1-2.7,3.8-4.7,5-2,1.3-4.4,1.9-7.3,1.9ZM135.1,30c-1.9,0-3.5.5-4.9,1.6-1.4,1.1-2.3,2.4-2.8,4.1h15.3c-.4-1.8-1.3-3.2-2.6-4.2-1.3-1-3-1.5-4.9-1.5Z"/>
          <path d="M211.4,51.7c-2,0-3.8-.3-5.5-1-1.7-.7-3.1-1.6-4.3-2.8s-2.1-2.6-2.7-4.2c-.6-1.6-1-3.3-1-5.2s.3-3.6,1-5.2c.7-1.6,1.6-3,2.8-4.2,1.2-1.2,2.6-2.1,4.2-2.8,1.6-.7,3.4-1,5.2-1s3.6.3,5.2,1c1.6.6,3,1.5,4.2,2.7,1.2,1.2,2.1,2.5,2.7,4.1.7,1.6,1,3.3,1,5.2v2.1h-21.1c.4,2,1.3,3.5,2.7,4.7,1.4,1.2,3.3,1.8,5.5,1.8s3.2-.4,4.5-1.2c1.3-.8,2.2-1.9,2.9-3.3l4.5,2.5c-1.1,2.1-2.7,3.8-4.7,5-2,1.3-4.4,1.9-7.3,1.9ZM211.2,30c-1.9,0-3.5.5-4.9,1.6-1.4,1.1-2.3,2.4-2.8,4.1h15.3c-.4-1.8-1.3-3.2-2.6-4.2-1.3-1-3-1.5-4.9-1.5Z"/>
          <path d="M240.7,51.7c-2,0-3.8-.3-5.5-1-1.7-.7-3.1-1.6-4.3-2.8-1.2-1.2-2.1-2.6-2.7-4.2-.6-1.6-1-3.3-1-5.2s.3-3.6,1-5.2c.7-1.6,1.6-3,2.8-4.2,1.2-1.2,2.6-2.1,4.2-2.8,1.6-.7,3.4-1,5.2-1s3.6.3,5.2,1c1.6.6,3,1.5,4.2,2.7,1.2,1.2,2.1,2.5,2.7,4.1.7,1.6,1,3.3,1,5.2v2.1h-21.1c.4,2,1.3,3.5,2.7,4.7,1.4,1.2,3.3,1.8,5.5,1.8s3.2-.4,4.5-1.2c1.3-.8,2.2-1.9,2.9-3.3l4.5,2.5c-1.1,2.1-2.7,3.8-4.7,5-2,1.3-4.4,1.9-7.3,1.9ZM240.5,30c-1.9,0-3.5.5-4.9,1.6-1.4,1.1-2.3,2.4-2.8,4.1h15.3c-.4-1.8-1.3-3.2-2.6-4.2-1.3-1-3-1.5-4.9-1.5Z"/>
        </g>
        <path d="M105.8,46.7c1.1,0,2.2-.2,3.1-.6,1-.4,1.8-1,2.5-1.7.7-.7,1.3-1.6,1.7-2.6.4-1,.6-2.1.6-3.2s-.2-2.2-.6-3.2c-.4-1-1-1.9-1.7-2.6-.7-.7-1.6-1.3-2.5-1.7-1-.4-2-.6-3.1-.6s-2.2.2-3.2.7c-1,.4-1.8,1-2.5,1.8-.7.7-1.3,1.6-1.7,2.6-.4,1-.6,2-.6,3.2s.2,2.2.6,3.2c.4,1,1,1.9,1.7,2.6.7.7,1.5,1.3,2.5,1.8,1,.4,2,.7,3.2.7h0ZM106.6,51.6c-1.7,0-3.3-.3-4.8-1-1.5-.7-2.7-1.7-3.7-2.9v3.5h-5.3V14.3h5.3v15c.9-1.2,2.1-2.1,3.6-2.8,1.5-.7,3.1-1.1,4.8-1.1s3.2.3,4.7.9c1.5.6,2.9,1.5,4,2.6,1.2,1.1,2.1,2.5,2.8,4.1.7,1.6,1,3.4,1,5.5s-.4,3.8-1.1,5.4c-.7,1.6-1.6,3-2.8,4.1-1.2,1.1-2.5,2-4,2.6-1.5.6-3.1.9-4.7.9h0Z"/>
        <path d="M184.5,46c1-.4,1.8-1,2.5-1.8.7-.7,1.3-1.6,1.7-2.6.4-1,.6-2.1.6-3.2s-.2-2.2-.6-3.2c-.4-1-1-1.9-1.7-2.6-.7-.7-1.5-1.3-2.5-1.8-1-.4-2-.7-3.2-.7s-2.2.2-3.1.6c-1,.4-1.8,1-2.5,1.7-.7.7-1.3,1.6-1.7,2.6-.4,1-.6,2.1-.6,3.2s.2,2.2.6,3.2c.4,1,1,1.9,1.7,2.6.7.7,1.6,1.3,2.5,1.7,1,.4,2,.6,3.1.6s2.2-.2,3.2-.7h0ZM175.9,50.7c-1.5-.6-2.8-1.5-4-2.6-1.2-1.1-2.1-2.5-2.8-4.1-.7-1.6-1.1-3.4-1.1-5.4s.3-3.8,1-5.5c.7-1.6,1.6-3,2.8-4.1,1.2-1.1,2.5-2,4-2.6,1.5-.6,3.1-.9,4.7-.9s3.3.4,4.8,1.1c1.5.7,2.7,1.6,3.6,2.8v-15h5.3v36.9h-5.3v-3.5c-.9,1.2-2.2,2.2-3.7,2.9-1.5.7-3.1,1-4.8,1s-3.2-.3-4.7-.9h0Z"/>
        <path d="M151.8,25.4h5.4v3.9c.7-1.2,1.6-2.2,2.7-2.9,1.1-.7,2.6-1,4.2-1h3v5.2h-3.8c-2.2,0-3.8.6-4.7,1.8-.9,1.2-1.4,3.1-1.4,5.8v13.1s-5.5,0-5.5,0v-25.8h0Z"/>
        <path d="M270.2,31c4.1,0,7.5,3.3,7.5,7.5v12.7h5.6v-12.7c0-7.2-5.8-13-13-13h0c-7.2,0-13,5.8-13,13v12.7h5.6v-12.7c0-4.1,3.3-7.5,7.5-7.5"/>
        <path d="M83.3,41.7c-.4,1-1,1.9-1.7,2.6-.7.7-1.6,1.3-2.5,1.7-1,.4-2,.6-3.1.6s-2.2-.2-3.2-.7c-1-.4-1.8-1-2.5-1.8-.7-.7-1.3-1.6-1.7-2.6-.4-1-.6-2.1-.6-3.2s.2-2.2.6-3.2c.4-1,1-1.9,1.7-2.6.7-.7,1.5-1.3,2.5-1.8,1-.4,2-.7,3.2-.7s2.2.2,3.1.6c1,.4,1.8,1,2.5,1.7.7.7,1.3,1.6,1.7,2.6.4,1,.6,2.1.6,3.2s-.2,2.2-.6,3.2h0ZM88.2,33.4c-.7-1.6-1.6-3-2.8-4.2-1.2-1.2-2.5-2.1-4.1-2.8-1.6-.7-3.3-1-5.1-1s-3.5.3-5.1,1c-1.6.7-3,1.6-4.2,2.8-1.2,1.2-2.1,2.6-2.8,4.2-.7,1.6-1,3.3-1,5.2s.3,3.6,1,5.2c.7,1.6,1.6,3,2.8,4.1,1.2,1.2,2.5,2.1,4.1,2.8,1.6.7,3.3,1,5.1,1s3.2-.3,4.5-1c1.3-.7,2.4-1.6,3.3-2.8v3.3h5.3v-12.6c0-1.9-.3-3.6-1-5.2h0Z"/>
        <g>
          <path d="M49.2,49.3c-.5,0-.9.4-.9.9s.4.9.9.9.9-.4.9-.9-.4-.9-.9-.9h0Z"/>
          <path d="M47.4,49.3c-.5,0-.9.4-.9.9s.4.9.9.9.9-.4.9-.9-.4-.9-.9-.9h0Z"/>
          <path d="M52.9,49.3c-.5,0-.9.4-.9.9s.4.9.9.9.9-.4.9-.9-.4-.9-.9-.9h0Z"/>
          <path d="M51.1,49.3c-.5,0-.9.4-.9.9s.4.9.9.9.9-.4.9-.9-.4-.9-.9-.9h0Z"/>
          <path d="M49.2,47.4c-.5,0-.9.4-.9.9s.4.9.9.9.9-.4.9-.9-.4-.9-.9-.9h0Z"/>
          <path d="M47.4,47.4c-.5,0-.9.4-.9.9s.4.9.9.9.9-.4.9-.9-.4-.9-.9-.9h0Z"/>
          <path d="M52.9,47.4c-.5,0-.9.4-.9.9s.4.9.9.9.9-.4.9-.9-.4-.9-.9-.9h0Z"/>
          <path d="M51.1,47.4c-.5,0-.9.4-.9.9s.4.9.9.9.9-.4.9-.9-.4-.9-.9-.9h0Z"/>
          <path d="M49.2,45.6c-.5,0-.9.4-.9.9s.4.9.9.9.9-.4.9-.9-.4-.9-.9-.9h0Z"/>
          <path d="M47.4,45.6c-.5,0-.9.4-.9.9s.4.9.9.9.9-.4.9-.9-.4-.9-.9-.9h0Z"/>
          <path d="M52.9,45.6c-.5,0-.9.4-.9.9s.4.9.9.9.9-.4.9-.9-.4-.9-.9-.9h0Z"/>
          <path d="M51.1,45.6c-.5,0-.9.4-.9.9s.4.9.9.9.9-.4.9-.9-.4-.9-.9-.9h0Z"/>
          <path d="M49.2,43.8c-.5,0-.9.4-.9.9s.4.9.9.9.9-.4.9-.9-.4-.9-.9-.9h0Z"/>
          <path d="M47.4,43.8c-.5,0-.9.4-.9.9s.4.9.9.9.9-.4.9-.9-.4-.9-.9-.9h0Z"/>
          <path d="M52.9,43.8c-.5,0-.9.4-.9.9s.4.9.9.9.9-.4.9-.9-.4-.9-.9-.9h0Z"/>
          <path d="M51.1,43.8c-.5,0-.9.4-.9.9s.4.9.9.9.9-.4.9-.9-.4-.9-.9-.9h0Z"/>
          <path d="M49.2,41.9c-.5,0-.9.4-.9.9s.4.9.9.9.9-.4.9-.9-.4-.9-.9-.9h0Z"/>
          <path d="M47.4,41.9c-.5,0-.9.4-.9.9s.4.9.9.9.9-.4.9-.9-.4-.9-.9-.9h0Z"/>
          <path d="M52.9,41.9c-.5,0-.9.4-.9.9s.4.9.9.9.9-.4.9-.9-.4-.9-.9-.9h0Z"/>
          <path d="M51.1,41.9c-.5,0-.9.4-.9.9s.4.9.9.9.9-.4.9-.9-.4-.9-.9-.9h0Z"/>
          <path d="M49.2,40.1c-.5,0-.9.4-.9.9s.4.9.9.9.9-.4.9-.9-.4-.9-.9-.9h0Z"/>
          <path d="M47.4,40.1c-.5,0-.9.4-.9.9s.4.9.9.9.9-.4.9-.9-.4-.9-.9-.9h0Z"/>
          <path d="M52.9,40.1c-.5,0-.9.4-.9.9s.4.9.9.9.9-.4.9-.9-.4-.9-.9-.9h0Z"/>
          <path d="M51.1,40.1c-.5,0-.9.4-.9.9s.4.9.9.9.9-.4.9-.9-.4-.9-.9-.9h0Z"/>
          <path d="M49.2,38.2c-.5,0-.9.4-.9.9s.4.9.9.9.9-.4.9-.9-.4-.9-.9-.9h0Z"/>
          <path d="M47.4,38.2c-.5,0-.9.4-.9.9s.4.9.9.9.9-.4.9-.9-.4-.9-.9-.9h0Z"/>
          <path d="M52.9,38.2c-.5,0-.9.4-.9.9s.4.9.9.9.9-.4.9-.9-.4-.9-.9-.9h0Z"/>
          <path d="M51.1,38.2c-.5,0-.9.4-.9.9s.4.9.9.9.9-.4.9-.9-.4-.9-.9-.9h0Z"/>
          <path d="M49.2,36.4c-.5,0-.9.4-.9.9s.4.9.9.9.9-.4.9-.9-.4-.9-.9-.9h0Z"/>
          <path d="M47.4,36.4c-.5,0-.9.4-.9.9s.4.9.9.9.9-.4.9-.9-.4-.9-.9-.9h0Z"/>
          <path d="M52.9,36.4c-.5,0-.9.4-.9.9s.4.9.9.9.9-.4.9-.9-.4-.9-.9-.9h0Z"/>
          <path d="M51.1,36.4c-.5,0-.9.4-.9.9s.4.9.9.9.9-.4.9-.9-.4-.9-.9-.9h0Z"/>
          <path d="M49.2,34.6c-.5,0-.9.4-.9.9s.4.9.9.9.9-.4.9-.9-.4-.9-.9-.9h0Z"/>
          <path d="M47.4,34.6c-.5,0-.9.4-.9.9s.4.9.9.9.9-.4.9-.9-.4-.9-.9-.9h0Z"/>
          <path d="M52.9,34.6c-.5,0-.9.4-.9.9s.4.9.9.9.9-.4.9-.9-.4-.9-.9-.9h0Z"/>
          <path d="M51.1,34.6c-.5,0-.9.4-.9.9s.4.9.9.9.9-.4.9-.9-.4-.9-.9-.9h0Z"/>
          <path d="M49.2,32.7c-.5,0-.9.4-.9.9s.4.9.9.9.9-.4.9-.9-.4-.9-.9-.9h0Z"/>
          <path d="M47.4,32.7c-.5,0-.9.4-.9.9s.4.9.9.9.9-.4.9-.9-.4-.9-.9-.9h0Z"/>
          <path d="M52.9,32.7c-.5,0-.9.4-.9.9s.4.9.9.9.9-.4.9-.9-.4-.9-.9-.9h0Z"/>
          <path d="M51.1,32.7c-.5,0-.9.4-.9.9s.4.9.9.9.9-.4.9-.9-.4-.9-.9-.9h0Z"/>
          <path d="M49.2,30.9c-.5,0-.9.4-.9.9s.4.9.9.9.9-.4.9-.9-.4-.9-.9-.9h0Z"/>
          <path d="M47.4,30.9c-.5,0-.9.4-.9.9s.4.9.9.9.9-.4.9-.9-.4-.9-.9-.9h0Z"/>
          <path d="M52.9,30.9c-.5,0-.9.4-.9.9s.4.9.9.9.9-.4.9-.9-.4-.9-.9-.9h0Z"/>
          <path d="M51.1,30.9c-.5,0-.9.4-.9.9s.4.9.9.9.9-.4.9-.9-.4-.9-.9-.9h0Z"/>
          <path d="M49.2,29.1c-.5,0-.9.4-.9.9s.4.9.9.9.9-.4.9-.9-.4-.9-.9-.9h0Z"/>
          <path d="M47.4,29.1c-.5,0-.9.4-.9.9s.4.9.9.9.9-.4.9-.9-.4-.9-.9-.9h0Z"/>
          <path d="M52.9,29.1c-.5,0-.9.4-.9.9s.4.9.9.9.9-.4.9-.9-.4-.9-.9-.9h0Z"/>
          <path d="M51.1,29.1c-.5,0-.9.4-.9.9s.4.9.9.9.9-.4.9-.9-.4-.9-.9-.9h0Z"/>
          <path d="M49.2,27.2c-.5,0-.9.4-.9.9s.4.9.9.9.9-.4.9-.9-.4-.9-.9-.9h0Z"/>
          <path d="M47.4,27.2c-.5,0-.9.4-.9.9s.4.9.9.9.9-.4.9-.9-.4-.9-.9-.9h0Z"/>
          <path d="M52.9,27.2c-.5,0-.9.4-.9.9s.4.9.9.9.9-.4.9-.9-.4-.9-.9-.9h0Z"/>
          <path d="M51.1,27.2c-.5,0-.9.4-.9.9s.4.9.9.9.9-.4.9-.9-.4-.9-.9-.9h0Z"/>
          <path d="M49.2,25.4c-.5,0-.9.4-.9.9s.4.9.9.9.9-.4.9-.9-.4-.9-.9-.9h0Z"/>
          <path d="M47.4,25.4c-.5,0-.9.4-.9.9s.4.9.9.9.9-.4.9-.9-.4-.9-.9-.9h0Z"/>
          <path d="M52.9,25.4c-.5,0-.9.4-.9.9s.4.9.9.9.9-.4.9-.9-.4-.9-.9-.9h0Z"/>
          <path d="M51.1,25.4c-.5,0-.9.4-.9.9s.4.9.9.9.9-.4.9-.9-.4-.9-.9-.9h0Z"/>
          <path d="M49.2,23.5c-.5,0-.9.4-.9.9s.4.9.9.9.9-.4.9-.9-.4-.9-.9-.9h0Z"/>
          <path d="M47.4,23.5c-.5,0-.9.4-.9.9s.4.9.9.9.9-.4.9-.9-.4-.9-.9-.9h0Z"/>
          <path d="M52.9,23.5c-.5,0-.9.4-.9.9s.4.9.9.9.9-.4.9-.9-.4-.9-.9-.9h0Z"/>
          <path d="M51.1,23.5c-.5,0-.9.4-.9.9s.4.9.9.9.9-.4.9-.9-.4-.9-.9-.9h0Z"/>
          <path d="M49.2,21.7c-.5,0-.9.4-.9.9s.4.9.9.9.9-.4.9-.9-.4-.9-.9-.9h0Z"/>
          <path d="M47.4,21.7c-.5,0-.9.4-.9.9s.4.9.9.9.9-.4.9-.9-.4-.9-.9-.9h0Z"/>
          <path d="M52.9,21.7c-.5,0-.9.4-.9.9s.4.9.9.9.9-.4.9-.9-.4-.9-.9-.9h0Z"/>
          <path d="M51.1,21.7c-.5,0-.9.4-.9.9s.4.9.9.9.9-.4.9-.9-.4-.9-.9-.9h0Z"/>
          <path d="M49.2,19.9c-.5,0-.9.4-.9.9s.4.9.9.9.9-.4.9-.9-.4-.9-.9-.9h0Z"/>
          <path d="M47.4,19.9c-.5,0-.9.4-.9.9s.4.9.9.9.9-.4.9-.9-.4-.9-.9-.9h0Z"/>
          <path d="M52.9,19.9c-.5,0-.9.4-.9.9s.4.9.9.9.9-.4.9-.9-.4-.9-.9-.9h0Z"/>
          <path d="M51.1,19.9c-.5,0-.9.4-.9.9s.4.9.9.9.9-.4.9-.9-.4-.9-.9-.9h0Z"/>
          <path d="M49.2,18c-.5,0-.9.4-.9.9s.4.9.9.9.9-.4.9-.9-.4-.9-.9-.9h0Z"/>
          <path d="M47.4,18c-.5,0-.9.4-.9.9s.4.9.9.9.9-.4.9-.9-.4-.9-.9-.9h0Z"/>
          <path d="M52.9,18c-.5,0-.9.4-.9.9s.4.9.9.9.9-.4.9-.9-.4-.9-.9-.9h0Z"/>
          <path d="M51.1,18c-.5,0-.9.4-.9.9s.4.9.9.9.9-.4.9-.9-.4-.9-.9-.9h0Z"/>
          <path d="M40,49.3c-.5,0-.9.4-.9.9s.4.9.9.9.9-.4.9-.9-.4-.9-.9-.9h0Z"/>
          <path d="M41.9,47.4c-.5,0-.9.4-.9.9s.4.9.9.9.9-.4.9-.9-.4-.9-.9-.9h0Z"/>
          <path d="M40,47.4c-.5,0-.9.4-.9.9s.4.9.9.9.9-.4.9-.9-.4-.9-.9-.9h0Z"/>
          <path d="M41.9,45.6c-.5,0-.9.4-.9.9s.4.9.9.9.9-.4.9-.9-.4-.9-.9-.9h0Z"/>
          <path d="M40,45.6c-.5,0-.9.4-.9.9s.4.9.9.9.9-.4.9-.9-.4-.9-.9-.9h0Z"/>
          <path d="M43.7,45.6c-.5,0-.9.4-.9.9s.4.9.9.9.9-.4.9-.9-.4-.9-.9-.9h0Z"/>
          <path d="M41.9,43.8c-.5,0-.9.4-.9.9s.4.9.9.9.9-.4.9-.9-.4-.9-.9-.9h0Z"/>
          <path d="M40,43.8c-.5,0-.9.4-.9.9s.4.9.9.9.9-.4.9-.9-.4-.9-.9-.9h0Z"/>
          <path d="M45.6,43.8c-.5,0-.9.4-.9.9s.4.9.9.9.9-.4.9-.9-.4-.9-.9-.9h0Z"/>
          <path d="M43.7,43.8c-.5,0-.9.4-.9.9s.4.9.9.9.9-.4.9-.9-.4-.9-.9-.9h0Z"/>
          <path d="M41.9,23.5c-.5,0-.9.4-.9.9s.4.9.9.9.9-.4.9-.9-.4-.9-.9-.9h0Z"/>
          <path d="M40,23.5c-.5,0-.9.4-.9.9s.4.9.9.9.9-.4.9-.9-.4-.9-.9-.9h0Z"/>
          <path d="M45.6,23.5c-.5,0-.9.4-.9.9s.4.9.9.9.9-.4.9-.9-.4-.9-.9-.9h0Z"/>
          <path d="M43.7,23.5c-.5,0-.9.4-.9.9s.4.9.9.9.9-.4.9-.9-.4-.9-.9-.9h0Z"/>
          <path d="M41.9,21.7c-.5,0-.9.4-.9.9s.4.9.9.9.9-.4.9-.9-.4-.9-.9-.9h0Z"/>
          <path d="M40,21.7c-.5,0-.9.4-.9.9s.4.9.9.9.9-.4.9-.9-.4-.9-.9-.9h0Z"/>
          <path d="M45.6,21.7c-.5,0-.9.4-.9.9s.4.9.9.9.9-.4.9-.9-.4-.9-.9-.9h0Z"/>
          <path d="M43.7,21.7c-.5,0-.9.4-.9.9s.4.9.9.9.9-.4.9-.9-.4-.9-.9-.9h0Z"/>
          <path d="M41.9,19.9c-.5,0-.9.4-.9.9s.4.9.9.9.9-.4.9-.9-.4-.9-.9-.9h0Z"/>
          <path d="M40,19.9c-.5,0-.9.4-.9.9s.4.9.9.9.9-.4.9-.9-.4-.9-.9-.9h0Z"/>
          <path d="M45.6,19.9c-.5,0-.9.4-.9.9s.4.9.9.9.9-.4.9-.9-.4-.9-.9-.9h0Z"/>
          <path d="M43.7,19.9c-.5,0-.9.4-.9.9s.4.9.9.9.9-.4.9-.9-.4-.9-.9-.9h0Z"/>
          <path d="M41.9,18c-.5,0-.9.4-.9.9s.4.9.9.9.9-.4.9-.9-.4-.9-.9-.9h0Z"/>
          <path d="M40,18c-.5,0-.9.4-.9.9s.4.9.9.9.9-.4.9-.9-.4-.9-.9-.9h0Z"/>
          <path d="M45.6,18c-.5,0-.9.4-.9.9s.4.9.9.9.9-.4.9-.9-.4-.9-.9-.9h0Z"/>
          <path d="M43.7,18c-.5,0-.9.4-.9.9s.4.9.9.9.9-.4.9-.9-.4-.9-.9-.9h0Z"/>
          <path d="M34.5,49.3c-.5,0-.9.4-.9.9s.4.9.9.9.9-.4.9-.9-.4-.9-.9-.9h0Z"/>
          <path d="M32.7,49.3c-.5,0-.9.4-.9.9s.4.9.9.9.9-.4.9-.9-.4-.9-.9-.9h0Z"/>
          <path d="M38.2,49.3c-.5,0-.9.4-.9.9s.4.9.9.9.9-.4.9-.9-.4-.9-.9-.9h0Z"/>
          <path d="M36.4,49.3c-.5,0-.9.4-.9.9s.4.9.9.9.9-.4.9-.9-.4-.9-.9-.9h0Z"/>
          <path d="M34.5,47.4c-.5,0-.9.4-.9.9s.4.9.9.9.9-.4.9-.9-.4-.9-.9-.9h0Z"/>
          <path d="M32.7,47.4c-.5,0-.9.4-.9.9s.4.9.9.9.9-.4.9-.9-.4-.9-.9-.9h0Z"/>
          <path d="M38.2,47.4c-.5,0-.9.4-.9.9s.4.9.9.9.9-.4.9-.9-.4-.9-.9-.9h0Z"/>
          <path d="M36.4,47.4c-.5,0-.9.4-.9.9s.4.9.9.9.9-.4.9-.9-.4-.9-.9-.9h0Z"/>
          <path d="M34.5,45.6c-.5,0-.9.4-.9.9s.4.9.9.9.9-.4.9-.9-.4-.9-.9-.9h0Z"/>
          <path d="M32.7,45.6c-.5,0-.9.4-.9.9s.4.9.9.9.9-.4.9-.9-.4-.9-.9-.9h0Z"/>
          <path d="M38.2,45.6c-.5,0-.9.4-.9.9s.4.9.9.9.9-.4.9-.9-.4-.9-.9-.9h0Z"/>
          <path d="M36.4,45.6c-.5,0-.9.4-.9.9s.4.9.9.9.9-.4.9-.9-.4-.9-.9-.9h0Z"/>
          <path d="M34.5,43.8c-.5,0-.9.4-.9.9s.4.9.9.9.9-.4.9-.9-.4-.9-.9-.9h0Z"/>
          <path d="M32.7,43.8c-.5,0-.9.4-.9.9s.4.9.9.9.9-.4.9-.9-.4-.9-.9-.9h0Z"/>
          <path d="M38.2,43.8c-.5,0-.9.4-.9.9s.4.9.9.9.9-.4.9-.9-.4-.9-.9-.9h0Z"/>
          <path d="M36.4,43.8c-.5,0-.9.4-.9.9s.4.9.9.9.9-.4.9-.9-.4-.9-.9-.9h0Z"/>
          <path d="M34.5,23.5c-.5,0-.9.4-.9.9s.4.9.9.9.9-.4.9-.9-.4-.9-.9-.9h0Z"/>
          <path d="M32.7,23.5c-.5,0-.9.4-.9.9s.4.9.9.9.9-.4.9-.9-.4-.9-.9-.9h0Z"/>
          <path d="M38.2,23.5c-.5,0-.9.4-.9.9s.4.9.9.9.9-.4.9-.9-.4-.9-.9-.9h0Z"/>
          <path d="M36.4,23.5c-.5,0-.9.4-.9.9s.4.9.9.9.9-.4.9-.9-.4-.9-.9-.9h0Z"/>
          <path d="M34.5,21.7c-.5,0-.9.4-.9.9s.4.9.9.9.9-.4.9-.9-.4-.9-.9-.9h0Z"/>
          <path d="M32.7,21.7c-.5,0-.9.4-.9.9s.4.9.9.9.9-.4.9-.9-.4-.9-.9-.9h0Z"/>
          <path d="M38.2,21.7c-.5,0-.9.4-.9.9s.4.9.9.9.9-.4.9-.9-.4-.9-.9-.9h0Z"/>
          <path d="M36.4,21.7c-.5,0-.9.4-.9.9s.4.9.9.9.9-.4.9-.9-.4-.9-.9-.9h0Z"/>
          <path d="M34.5,19.9c-.5,0-.9.4-.9.9s.4.9.9.9.9-.4.9-.9-.4-.9-.9-.9h0Z"/>
          <path d="M32.7,19.9c-.5,0-.9.4-.9.9s.4.9.9.9.9-.4.9-.9-.4-.9-.9-.9h0Z"/>
          <path d="M38.2,19.9c-.5,0-.9.4-.9.9s.4.9.9.9.9-.4.9-.9-.4-.9-.9-.9h0Z"/>
          <path d="M36.4,19.9c-.5,0-.9.4-.9.9s.4.9.9.9.9-.4.9-.9-.4-.9-.9-.9h0Z"/>
          <path d="M34.5,18c-.5,0-.9.4-.9.9s.4.9.9.9.9-.4.9-.9-.4-.9-.9-.9h0Z"/>
          <path d="M32.7,18c-.5,0-.9.4-.9.9s.4.9.9.9.9-.4.9-.9-.4-.9-.9-.9h0Z"/>
          <path d="M38.2,18c-.5,0-.9.4-.9.9s.4.9.9.9.9-.4.9-.9-.4-.9-.9-.9h0Z"/>
          <path d="M36.4,18c-.5,0-.9.4-.9.9s.4.9.9.9.9-.4.9-.9-.4-.9-.9-.9h0Z"/>
          <path d="M27.2,49.3c-.5,0-.9.4-.9.9s.4.9.9.9.9-.4.9-.9-.4-.9-.9-.9h0Z"/>
          <path d="M30.9,49.3c-.5,0-.9.4-.9.9s.4.9.9.9.9-.4.9-.9-.4-.9-.9-.9h0Z"/>
          <path d="M29,49.3c-.5,0-.9.4-.9.9s.4.9.9.9.9-.4.9-.9-.4-.9-.9-.9h0Z"/>
          <path d="M27.2,47.4c-.5,0-.9.4-.9.9s.4.9.9.9.9-.4.9-.9-.4-.9-.9-.9h0Z"/>
          <path d="M25.3,47.4c-.5,0-.9.4-.9.9s.4.9.9.9.9-.4.9-.9-.4-.9-.9-.9h0Z"/>
          <path d="M30.9,47.4c-.5,0-.9.4-.9.9s.4.9.9.9.9-.4.9-.9-.4-.9-.9-.9h0Z"/>
          <path d="M29,47.4c-.5,0-.9.4-.9.9s.4.9.9.9.9-.4.9-.9-.4-.9-.9-.9h0Z"/>
          <path d="M27.2,45.6c-.5,0-.9.4-.9.9s.4.9.9.9.9-.4.9-.9-.4-.9-.9-.9h0Z"/>
          <path d="M25.3,45.6c-.5,0-.9.4-.9.9s.4.9.9.9.9-.4.9-.9-.4-.9-.9-.9h0Z"/>
          <path d="M30.9,45.6c-.5,0-.9.4-.9.9s.4.9.9.9.9-.4.9-.9-.4-.9-.9-.9h0Z"/>
          <path d="M29,45.6c-.5,0-.9.4-.9.9s.4.9.9.9.9-.4.9-.9-.4-.9-.9-.9h0Z"/>
          <path d="M27.2,43.8c-.5,0-.9.4-.9.9s.4.9.9.9.9-.4.9-.9-.4-.9-.9-.9h0Z"/>
          <path d="M25.3,43.8c-.5,0-.9.4-.9.9s.4.9.9.9.9-.4.9-.9-.4-.9-.9-.9h0Z"/>
          <path d="M30.9,43.8c-.5,0-.9.4-.9.9s.4.9.9.9.9-.4.9-.9-.4-.9-.9-.9h0Z"/>
          <path d="M29,43.8c-.5,0-.9.4-.9.9s.4.9.9.9.9-.4.9-.9-.4-.9-.9-.9h0Z"/>
          <path d="M27.2,41.9c-.5,0-.9.4-.9.9s.4.9.9.9.9-.4.9-.9-.4-.9-.9-.9h0Z"/>
          <path d="M25.3,41.9c-.5,0-.9.4-.9.9s.4.9.9.9.9-.4.9-.9-.4-.9-.9-.9h0Z"/>
          <path d="M27.2,40.1c-.5,0-.9.4-.9.9s.4.9.9.9.9-.4.9-.9-.4-.9-.9-.9h0Z"/>
          <path d="M25.3,40.1c-.5,0-.9.4-.9.9s.4.9.9.9.9-.4.9-.9-.4-.9-.9-.9h0Z"/>
          <path d="M27.2,38.2c-.5,0-.9.4-.9.9s.4.9.9.9.9-.4.9-.9-.4-.9-.9-.9h0Z"/>
          <path d="M25.3,38.2c-.5,0-.9.4-.9.9s.4.9.9.9.9-.4.9-.9-.4-.9-.9-.9h0Z"/>
          <path d="M27.2,36.4c-.5,0-.9.4-.9.9s.4.9.9.9.9-.4.9-.9-.4-.9-.9-.9h0Z"/>
          <path d="M25.3,36.4c-.5,0-.9.4-.9.9s.4.9.9.9.9-.4.9-.9-.4-.9-.9-.9h0Z"/>
          <path d="M27.2,34.6c-.5,0-.9.4-.9.9s.4.9.9.9.9-.4.9-.9-.4-.9-.9-.9h0Z"/>
          <path d="M25.3,34.6c-.5,0-.9.4-.9.9s.4.9.9.9.9-.4.9-.9-.4-.9-.9-.9h0Z"/>
          <path d="M27.2,32.7c-.5,0-.9.4-.9.9s.4.9.9.9.9-.4.9-.9-.4-.9-.9-.9h0Z"/>
          <path d="M25.3,32.7c-.5,0-.9.4-.9.9s.4.9.9.9.9-.4.9-.9-.4-.9-.9-.9h0Z"/>
          <path d="M27.2,30.9c-.5,0-.9.4-.9.9s.4.9.9.9.9-.4.9-.9-.4-.9-.9-.9h0Z"/>
          <path d="M25.3,30.9c-.5,0-.9.4-.9.9s.4.9.9.9.9-.4.9-.9-.4-.9-.9-.9h0Z"/>
          <path d="M27.2,29.1c-.5,0-.9.4-.9.9s.4.9.9.9.9-.4.9-.9-.4-.9-.9-.9h0Z"/>
          <path d="M25.3,29.1c-.5,0-.9.4-.9.9s.4.9.9.9.9-.4.9-.9-.4-.9-.9-.9h0Z"/>
          <path d="M27.2,27.2c-.5,0-.9.4-.9.9s.4.9.9.9.9-.4.9-.9-.4-.9-.9-.9h0Z"/>
          <path d="M25.3,27.2c-.5,0-.9.4-.9.9s.4.9.9.9.9-.4.9-.9-.4-.9-.9-.9h0Z"/>
          <path d="M27.2,25.4c-.5,0-.9.4-.9.9s.4.9.9.9.9-.4.9-.9-.4-.9-.9-.9h0Z"/>
          <path d="M25.3,25.4c-.5,0-.9.4-.9.9s.4.9.9.9.9-.4.9-.9-.4-.9-.9-.9h0Z"/>
          <path d="M27.2,23.5c-.5,0-.9.4-.9.9s.4.9.9.9.9-.4.9-.9-.4-.9-.9-.9h0Z"/>
          <path d="M30.9,23.5c-.5,0-.9.4-.9.9s.4.9.9.9.9-.4.9-.9-.4-.9-.9-.9h0Z"/>
          <path d="M29,23.5c-.5,0-.9.4-.9.9s.4.9.9.9.9-.4.9-.9-.4-.9-.9-.9h0Z"/>
          <path d="M30.9,21.7c-.5,0-.9.4-.9.9s.4.9.9.9.9-.4.9-.9-.4-.9-.9-.9h0Z"/>
          <path d="M29,21.7c-.5,0-.9.4-.9.9s.4.9.9.9.9-.4.9-.9-.4-.9-.9-.9h0Z"/>
          <path d="M30.9,19.9c-.5,0-.9.4-.9.9s.4.9.9.9.9-.4.9-.9-.4-.9-.9-.9h0Z"/>
          <path d="M23.5,45.6c-.5,0-.9.4-.9.9s.4.9.9.9.9-.4.9-.9-.4-.9-.9-.9h0Z"/>
          <path d="M23.5,43.8c-.5,0-.9.4-.9.9s.4.9.9.9.9-.4.9-.9-.4-.9-.9-.9h0Z"/>
          <path d="M21.7,43.8c-.5,0-.9.4-.9.9s.4.9.9.9.9-.4.9-.9-.4-.9-.9-.9h0Z"/>
          <path d="M23.5,41.9c-.5,0-.9.4-.9.9s.4.9.9.9.9-.4.9-.9-.4-.9-.9-.9h0Z"/>
          <path d="M21.7,41.9c-.5,0-.9.4-.9.9s.4.9.9.9.9-.4.9-.9-.4-.9-.9-.9h0Z"/>
          <path d="M23.5,40.1c-.5,0-.9.4-.9.9s.4.9.9.9.9-.4.9-.9-.4-.9-.9-.9h0Z"/>
          <path d="M21.7,40.1c-.5,0-.9.4-.9.9s.4.9.9.9.9-.4.9-.9-.4-.9-.9-.9h0Z"/>
          <path d="M23.5,38.2c-.5,0-.9.4-.9.9s.4.9.9.9.9-.4.9-.9-.4-.9-.9-.9h0Z"/>
          <path d="M21.7,38.2c-.5,0-.9.4-.9.9s.4.9.9.9.9-.4.9-.9-.4-.9-.9-.9h0Z"/>
          <path d="M23.5,36.4c-.5,0-.9.4-.9.9s.4.9.9.9.9-.4.9-.9-.4-.9-.9-.9h0Z"/>
          <path d="M21.7,36.4c-.5,0-.9.4-.9.9s.4.9.9.9.9-.4.9-.9-.4-.9-.9-.9h0Z"/>
          <path d="M23.5,34.6c-.5,0-.9.4-.9.9s.4.9.9.9.9-.4.9-.9-.4-.9-.9-.9h0Z"/>
          <path d="M21.7,34.6c-.5,0-.9.4-.9.9s.4.9.9.9.9-.4.9-.9-.4-.9-.9-.9h0Z"/>
          <path d="M23.5,32.7c-.5,0-.9.4-.9.9s.4.9.9.9.9-.4.9-.9-.4-.9-.9-.9h0Z"/>
          <path d="M21.7,32.7c-.5,0-.9.4-.9.9s.4.9.9.9.9-.4.9-.9-.4-.9-.9-.9h0Z"/>
          <path d="M23.5,30.9c-.5,0-.9.4-.9.9s.4.9.9.9.9-.4.9-.9-.4-.9-.9-.9h0Z"/>
          <path d="M21.7,30.9c-.5,0-.9.4-.9.9s.4.9.9.9.9-.4.9-.9-.4-.9-.9-.9h0Z"/>
          <path d="M23.5,29.1c-.5,0-.9.4-.9.9s.4.9.9.9.9-.4.9-.9-.4-.9-.9-.9h0Z"/>
          <path d="M21.7,29.1c-.5,0-.9.4-.9.9s.4.9.9.9.9-.4.9-.9-.4-.9-.9-.9h0Z"/>
          <path d="M23.5,27.2c-.5,0-.9.4-.9.9s.4.9.9.9.9-.4.9-.9-.4-.9-.9-.9h0Z"/>
        </g>
      </g>
    </g>
  </g>
</svg>