<?xml version="1.0" encoding="UTF-8"?>
<svg id="Logo" xmlns="http://www.w3.org/2000/svg" viewBox="0 0 293.642152903 107.5803859638"><defs><style>.cls-1{fill:#191d64;stroke-width:0px;}</style></defs><path class="cls-1" d="m166.7548705348,34.4882880456c.7259131198.1306438332,3.3313244836.8898336336,3.3313244836,2.7397522856v29.6405742272h8.8096032389v-33.4365396848h-12.1409277225v1.056213172Z"/><path class="cls-1" d="m99.6965339706,53.5434207745l5.9034683948-13.1540070151,5.1566009171,13.1540070151h-11.0600693119Zm-2.2245798951-20.1112236633v1.0562178734c1.0673041333.2230719474,3.3806285787.8676475012,2.4439589057,2.9554288555l-13.1404510665,29.4261270859h6.9424274925l4.1151735587-9.1731735755h14.5540733319l3.5987805111,9.1731735755h9.1275716338l-13.03938872-33.4377738148h-14.6021456473Z"/><path class="cls-1" d="m234.7862283752,53.5434207745l5.9009954327-13.1540070151,5.1590691778,13.1540070151h-11.0600646104Zm-2.2245751937-20.1112236633v1.0562178734c1.0635993916.2230719474,3.381846254.8676475012,2.4414812421,2.9554288555l-13.1367510261,29.4261270859h6.942422791l4.1077875825-9.1731735755h14.555309813l3.6000122908,9.1731735755h9.1349717145l-13.0468029049-33.4390055942h-14.5984315027v.0012317793Z"/><path class="cls-1" d="m209.122673503,66.8692298603l13.932913196-33.4377708764h-6.5887045783l-10.2182983858,24.5197172553-9.7216185136-24.5197172553h-12.3837293518v1.0574449513c1.4308859859.2736054597,3.0355469277.8886018543,3.7688601281,2.7385181555l11.7526914717,29.6418077696h9.4578860337Z"/><path class="cls-1" d="m148.0474102672,66.8692298603l13.9366179378-33.4377708764h-6.5924093201l-10.2158348266,24.5197172553-9.7253138525-24.5197172553h-12.3800340129v1.0574449513c1.4321177656.2736054597,3.0330833685.8886018543,3.7700919077,2.7385181555l11.7465419765,29.6418077696h9.4603401901Z"/><path class="cls-1" d="m74.1734724972,66.8538238034l.0110907181-33.4180535918-11.2732800215-.003695338v.003695338l3.2684755142,33.6620804799c2.6103431838-.1528246765,5.2749128797-.2390968324,7.9937137892-.2440268881"/><path class="cls-1" d="m59.5916606166,67.6588644742l3.3190043367-34.2228450858v-.0049318188l-29.4754309074.0049318188.0147884077,40.6353155487c6.9251743502-3.026912901,15.9393623152-5.2835399968,26.1416381631-6.4124704628"/></svg>
