<?xml version="1.0" encoding="utf-8"?>
<!-- Generator: Adobe Illustrator 25.0.1, SVG Export Plug-In . SVG Version: 6.00 Build 0)  -->
<svg version="1.1" xmlns="http://www.w3.org/2000/svg" xmlns:xlink="http://www.w3.org/1999/xlink" x="0px" y="0px"
	 viewBox="0 0 505 205" style="enable-background:new 0 0 505 205;" xml:space="preserve">
<style type="text/css">
	.st0{fill:none;}
	.st1{fill:#293741;}
</style>
<g id="Exclusion_zone">
	<g>
		<g>
			<rect x="52.5" y="52.5" class="st0" width="400" height="100"/>
		</g>
		<g>
			<rect class="st0" width="505" height="205"/>
		</g>
		<g>
			<path class="st0" d="M0,115.8h1.7c0.3-1.7,1.4-5.3,4.6-3.8l46.2,20.6v-10.9l-14.4-6.4V92.4l14.4-5.6V72.5L0,92.9V115.8z M31.6,95
				v17.3L10.9,103L31.6,95z"/>
			<path class="st0" d="M262.6,166.9h-22.8l-6.4-14.4h-10.9l20.6,46.2c1.5,3.3-2.2,4.3-3.8,4.6v1.7h22.8l20.4-52.5h-14.3
				L262.6,166.9z M252,194.1l-9.2-20.7H260L252,194.1z"/>
			<path class="st0" d="M239.2,0v1.7c1.7,0.3,5.3,1.4,3.8,4.6l-20.6,46.2h10.9l6.4-14.4h22.8l5.6,14.4h14.3L262.1,0H239.2z
				 M242.7,31.6l9.2-20.7l8.1,20.7H242.7z"/>
			<path class="st0" d="M503.3,89.2c-0.3,1.7-1.4,5.3-4.6,3.8l-46.2-20.6v10.9l14.4,6.4v22.8l-14.4,5.6v14.3l52.5-20.4V89.2H503.3z
				 M473.4,110V92.7l20.7,9.2L473.4,110z"/>
		</g>
	</g>
</g>
<g id="Logo">
	<g>
		<path class="st1" d="M178.3,123c0.6,0.1,2.9,0.8,2.9,2.4v26.1h7.7v-29.4h-10.6V123z M252,143.7l-8.5-21.6h-10.8v0.9
			c1.3,0.2,2.7,0.8,3.3,2.4l10.3,26.1h8.3l12.2-29.4h-5.8L252,143.7z M373.9,147.9c-5.9,0-9.1-3.2-9.1-11c0-7.8,3.2-11,9.1-11
			c5.9,0,9.1,3.2,9.1,11C383,144.7,379.8,147.9,373.9,147.9 M373.9,121.3c-10.6,0-17.1,7-17.1,15.6c0,8.6,6.5,15.6,17.1,15.6
			c10.6,0,17.1-7,17.1-15.6C391,128.3,384.5,121.3,373.9,121.3 M326.2,126.4h10.5v25.1h7.7v-25.1H355v-4.3h-28.7V126.4z
			 M407.6,136.3c-1.1,0-2,0-2.6-0.1v-10.3h2.8c1.7,0,3.1,0.1,4.2,0.4c2.4,0.5,3.5,2,3.5,4.5C415.5,134.4,412.9,136.3,407.6,136.3
			 M417.6,141.5c-0.5-0.6-0.8-1-1-1.2c-0.8-0.9-1.4-1.6-2-2c5.7-0.9,8.6-3.4,8.6-7.6c0-5.7-4.2-8.6-12.5-8.6l-16.4,0v0.9
			c0.6,0.1,2.9,0.8,2.9,2.4v26.1h7.7v-12.9c1.1,0.6,2.2,1.4,3.3,2.6c0.5,0.5,1.4,1.6,2.7,3.2l5.7,7.1h9.1l-6.9-8.6L417.6,141.5z
			 M445.7,134.9c-2.8-1.7-4.3-2.7-4.5-2.8c-2.3-1.6-3.4-2.7-3.4-3.5c0-0.6,0.3-1.1,0.8-1.6c1-0.9,2.6-1.3,4.6-1.3
			c1.4,0,2.5,0.2,3.5,0.5c1.8,0.7,3,1.6,3.4,2.8h0.9v-6.3c-2.5-0.8-5.2-1.2-8.3-1.2c-4.1,0-7.3,0.8-9.6,2.3
			c-2.1,1.4-3.2,3.3-3.2,5.7c0,1.9,0.8,3.7,2.5,5.4c1,1,2.7,2.2,5,3.6c2.5,1.6,3.9,2.4,4.2,2.6c1.8,1.3,2.6,2.6,2.6,3.8
			c0,1-0.6,1.8-1.6,2.3c-0.8,0.4-1.8,0.5-3,0.5c-3.7,0-7-0.8-10.1-2.4v5.2c3,0.9,6.1,1.4,9.4,1.4c2.8,0,5.3-0.4,7.3-1.1
			c4.1-1.4,6.1-3.9,6.1-7.5C452.5,140.6,450.2,137.7,445.7,134.9 M315.8,134.9c-2.8-1.7-4.3-2.7-4.5-2.8c-2.3-1.6-3.4-2.7-3.4-3.5
			c0-0.6,0.3-1.1,0.8-1.6c1-0.9,2.6-1.3,4.6-1.3c1.4,0,2.5,0.2,3.5,0.5c1.8,0.7,3,1.6,3.4,2.8h0.9v-6.3c-2.5-0.8-5.2-1.2-8.3-1.2
			c-4.1,0-7.3,0.8-9.6,2.3c-2.1,1.4-3.2,3.3-3.2,5.7c0,1.9,0.8,3.7,2.5,5.4c1,1,2.7,2.2,5,3.6c2.5,1.6,3.9,2.4,4.2,2.6
			c1.8,1.3,2.6,2.6,2.6,3.8c0,1-0.5,1.8-1.7,2.3c-0.8,0.4-1.8,0.5-2.9,0.5c-3.7,0-7-0.8-10.1-2.4v5.2c3,0.9,6.1,1.4,9.4,1.4
			c2.8,0,5.3-0.4,7.3-1.1c4.1-1.4,6.1-3.9,6.1-7.5C322.6,140.6,320.3,137.7,315.8,134.9 M222.2,143.8l-16.4-21.7l-11.2,0v0.9
			c0.6,0.1,2.9,0.8,2.9,2.4v26.1h5.8v-19.6l14.7,19.6h9.9v-29.4h-5.7V143.8z M270.8,122.1v0.9c0.6,0.1,2.9,0.8,2.9,2.4v26.1H294
			v-4.3h-12.6V138H293v-4.2h-11.6v-7.4H294v-4.3L270.8,122.1z"/>
		<path class="st1" d="M271.2,91L256,52.5h-19.3v1.7c2.2,0.4,4.7,1.4,5.9,4.3l18.4,46.5h14.8l21.8-52.5h-10.3L271.2,91z M382.6,52.5
			l-16,38.5l-15.2-38.5h-19.3v1.7c2.2,0.4,4.7,1.4,5.9,4.3l18.4,46.5h14.8l21.8-52.5H382.6z M411.2,84.1l9.2-20.7l8.1,20.7H411.2z
			 M430.5,52.5h-22.8v1.7c1.7,0.3,5.3,1.4,3.8,4.6L391,105h10.8l6.4-14.4H431l5.6,14.4h14.3L430.5,52.5z M200.1,84.1l9.2-20.7
			l8.1,20.7H200.1z M196.7,52.5v1.7c1.7,0.3,5.3,1.4,3.8,4.6L179.9,105h10.8l6.4-14.4H220l5.6,14.4h14.3l-20.4-52.5H196.7z
			 M304.9,54.2c1.1,0.2,5.2,1.4,5.2,4.3V105h13.8V52.5h-19V54.2z"/>
		<path class="st1" d="M151,133.7l0-81.2l-27.3,0v0l7.9,81.8C138,133.9,144.4,133.7,151,133.7"/>
		<path class="st1" d="M115.7,135.7l8-83.2v0l-71.3,0l0,98.7C69.3,143.9,91.1,138.4,115.7,135.7"/>
	</g>
</g>
</svg>
