<?xml version="1.0" encoding="UTF-8"?>
<svg id="Layer_1" data-name="Layer 1" xmlns="http://www.w3.org/2000/svg" viewBox="0 0 102.05 109">
  <path d="M102.05,51.39c0,31.49-26.72,57.62-54.13,57.62-.04,0,3.15-8.36,3.1-8.36C22.84,100.65,0,79.77,0,51.39S22.84,0,51.02,0s51.02,23.01,51.02,51.39" style="fill: #fff;"/>
  <path d="M78.6,68.35c.58-.13,1.13-.32,1.64-.58v-2.29c-.63.3-1.23.51-1.81.65-.58.14-1.19.2-1.84.2-.83,0-1.48-.23-1.94-.71-.46-.47-.71-1.13-.74-1.97h6.93v-1.43c0-1.54-.42-2.74-1.27-3.62-.84-.87-2.03-1.31-3.54-1.31s-2.83.5-3.73,1.49c-.9.99-1.35,2.4-1.35,4.21s.49,3.13,1.46,4.09c.97.96,2.33,1.44,4.05,1.44.84,0,1.55-.06,2.13-.19M77.53,60.01c.37.4.55.96.57,1.69h-4.11c.05-.73.25-1.29.6-1.69.35-.4.84-.6,1.46-.6s1.11.2,1.48.6M68.07,68.37c.48-.12.96-.33,1.44-.63v-2.53c-.48.32-.96.56-1.44.71-.48.15-1,.23-1.57.23-1.52,0-2.29-1.06-2.29-3.18s.76-3.28,2.29-3.28c.4,0,.79.06,1.19.18.4.12.83.27,1.29.46l.86-2.29c-.99-.49-2.1-.74-3.34-.74-1.7,0-3,.49-3.91,1.46-.91.97-1.36,2.38-1.36,4.22,0,3.7,1.67,5.55,5.02,5.55.74,0,1.35-.06,1.83-.18M59.2,57.52h-2.93v10.83h2.93v-10.83ZM57.74,56.17c.53,0,.93-.13,1.2-.38.27-.25.4-.61.4-1.07,0-.96-.53-1.44-1.59-1.44s-1.59.48-1.59,1.44.53,1.45,1.59,1.45M51.03,68.35l4.09-10.83h-3.07l-2.07,6.17c-.26.86-.4,1.6-.43,2.22h-.06c-.06-.7-.2-1.44-.43-2.22l-2.08-6.17h-3.07l4.09,10.83h3.01ZM36.27,65.39c-.37-.53-.55-1.33-.55-2.4s.18-1.88.54-2.44c.36-.56.87-.84,1.52-.84.8,0,1.38.25,1.73.76.36.5.53,1.34.53,2.5v.32c-.03,1.05-.22,1.8-.57,2.24-.35.44-.9.66-1.65.66-.68,0-1.2-.27-1.57-.8M39.85,66.94h.12l.57,1.4h2.25v-15.08h-2.94v3.47c0,.63.07,1.35.22,2.16h-.1c-.71-1.06-1.74-1.59-3.09-1.59s-2.3.5-3.03,1.49c-.73.99-1.1,2.38-1.1,4.15s.36,3.12,1.08,4.11c.72.99,1.71,1.48,2.97,1.48,1.36,0,2.38-.53,3.05-1.6M28.26,64.22c0,.65-.2,1.18-.61,1.57-.41.39-.95.59-1.63.59-.95,0-1.42-.42-1.42-1.25,0-.58.21-1.01.62-1.3.42-.29,1.05-.44,1.9-.47l1.13-.04v.89ZM31.17,68.35v-7.22c0-1.29-.38-2.25-1.15-2.89-.77-.63-1.87-.95-3.32-.95s-2.88.33-4.11.98l.97,2c1.16-.52,2.17-.79,3.03-.79,1.12,0,1.67.55,1.67,1.65v.47l-1.86.06c-1.61.06-2.81.36-3.61.91-.8.55-1.2,1.39-1.2,2.54s.3,1.95.89,2.54c.59.59,1.4.89,2.44.89.84,0,1.52-.12,2.04-.36.52-.24,1.03-.68,1.52-1.3h.08l.57,1.47h2.05Z" style="fill: #fff;"/>
  <path d="M86.06,43.46c-.19-.39-.47-.73-.87-1.03-.39-.3-1.01-.62-1.84-.96-.94-.38-1.55-.67-1.83-.86-.28-.19-.42-.42-.42-.69,0-.47.43-.71,1.3-.71.49,0,.96.07,1.43.22.47.15.97.34,1.51.57l.88-2.13c-1.22-.57-2.48-.85-3.78-.85-1.36,0-2.41.26-3.15.79-.74.53-1.11,1.27-1.11,2.23,0,.56.09,1.04.26,1.42.18.38.46.73.84,1.02s1,.62,1.82.97c.58.25,1.04.46,1.38.64s.59.35.73.49c.14.14.21.33.21.57,0,.62-.53.93-1.59.93-.52,0-1.12-.09-1.8-.26-.68-.18-1.3-.39-1.84-.65v2.44c.48.21,1,.36,1.55.47.55.11,1.22.16,2,.16,1.53,0,2.67-.29,3.44-.87.77-.58,1.15-1.43,1.15-2.54,0-.54-.09-1-.28-1.38M76.22,40.99c0-1.29-.32-2.27-.97-2.95-.65-.68-1.6-1.02-2.84-1.02-.73,0-1.38.13-1.96.4-.57.27-1.02.66-1.35,1.19h-.16l-.39-1.38h-2.24v10.83h2.93v-5.1c0-1.28.18-2.2.55-2.75.37-.55.96-.83,1.78-.83.6,0,1.04.2,1.32.59.28.39.41.98.41,1.76v6.33h2.93v-7.06ZM62.06,48.06c.58-.12,1.13-.32,1.64-.58v-2.29c-.63.3-1.23.51-1.81.65-.58.14-1.19.21-1.84.21-.83,0-1.48-.24-1.94-.71-.46-.47-.71-1.13-.74-1.97h6.93v-1.43c0-1.54-.42-2.74-1.27-3.61-.85-.87-2.03-1.31-3.55-1.31s-2.83.5-3.73,1.49c-.9.99-1.35,2.39-1.35,4.21s.49,3.13,1.46,4.09c.97.96,2.32,1.44,4.05,1.44.84,0,1.55-.06,2.13-.19M60.99,39.72c.37.4.55.96.57,1.69h-4.11c.05-.73.25-1.29.61-1.69.35-.4.84-.6,1.46-.6s1.12.2,1.48.6M53.33,45.8h-5.02l4.84-6.66v-1.92h-8.01v2.26h4.68l-4.98,6.83v1.75h8.49v-2.26ZM43.18,37.22h-2.93v10.83h2.93v-10.83ZM41.72,35.88c.53,0,.93-.13,1.2-.38.27-.26.4-.61.4-1.07,0-.96-.53-1.44-1.59-1.44s-1.59.48-1.59,1.44.53,1.45,1.59,1.45M35.7,45.6c-.23-.2-.35-.51-.35-.93v-5.22h3.01v-2.22h-3.01v-2.31h-1.87l-.84,2.29-1.62.99v1.25h1.4v5.22c0,1.2.27,2.09.8,2.69.54.6,1.39.9,2.56.9,1.06,0,1.96-.17,2.69-.49v-2.2c-.72.22-1.33.34-1.85.34-.38,0-.69-.1-.93-.3M29.42,37.22h-2.93v10.83h2.93v-10.83ZM27.96,35.88c.53,0,.93-.13,1.2-.38.27-.26.4-.61.4-1.07,0-.96-.53-1.44-1.59-1.44s-1.6.48-1.6,1.44.53,1.45,1.6,1.45M22.95,48.08c.48-.12.96-.33,1.44-.63v-2.53c-.48.32-.96.56-1.44.71-.48.15-1,.23-1.57.23-1.52,0-2.29-1.06-2.29-3.18s.76-3.28,2.29-3.28c.4,0,.79.06,1.19.18.4.12.83.27,1.29.46l.86-2.29c-.99-.49-2.1-.74-3.34-.74-1.7,0-3,.49-3.91,1.46-.91.97-1.36,2.38-1.36,4.22,0,3.7,1.67,5.55,5.02,5.55.74,0,1.35-.06,1.83-.17" style="fill: #fff;"/>
  <path d="M102.05,51.39c0,31.49-26.72,57.62-54.13,57.62-.04,0,3.15-8.36,3.1-8.36C22.84,100.65,0,79.77,0,51.39S22.84,0,51.02,0s51.02,23.01,51.02,51.39" style="fill: #231f20;"/>
  <path d="M78.6,68.35c.58-.13,1.13-.32,1.64-.58v-2.29c-.63.3-1.23.51-1.81.65-.58.14-1.19.2-1.84.2-.83,0-1.48-.23-1.94-.71-.46-.47-.71-1.13-.74-1.97h6.93v-1.43c0-1.54-.42-2.74-1.27-3.62-.84-.87-2.03-1.31-3.54-1.31s-2.83.5-3.73,1.49c-.9.99-1.35,2.39-1.35,4.21s.49,3.13,1.46,4.09c.97.96,2.33,1.44,4.05,1.44.84,0,1.55-.06,2.13-.19M77.53,60.01c.37.4.55.96.57,1.69h-4.11c.05-.73.25-1.29.6-1.69.35-.4.84-.6,1.46-.6s1.11.2,1.48.6M68.07,68.37c.48-.12.96-.33,1.44-.63v-2.53c-.48.32-.96.56-1.44.71-.48.15-1,.23-1.57.23-1.52,0-2.29-1.06-2.29-3.18s.76-3.28,2.29-3.28c.4,0,.79.06,1.19.18.4.12.83.27,1.29.46l.86-2.29c-.99-.49-2.1-.74-3.34-.74-1.7,0-3,.49-3.91,1.46-.91.97-1.36,2.38-1.36,4.22,0,3.7,1.67,5.55,5.02,5.55.74,0,1.35-.06,1.83-.18M59.2,57.52h-2.93v10.83h2.93v-10.83ZM57.74,56.17c.53,0,.93-.13,1.2-.38.27-.25.4-.61.4-1.07,0-.96-.53-1.44-1.59-1.44s-1.59.48-1.59,1.44.53,1.45,1.59,1.45M51.03,68.35l4.09-10.83h-3.07l-2.07,6.17c-.26.86-.4,1.6-.43,2.22h-.06c-.06-.7-.2-1.44-.43-2.22l-2.08-6.17h-3.07l4.09,10.83h3.01ZM36.27,65.39c-.37-.53-.55-1.33-.55-2.4s.18-1.88.54-2.44c.36-.56.87-.84,1.52-.84.8,0,1.38.25,1.73.76.36.5.53,1.34.53,2.5v.32c-.03,1.05-.22,1.8-.57,2.24-.35.44-.9.66-1.65.66-.68,0-1.2-.27-1.57-.8M39.85,66.94h.12l.57,1.4h2.25v-15.08h-2.94v3.47c0,.63.07,1.35.22,2.16h-.1c-.71-1.06-1.74-1.59-3.09-1.59s-2.3.5-3.03,1.49c-.73.99-1.1,2.38-1.1,4.15s.36,3.12,1.08,4.11c.72.99,1.71,1.48,2.97,1.48,1.36,0,2.38-.53,3.05-1.6M28.26,64.22c0,.65-.2,1.18-.61,1.57-.41.39-.95.59-1.63.59-.95,0-1.42-.42-1.42-1.25,0-.58.21-1.01.62-1.3.42-.29,1.05-.44,1.9-.47l1.13-.04v.89ZM31.17,68.35v-7.22c0-1.29-.38-2.25-1.15-2.89-.77-.63-1.87-.95-3.32-.95s-2.88.33-4.11.98l.97,2c1.16-.52,2.17-.79,3.03-.79,1.12,0,1.67.55,1.67,1.65v.47l-1.86.06c-1.61.06-2.81.36-3.61.91-.8.55-1.2,1.39-1.2,2.54s.3,1.95.89,2.54c.59.59,1.4.89,2.44.89.84,0,1.52-.12,2.04-.37.52-.24,1.03-.67,1.52-1.3h.08l.57,1.47h2.05Z" style="fill: #fff;"/>
  <path d="M86.06,43.46c-.19-.39-.47-.73-.87-1.03-.39-.3-1.01-.62-1.84-.96-.94-.38-1.55-.67-1.83-.86-.28-.19-.42-.42-.42-.69,0-.47.43-.71,1.3-.71.49,0,.96.07,1.43.22.47.15.97.34,1.51.57l.88-2.13c-1.22-.57-2.48-.85-3.78-.85-1.36,0-2.41.26-3.15.79-.74.53-1.11,1.27-1.11,2.23,0,.56.09,1.04.26,1.42.18.38.46.73.84,1.02s1,.62,1.82.97c.58.25,1.04.46,1.38.64s.59.35.73.49c.14.14.21.33.21.57,0,.62-.53.93-1.59.93-.52,0-1.12-.09-1.8-.26-.68-.18-1.3-.39-1.84-.65v2.44c.48.21,1,.36,1.55.47.55.11,1.22.16,2,.16,1.53,0,2.67-.29,3.44-.87.77-.58,1.15-1.43,1.15-2.54,0-.54-.09-1-.28-1.38M76.22,40.99c0-1.29-.32-2.27-.97-2.95-.65-.68-1.6-1.02-2.84-1.02-.73,0-1.38.13-1.96.4-.57.27-1.02.66-1.35,1.19h-.16l-.39-1.38h-2.24v10.83h2.93v-5.1c0-1.28.18-2.2.55-2.75.37-.55.96-.83,1.78-.83.6,0,1.04.2,1.32.59.28.39.41.98.41,1.76v6.33h2.93v-7.06ZM62.06,48.06c.58-.12,1.13-.32,1.64-.58v-2.29c-.63.3-1.23.51-1.81.65-.58.14-1.19.21-1.84.21-.83,0-1.48-.24-1.94-.71-.46-.47-.71-1.13-.74-1.97h6.93v-1.43c0-1.54-.42-2.74-1.27-3.61-.85-.87-2.03-1.31-3.55-1.31s-2.83.5-3.73,1.49c-.9.99-1.35,2.39-1.35,4.21s.49,3.13,1.46,4.09c.97.96,2.32,1.44,4.05,1.44.84,0,1.55-.06,2.13-.19M60.99,39.72c.37.4.55.96.57,1.69h-4.11c.05-.73.25-1.29.61-1.69.35-.4.84-.6,1.46-.6s1.12.2,1.48.6M53.33,45.8h-5.02l4.84-6.66v-1.92h-8.01v2.26h4.68l-4.98,6.83v1.75h8.49v-2.26ZM43.18,37.22h-2.93v10.83h2.93v-10.83ZM41.72,35.88c.53,0,.93-.13,1.2-.38.27-.26.4-.61.4-1.07,0-.96-.53-1.44-1.59-1.44s-1.59.48-1.59,1.44.53,1.45,1.59,1.45M35.7,45.6c-.23-.2-.35-.51-.35-.93v-5.22h3.01v-2.22h-3.01v-2.31h-1.87l-.84,2.29-1.62.99v1.25h1.4v5.22c0,1.2.27,2.09.8,2.69.54.6,1.39.9,2.56.9,1.06,0,1.96-.17,2.69-.49v-2.2c-.72.22-1.33.34-1.85.34-.38,0-.69-.1-.93-.3M29.42,37.22h-2.93v10.83h2.93v-10.83ZM27.96,35.88c.53,0,.93-.13,1.2-.38.27-.26.4-.61.4-1.07,0-.96-.53-1.44-1.59-1.44s-1.6.48-1.6,1.44.53,1.45,1.6,1.45M22.95,48.08c.48-.12.96-.33,1.44-.63v-2.53c-.48.32-.96.56-1.44.71-.48.15-1,.23-1.57.23-1.52,0-2.29-1.06-2.29-3.18s.76-3.28,2.29-3.28c.4,0,.79.06,1.19.18.4.12.83.27,1.29.46l.86-2.29c-.99-.49-2.1-.74-3.34-.74-1.7,0-3,.49-3.91,1.46-.91.97-1.36,2.38-1.36,4.22,0,3.7,1.67,5.55,5.02,5.55.74,0,1.35-.06,1.83-.17" style="fill: #fff;"/>
</svg>