<?xml version="1.0" encoding="UTF-8"?>
<svg id="Layer_1" xmlns="http://www.w3.org/2000/svg" version="1.1" viewBox="0 0 102.05 109">
  <!-- Generator: Adobe Illustrator 30.4.0, SVG Export Plug-In . SVG Version: 2.1.4 Build 226)  -->
  <defs>
    <style>
      .st0 {
        fill: #fff;
      }
    </style>
  </defs>
  <path class="st0" d="M102.05,51.39c0,31.49-26.72,57.62-54.13,57.62-.04,0,3.15-8.36,3.1-8.36-28.18,0-51.02-20.88-51.02-49.26S22.84,0,51.02,0s51.02,23.01,51.02,51.39"/>
  <g>
    <path d="M76.05,59.41c-.62,0-1.11.2-1.46.6-.35.4-.55.96-.6,1.69h4.11c-.02-.73-.2-1.29-.57-1.69-.37-.4-.86-.6-1.48-.6Z"/>
    <path d="M60.99,39.72h.01c-.36-.4-.86-.6-1.48-.6s-1.11.2-1.46.6c-.36.4-.56.96-.61,1.69h4.11c-.02-.73-.2-1.29-.57-1.69Z"/>
    <path d="M26.02,66.38c.68,0,1.22-.2,1.63-.59.41-.39.61-.92.61-1.57h-.01v-.9l-1.13.04c-.85.03-1.48.18-1.9.47-.41.29-.62.72-.62,1.3,0,.83.47,1.25,1.42,1.25Z"/>
    <path d="M37.78,59.71c-.65,0-1.16.28-1.52.84s-.54,1.37-.54,2.44.18,1.87.55,2.4h-.02c.37.53.89.8,1.57.8.75,0,1.3-.22,1.65-.66.35-.44.54-1.19.57-2.24v-.32c0-1.16-.17-2-.53-2.5-.35-.51-.93-.76-1.73-.76Z"/>
    <path d="M102.04,51.39C102.04,23.01,79.2,0,51.02,0S0,23.01,0,51.39s22.84,49.26,51.02,49.26c.05,0-3.14,8.36-3.1,8.36,27.41,0,54.13-26.13,54.13-57.62h-.01ZM44.84,46.31l4.98-6.83h-4.68v-2.26h8.01v1.92l-4.84,6.66h5.02v2.26h-8.49v-1.75ZM27.97,32.99c1.06,0,1.59.48,1.59,1.44,0,.46-.13.81-.4,1.07-.27.25-.67.38-1.2.38,0,0,0,0,0,0h0s0,0,0,0c-1.07,0-1.59-.49-1.59-1.45s.54-1.44,1.6-1.44ZM29.42,37.22v10.83h-2.93v-10.83h2.93ZM16.11,42.69c0-1.84.45-3.25,1.36-4.22.91-.97,2.21-1.46,3.91-1.46,1.24,0,2.35.25,3.34.74l-.86,2.29c-.46-.19-.89-.34-1.29-.46s-.79-.18-1.19-.18c-1.53,0-2.29,1.16-2.29,3.28s.77,3.18,2.29,3.18c.57,0,1.09-.08,1.57-.23s.96-.39,1.44-.71v2.53c-.48.3-.96.51-1.44.63h.01c-.48.1-1.09.16-1.83.16-3.35,0-5.02-1.85-5.02-5.55ZM31.17,68.35h-2.04l-.57-1.47h-.08c-.49.62-1,1.06-1.52,1.3-.52.24-1.2.36-2.04.36-1.04,0-1.85-.3-2.44-.89-.59-.59-.89-1.39-.89-2.54s.4-1.99,1.2-2.54c.8-.55,2-.85,3.61-.91l1.86-.06v-.47c0-1.1-.55-1.65-1.67-1.65-.86,0-1.87.27-3.03.79l-.97-2c1.23-.65,2.66-.98,4.11-.98s2.55.32,3.32.95c.77.64,1.15,1.6,1.15,2.89v7.21h.01-.01ZM31.02,39.45v-1.25l1.62-.99.84-2.29h1.87v2.31h3.01v2.22h-3.01v5.22c0,.42.12.73.35.93h-.01c.24.21.55.31.93.31.52,0,1.13-.12,1.85-.34v2.2c-.73.32-1.63.49-2.69.49-1.17,0-2.02-.3-2.56-.9-.53-.6-.8-1.49-.8-2.69v-5.22h-1.4ZM42.79,68.34h-2.25l-.57-1.4h-.12,0c-.67,1.06-1.69,1.59-3.05,1.59-1.26,0-2.25-.49-2.97-1.48-.72-.99-1.08-2.34-1.08-4.11s.37-3.16,1.1-4.15c.73-.99,1.68-1.49,3.03-1.49s2.38.53,3.09,1.59h.1c-.15-.81-.22-1.53-.22-2.16v-3.47h2.94v15.08ZM43.18,48.05h-2.93v-10.83h2.93v10.83ZM42.92,35.5c-.27.25-.67.38-1.2.38,0,0,0,0,0,0h0s0,0,0,0c-1.06,0-1.58-.49-1.58-1.45s.53-1.44,1.59-1.44,1.59.48,1.59,1.44c0,.46-.13.81-.4,1.07ZM51.03,68.35h-3.03l-4.09-10.83h3.07l2.08,6.17c.23.78.37,1.52.43,2.22h.06c.03-.62.17-1.36.43-2.22l2.07-6.17h3.07l-4.09,10.83ZM59.2,68.35h-2.93v-10.83h2.93v10.83ZM58.94,55.79c-.27.25-.67.38-1.2.38,0,0,0,0,0,0h-.01s0,0,0,0c-1.06,0-1.58-.49-1.58-1.45s.53-1.44,1.59-1.44,1.59.48,1.59,1.44c0,.46-.13.82-.4,1.07ZM55.86,46.81c-.97-.96-1.46-2.27-1.46-4.09s.45-3.22,1.35-4.21,2.21-1.49,3.73-1.49,2.7.44,3.55,1.31c.85.87,1.27,2.07,1.27,3.61v1.43h-6.93c.03.84.28,1.5.74,1.97.46.47,1.11.71,1.94.71.65,0,1.26-.07,1.84-.21.58-.14,1.18-.35,1.81-.65v2.29c-.51.26-1.06.46-1.64.58h-.02c-.58.13-1.29.19-2.13.19-1.73,0-3.08-.48-4.05-1.44ZM66.5,66.15c.57,0,1.09-.08,1.57-.23.48-.15.96-.39,1.44-.71v2.53c-.48.3-.96.51-1.44.63v-.02c-.47.12-1.08.18-1.82.18-3.35,0-5.02-1.85-5.02-5.55,0-1.84.45-3.25,1.36-4.22.91-.97,2.21-1.46,3.91-1.46,1.24,0,2.35.25,3.34.74l-.86,2.29c-.46-.19-.89-.34-1.29-.46s-.79-.18-1.19-.18c-1.53,0-2.29,1.16-2.29,3.28s.77,3.18,2.29,3.18ZM69.79,40.21c-.37.55-.55,1.47-.55,2.75v5.1h-2.93v-10.83h2.24l.39,1.38h.16c.33-.53.78-.92,1.35-1.19.58-.27,1.23-.4,1.96-.4,1.24,0,2.19.34,2.84,1.02s.97,1.66.97,2.95h.01v7.07h-2.93v-6.33c0-.78-.13-1.37-.41-1.76-.28-.39-.72-.59-1.32-.59-.82,0-1.41.28-1.78.83ZM80.84,63.65h-6.93c.03.84.28,1.5.74,1.97.46.48,1.11.71,1.94.71.65,0,1.26-.06,1.84-.2s1.18-.35,1.81-.65v2.29c-.51.26-1.06.45-1.64.58v-.02c-.59.13-1.3.19-2.14.19-1.72,0-3.08-.48-4.05-1.44-.97-.96-1.46-2.27-1.46-4.09s.45-3.22,1.35-4.21c.9-.99,2.22-1.49,3.73-1.49s2.7.44,3.54,1.31c.85.88,1.27,2.08,1.27,3.62v1.43ZM85.18,47.37c-.77.58-1.91.87-3.44.87-.78,0-1.45-.05-2-.16-.55-.11-1.07-.26-1.55-.47v-2.44c.54.26,1.16.47,1.84.65.68.17,1.28.26,1.8.26,1.06,0,1.59-.31,1.59-.93,0-.24-.07-.43-.21-.57-.14-.14-.39-.31-.73-.49-.34-.18-.8-.39-1.38-.64-.82-.35-1.44-.68-1.82-.97-.38-.29-.66-.64-.84-1.02-.17-.38-.26-.86-.26-1.42,0-.96.37-1.7,1.11-2.23.74-.53,1.79-.79,3.15-.79s2.56.28,3.78.85l-.88,2.13c-.54-.23-1.04-.42-1.51-.57-.47-.15-.94-.22-1.43-.22-.87,0-1.3.24-1.3.71,0,.27.14.5.42.69.28.19.89.48,1.83.86.83.34,1.45.66,1.84.96.4.3.68.64.87,1.03h-.01c.19.37.28.83.28,1.37,0,1.11-.38,1.96-1.15,2.54Z"/>
  </g>
</svg>