<svg xmlns="http://www.w3.org/2000/svg" width="1200" height="800" viewBox="-53.814 -12.190925 466.388 73.14555"><defs><clipPath clipPathUnits="userSpaceOnUse" id="a"><path d="M1358.166 719.13h341.07v142.013h-341.07z"/></clipPath></defs><g clip-path="url(#a)" transform="matrix(1.33333 0 0 -1.33333 -1858.8513 1101.0254)"><path d="M1425.8765 796.8043c.4-.406.41-1.054.022-1.471-.874-.941-1.808-1.791-2.773-2.529h-.001c-.973-.742-2.033-1.391-3.149-1.934-1.136-.552-2.39-.973-3.729-1.254-1.331-.278-2.812-.42-4.402-.42-2.532 0-4.908.47-7.059 1.397-2.145.922-4.028 2.204-5.598 3.809-1.569 1.601-2.817 3.517-3.707 5.693-.89 2.177-1.342 4.545-1.342 7.041 0 2.463.443 4.814 1.316 6.987.873 2.175 2.119 4.108 3.705 5.744 1.588 1.637 3.495 2.942 5.671 3.882 2.182.942 4.62 1.42 7.248 1.42 1.557 0 3.004-.133 4.301-.396 1.299-.263 2.513-.64 3.606-1.121 1.089-.478 2.112-1.057 3.042-1.72.914-.654 1.787-1.378 2.595-2.155.409-.393.438-1.037.067-1.465l-3.693-4.254a1.059 1.059 0 00-.745-.364 1.054 1.054 0 00-.781.283c-1.231 1.142-2.549 2.077-3.921 2.777-1.307.668-2.827 1.006-4.518 1.006-1.398 0-2.703-.275-3.88-.815-1.192-.546-2.235-1.298-3.1-2.233-.869-.939-1.552-2.057-2.03-3.323-.482-1.276-.726-2.675-.726-4.16 0-1.486.244-2.895.728-4.185.479-1.285 1.163-2.42 2.033-3.373.865-.948 1.905-1.705 3.095-2.251 1.177-.54 2.484-.814 3.88-.814 1.809 0 3.371.343 4.642 1.02 1.345.717 2.701 1.709 4.029 2.947.42.394 1.078.38 1.481-.029zm21.8629 8.9693c-.324.838-.778 1.583-1.351 2.214-.568.623-1.25 1.12-2.028 1.478-.77.354-1.642.534-2.597.534-.956 0-1.83-.18-2.599-.533-.779-.359-1.454-.849-2.004-1.456-.553-.611-.982-1.332-1.273-2.144-.298-.833-.447-1.741-.447-2.704 0-.957.163-1.877.487-2.732.322-.849.772-1.589 1.341-2.201.567-.611 1.252-1.104 2.035-1.464.769-.355 1.628-.533 2.553-.533.985 0 1.875.178 2.644.533.78.359 1.453.848 2.002 1.454.555.611.983 1.333 1.274 2.146.298.831.449 1.741.449 2.704 0 .953-.163 1.863-.486 2.704m7.25 2.802c.708-1.681 1.065-3.503 1.065-5.413 0-1.913-.367-3.737-1.091-5.422-.72-1.676-1.725-3.164-2.983-4.423-1.261-1.26-2.782-2.273-4.521-3.008-1.747-.739-3.664-1.113-5.697-1.113-2.002 0-3.893.366-5.622 1.087-1.725.721-3.241 1.725-4.503 2.988-1.26 1.26-2.256 2.742-2.961 4.404-.708 1.666-1.067 3.481-1.067 5.394 0 1.912.367 3.743 1.09 5.441.722 1.693 1.725 3.19 2.985 4.45 1.259 1.259 2.772 2.271 4.494 3.007 1.732.739 3.642 1.114 5.678 1.114 2.032 0 3.938-.366 5.668-1.087 1.726-.721 3.242-1.727 4.502-2.987 1.262-1.261 2.26-2.753 2.963-4.432m18.3164-3.0516c-1.218.564-4.11 1.545-5.843 2.115-1.785.587-1.365 1.833-.978 2.202.399.382.934.59 1.921.59.906 0 1.964-.25 3.061-.629 1.137-.395 2.28-.937 3.397-1.611.246-.15.544-.193.822-.119.279.074.516.259.657.509l2.245 4.022c.269.483.122 1.094-.34 1.402-1.387.925-2.941 1.66-4.619 2.187-3.028.949-6.142 1.077-8.8.233-1.199-.384-2.262-.952-3.157-1.689-.911-.751-1.634-1.673-2.151-2.741-.519-1.077-.784-2.458-.784-3.596 0-2.608 1.236-5.547 5.049-7.149 1.093-.459 4.297-1.471 4.97-1.678.819-.252 3.211-.878 3.211-2.065 0-1.29-1.788-1.602-2.77-1.602-1.146 0-2.365.237-3.627.705-1.288.478-2.575 1.192-3.826 2.124-.234.175-.532.245-.818.194a1.0677 1.0677 0 01-.704-.463l-2.525-3.833a1.0616 1.0616 0 01.234-1.422c1.645-1.284 3.456-2.268 5.383-2.927 1.927-.658 3.859-.992 5.743-.992 1.373 0 2.684.18 3.896.533 1.246.363 2.348.912 3.275 1.629.954.739 1.71 1.675 2.247 2.784.536 1.109.807 2.412.807 3.878 0 0-.018 1.958-.943 3.541-1.158 1.982-3.734 3.266-5.033 3.868m24.5653 11.0433h-5.573v5.715c0 .588-.476 1.064-1.065 1.064h-5.702c-.588 0-1.064-.476-1.064-1.064v-5.715h-2.068c-.589 0-1.064-.477-1.064-1.064v-4.815c0-.587.475-1.062 1.064-1.062h2.068v-11.963c0-1.499.197-2.783.586-3.818.407-1.083 1.005-1.976 1.781-2.654.761-.663 1.668-1.148 2.693-1.439.972-.276 2.034-.416 3.156-.416 1.144 0 2.18.122 3.081.365.892.239 1.744.587 2.536 1.036.336.188.542.541.542.925v4.628c0 .369-.191.711-.506.905-.312.192-.703.21-1.035.047-.966-.485-1.984-.73-3.029-.73-.688 0-1.202.151-1.527.449-.371.338-.447 1.047-.447 1.583v11.082h5.573c.589 0 1.064.475 1.064 1.062v4.815c0 .587-.475 1.064-1.064 1.064m94.6311 0h-5.574v5.715c0 .588-.477 1.064-1.064 1.064h-5.704c-.586 0-1.064-.476-1.064-1.064v-5.715h-11.381v5.715c0 .588-.477 1.064-1.064 1.064h-5.703c-.587 0-1.064-.476-1.064-1.064v-5.715h-2.069c-.588 0-1.063-.477-1.063-1.064v-4.815c0-.587.475-1.062 1.063-1.062h2.069v-11.963c0-1.499.198-2.783.586-3.818.405-1.083 1.005-1.975 1.782-2.652.76-.665 1.666-1.15 2.694-1.441.97-.276 2.032-.416 3.154-.416 1.145 0 2.182.122 3.081.365.892.239 1.745.587 2.537 1.036.335.188.54.541.54.925v4.628c0 .369-.19.711-.504.905-.313.192-.704.21-1.035.047-.966-.485-1.985-.73-3.03-.73-.688 0-1.201.151-1.527.449-.37.338-.447 1.047-.447 1.583v11.082h11.381v-11.963c0-1.499.199-2.783.587-3.818.408-1.083 1.005-1.976 1.782-2.654.759-.663 1.667-1.148 2.693-1.439.972-.276 2.033-.416 3.155-.416 1.145 0 2.181.122 3.081.365.891.239 1.745.587 2.537 1.036.334.188.54.541.54.925v4.628c0 .369-.191.711-.504.905-.312.192-.703.21-1.035.047-.966-.485-1.986-.73-3.029-.73-.689 0-1.202.151-1.528.449-.37.338-.447 1.047-.447 1.583v11.082h5.574c.587 0 1.064.475 1.064 1.062v4.815c0 .587-.477 1.064-1.064 1.064m-70.0775-17.5563c-.417.411-1.084.409-1.499-.006-.833-.831-1.559-1.414-2.554-1.992-.841-.488-1.95-.781-3.099-.781-.93 0-1.784.179-2.543.532-.771.359-1.445.849-2 1.459-.56.613-.999 1.345-1.308 2.177-.314.843-.471 1.772-.471 2.762 0 .958.157 1.862.47 2.688.311.827.74 1.56 1.279 2.177.525.606 1.165 1.092 1.904 1.448.722.348 1.527.525 2.389.525 1.234 0 2.191-.287 3.059-.737 1.012-.524 1.637-1.024 2.531-1.972.218-.23.535-.372.826-.376.292.003.57.126.77.341l3.505 3.786c.374.404.379 1.026.008 1.435-1.235 1.368-2.7 2.486-4.354 3.321-1.685.852-3.804 1.283-6.297 1.283-1.976 0-3.842-.375-5.545-1.116-1.697-.739-3.184-1.762-4.423-3.041-1.234-1.276-2.212-2.772-2.904-4.446-.695-1.682-1.047-3.501-1.047-5.408 0-1.911.352-3.724 1.048-5.389.694-1.662 1.672-3.143 2.908-4.402 1.239-1.263 2.72-2.269 4.398-2.991 1.687-.724 3.543-1.091 5.517-1.091 2.568 0 4.739.476 6.45 1.417 1.658.911 3.153 2.112 4.444 3.57.375.422.352 1.065-.049 1.461zm30.0411 17.5563h-5.703c-.587 0-1.063-.475-1.063-1.063v-13.899c0-1.659-.406-2.892-1.237-3.768-.818-.86-1.87-1.278-3.216-1.278-1.358 0-2.363.393-3.069 1.199-.733.837-1.105 2.101-1.105 3.754v13.992c0 .588-.474 1.063-1.062 1.063h-5.704c-.588 0-1.063-.475-1.063-1.063v-15.708c0-3.154.86-5.719 2.552-7.624 1.727-1.944 4.174-2.928 7.275-2.928 2.112 0 3.889.502 5.28 1.494.476.341.925.708 1.349 1.099v-1.016c0-.587.476-1.064 1.063-1.064h5.703c.588 0 1.063.477 1.063 1.064v24.683c0 .588-.475 1.063-1.063 1.063m61.2615-10.6109c-.09.378-.206.745-.343 1.097-.262.666-.616 1.247-1.055 1.725-.433.471-.957.852-1.561 1.134-.586.276-1.276.414-2.05.414-1.453 0-2.616-.48-3.552-1.468-.746-.785-1.264-1.742-1.568-2.902zm7.134 2.147c.528-1.717.795-3.536.795-5.408 0-.273-.009-.544-.027-.814-.016-.268-.04-.547-.073-.845a1.0635 1.0635 0 00-1.057-.948h-16.795c.183-.845.953-2.084 1.773-2.773v-.001c1.09-.917 2.395-1.363 3.989-1.363 1.235 0 2.306.216 3.184.641.921.446 1.85 1.121 2.761 2.004.4.388 1.031.401 1.446.032l3.319-2.945c.432-.382.48-1.04.107-1.48-1.272-1.505-2.803-2.725-4.557-3.627-1.78-.916-3.918-1.38-6.353-1.38-1.904 0-3.713.341-5.377 1.013-1.666.673-3.136 1.632-4.369 2.847-1.233 1.216-2.216 2.694-2.923 4.392-.705 1.697-1.062 3.603-1.062 5.667 0 1.899.321 3.708.957 5.38.637 1.678 1.55 3.17 2.713 4.433 1.163 1.265 2.556 2.283 4.141 3.024 1.601.749 3.389 1.129 5.312 1.129 2.115 0 4.009-.398 5.63-1.182 1.616-.783 2.98-1.855 4.057-3.187 1.061-1.313 1.872-2.865 2.409-4.609m19.5677 8.9307c-2.432.104-4.492-.49-6.123-1.768-.582-.455-1.116-.968-1.6-1.536v1.775c0 .587-.477 1.062-1.064 1.062h-5.704c-.587 0-1.064-.475-1.064-1.062v-24.684c0-.587.477-1.063 1.064-1.063h5.704c.587 0 1.064.476 1.064 1.063v9.396c0 6.072 2.828 8.708 7.35 8.708h.327c.588 0 1.063.475 1.063 1.062v5.985c0 .569-.448 1.037-1.017 1.062m22.7746-7.334a.536.536 0 00-.103-.395c-1.945-2.547-5.005-4.068-8.184-4.068-2.897 0-5.674 1.238-7.624 3.399-1.972 2.187-2.892 5.01-2.589 7.95.477 4.613 4.153 8.432 8.743 9.081 3.685.523 7.383-.991 9.648-3.95a.5324.5324 0 00-.098-.744l-2.073-1.607a.5348.5348 0 00-.393-.107.5265.5265 0 00-.355.205c-1.47 1.923-3.871 2.909-6.262 2.57-2.974-.421-5.357-2.897-5.666-5.889-.197-1.907.399-3.738 1.679-5.157 1.265-1.402 3.067-2.205 4.945-2.205 2.091 0 4.092 1.01 5.353 2.7.086.113.212.188.351.209.142.018.284-.018.397-.104l2.027-1.536a.5372.5372 0 00.204-.352" fill="currentColor"/><path d="M1659.3942 812.3478c-1.023-1.436-2.681-2.294-4.434-2.294-1.531 0-3.001.655-4.031 1.797-1.028 1.14-1.527 2.672-1.369 4.204.252 2.439 2.196 4.459 4.624 4.802 1.924.273 3.804-.472 5.023-1.992.1-.127.147-.29.128-.452a.6105.6105 0 00-.231-.411l-1.63-1.261c-.263-.204-.642-.16-.85.099-.411.514-1.018.809-1.664.809-1.163 0-2.074-.951-2.074-2.166 0-1.214.911-2.165 2.074-2.165.714 0 1.38.363 1.782.971.093.14.239.235.407.263.164.029.335-.014.468-.115l1.65-1.251c.262-.198.318-.571.127-.838" fill="currentColor"/></g></svg>