<?xml version="1.0" encoding="UTF-8"?>
<svg id="Layer_1" xmlns="http://www.w3.org/2000/svg" version="1.1" viewBox="0 0 1882.4 564">
  <!-- Generator: Adobe Illustrator 29.3.1, SVG Export Plug-In . SVG Version: 2.1.0 Build 151)  -->
  <defs>
    <style>
      .st0 {
        fill: #fff;
      }
    </style>
  </defs>
  <path class="st0" d="M1596.3,341v-123.7l-28-2v-10h104l2-8h12v41.9h-12l-4-21.9h-48v55.9h38l2-16h10v43.9h-10l-2-16h-38v55.9h36l20-2,10-27.9h10l-4,41.9h-124v-8l26-4h0ZM1176.2,341v-123.7l-26-2v-10h104l2-8h10v41.9h-10l-4-21.9h-50v55.9h40l2-16h10v43.9h-12l-2-16h-38v55.9h40l20-2c4-4,6-12,10-27.9h10l-4,41.9h-126v-8l26-4h-2ZM906.2,341v-123.7l-26-2v-10h78v10h-26v125.7h26l20-2c2-4,6-12,10-33.9h12l-4,47.9h-118v-8l28-4h0s0,0,0,0ZM1120.2,317c0,25.9-20,39.9-48,39.9s-28-4-38-10l-2,12h-10v-49.9h10l4,22c8,10,22,16,34,16s26-10,26-24c0-33.9-72-33.9-72-79.8s20-39.9,46-39.9,20,4,28,6l4-10h10v43.9h-10c-.9-6.7-2.3-13.4-4-19.9-8-4-16-8-24-8-14,0-26,8-26,21.9,0,31.9,72,33.9,72,79.8M748.2,341v-123.7l-26-2v-10h104l2-8h10v41.9h-10l-4-21.9h-50v55.9h36l4-16h8v43.9h-10l-4-16h-34v55.9h34l20-2c4-4,8-12,10-27.9h12l-8,41.9h-120v-8l26-4h0ZM1426.3,217.2l-48,137.7h-20l-48-139.7h-20v-10h72v10h-24l36,111.8,36-109.8-24-2v-10h56v10h-16v2h0ZM1486.3,217.2l-26-2v-10h78v10h-26v125.7l26,4v8h-78v-8l26-4v-123.7h0ZM1838.4,352.9c-15.6-21.3-30.3-43.3-44-65.9h-16v53.9l24,4v8h-76v-8l26-4v-123.7l-26-2v-10h68c32,0,60,12,60,39.9s-16,31.9-34,37.9l46,59.9h16v10h-44,0ZM1778.4,217.2v59.9h16c22,0,32-12,32-29.9s-6-29.9-36-29.9h-12Z"/>
  <path class="st0" d="M363,236.7c-2.2,0-3.3,3.3-3.3,3.3l2.2,4.4c1.5-.7,2.6-1.8,3.3-3.3l-2.2-4.4ZM117.7,44.7c-2.2-5.5-1.1-10.9,0-18.5,3.3,6.5,3.3,15.3,0,19.6v-1.1h0s0,0,0,0ZM324.9,459.2c-3.3,0-6.5,0-5.5,2.2,0,2.2,2.2,4.4,4.4,4.4s3.3-2.2,3.3-4.4,0-3.3-2.2-3.3v1.1h0ZM354.3,262.9c-3.3,0-4.4,2.2-4.4,4.4s2.2,4.4,4.4,4.4,4.4-2.2,4.4-4.4-2.2-4.4-4.4-4.4M352.1,251.9c0,3.3-2.2,4.4-4.4,4.4s-5.5-2.2-5.5-4.4,2.2-4.4,4.4-4.4c3.3,0,5.5,1.1,5.5,4.4M363,280.3c0-3.3-2.2-5.5-5.5-5.5s-4.4,2.2-4.4,4.4,3.3,4.4,5.5,4.4c3.3,0,4.4-1.1,4.4-3.3M365.2,253c-2.2,0-4.4,2.2-5.5,4.4,0,2.2,2.2,4.4,5.5,4.4s4.4-2.2,4.4-4.4c0-3.3-1.1-4.4-4.4-4.4M118.8,173.4l4.4-10.9h2.2v10.9c-.2,1.7-1,3.2-2.2,4.4-.7.1-1.4.1-2.2,0v-2.2l-2.2-2.2h0ZM456.8,258.5l4.4-8.7-2.2-3.3c-.7,0-1.5,0-2.2,0-1.1,2.2-7.6,9.8-6.5,10.9h6.5v1.1h0ZM509.1,474.5c1-.9,1.8-2,2.2-3.3l1.1-5.5-5.5,3.3c-3.2.9-6.5,1.6-9.8,2.2l-1.1,2.2,1.1,1.1h12,0ZM214.8,88.3c0,5.4,0,12-3.3,17.5l-2.2,2.2v-3.3c1.4-5.8,2.8-11.7,4.4-17.4l1.1,1.1h0ZM513.5,457l-20.7,6.5c4.4,5.5,18.5,0,20.7-6.5M273.6,267.2c0,3.3,1.1,5.5,3.3,7.6l2.2-3.3v-14.2c0-2.2-2.2-2.2-2.2,0-1.1,3.3-3.3,6.5-3.3,10.9v-1.1h0ZM342.3,40.3c4.8-3.4,9.9-6.3,15.3-8.7-4,6-9.2,11.2-15.3,15.3v-6.5ZM57.8,171.2l-1.1-10.9c-.3-2.5-.3-5.1,0-7.6l2.2-2.2,2.2,2.2v18.5h-3.3ZM188.6,64.3l7.6-3.3,8.7-4.4c.6,0,1.2,0,1.8.2.6.2,1.1.5,1.5.9l-2.2,2.2-13.1,7.6c-1.4.1-2.9.1-4.4,0-.3-.5-.4-1.1-.4-1.6s.1-1.1.4-1.6M317.2,451.5l9.8-6.5c1.1-1.1,0-1.1,0-2.2,0-2.2-1.1-2.2-3.3-1.1-4.4,0-6.5,2.2-10.9,3.3-1.1,0-2.2,2.2,0,3.3l4.4,3.3h0ZM382.7,77.4c4.4,5.4,5.5,10.9,6.5,16.4v1.1h-1.1c-4.4-5.4-7.6-9.8-8.7-15.3l1.1-3.3h2.2v1.1h0ZM285.6,56.7l1.1,2.2-1.1,2.2h-16.4c-.9-1-1.7-2.1-2.2-3.3l2.2-1.1h16.4ZM525.5,169l5.5,5.4,7.6,6.5v3.3h-3.3l-13.1-9.8v-4.4h1.1l2.2-1.1h0s0,0,0,0ZM154.8,90.5v2.2l4.4,18.6v6.5l-2.2-2.2-2.2-8.7-2.2-10.9c0-2.2,0-4.4,2.2-5.4M235.5,110.1v2.2l-2.2-2.2-2.2-6.6c0-5.4,0-8.7,3.3-10.9,1.1-2.2,2.2-2.2,2.2,0v17.5h-1.1,0ZM556,93.8l13.1,10.9v1.1c.5.6.9,1.4,1.1,2.2-.7,0-1.5,0-2.2,0-5.5-3.3-10.9-5.4-15.3-10.9v-3.3h3.3ZM112.3,186.5l-4.4-2.2-10.9,2.2c-1.4.2-2.9.2-4.4,0l-3.3-1.1,6.5-3.3c2.2,0,10.9-1.1,17.4,0v4.4h-1.1,0ZM117.7,114.5l-3.3-2.2-8.7-14.2-2.2-4.4,3.3-3.3c.5.6.9,1.4,1.1,2.2l5.4,10.9,4.4,7.6v3.3h0ZM240.9,145.1l-2.2,4.4c-3.2,3.7-6.5,7.4-9.8,10.9h-2.2v-3.3c1.3-2.6,2.7-5.2,4.4-7.6l5.5-6.6h3.3v2.2h1.1,0ZM382.7,250.8c-.7-1.4-1.9-2.6-3.3-3.3,0-1.1-2.2,0-4.4,0-1.2,1-2.3,2.1-3.3,3.3-1.1,2.2,0,4.4,2.2,6.5h6.5l2.2-6.6h0ZM474.2,111.2c-7.6,0-15.3-3.3-22.9-6.6-1-.4-1.7-1.2-2.2-2.2,1.1-.3,2.2-.3,3.3,0l21.8,5.4,2.2,2.2c-.5.9-1.3,1.6-2.2,2.2v-1.1h0s0,0,0,0ZM260.6,176.7c1.1,0,2.2,2.2,0,4.4-3.3,5.4-3.3,9.8-5.5,16.4-.6,1.2-1.4,2.3-2.2,3.3l-2.2,1.1v-2.2l2.2-10.9,3.3-7.6c0-3.3,2.2-4.4,4.4-4.4M172.3,50.2h-2.2l-18.5-10.9-1.1-2.2h2.2c4.4,0,10.9,3.3,15.3,4.4,3.3,2.2,4.4,4.4,4.4,7.6v1.1h0ZM110.1,224.7c2.2,0,3.3,0,2.2,2.2,0,1.1,0,2.2-2.2,2.2-2.8,1.1-5.7,1.8-8.7,2.2-3.6.4-7.3.4-10.9,0l-4.4-2.2c.3-.6.8-1.1,1.4-1.5.6-.4,1.2-.6,1.9-.7l20.7-2.2h0ZM225.7,116.7c-3-1.4-5.9-2.8-8.7-4.4v-3.3l5.4-7.6h3.3l4.4,10.9c0,2.2,0,3.3-4.4,3.3v1.1h0ZM465.5,225.8c0,1.1-2.2,2.2-1.1,3.3v3.3h8.7l13.1,2.2,2.2-1.1v-3.3c-4.4-2.2-9.8-4.4-15.3-4.4h-7.6s0,0,0,0ZM81.8,539.9l-3.3,2.2c-4.4,0-5.4,1.1-5.4,3.3s1.1,3.3,3.3,3.3c5.4-2.2,8.7-2.2,15.3-1.1h1.1l3.3-4.4-3.3-2.2h-10.9v-1.1h0s0,0,0,0ZM369.6,265c-3.3,0-6.5,2.2-6.5,5.5s4.4,6.5,7.6,6.5,5.5-2.2,5.5-5.5-2.2-6.5-6.5-6.5M557.1,27.2s2.2,0,3.3,2.2v3.3l-20.7,8.7s-2.2,1.1-1.1,0c0-4.4,14.2-14.2,18.5-14.2M533.1,207.2l-1.1,7.6-3.3-5.4c0-3.3-4.4-8.7-7.6-15.3v-2.2c0-1.1,1.1-2.2,2.2-1.1h3.3l6.5,16.4h0ZM315.1,93.8l-8.7,13.1-7.6,7.6h-3.3v-2.2l10.9-13.1,4.4-5.4h2.2l2.2,1.1v-1.1h0ZM152.6,301l2.2,10.9c0,2.2,1.1,4.4,4.4,3.3,3.3,0,4.4-2.2,4.4-4.4l-2.2-10.9c0-3.3-2.2-5.5-5.4-4.4-2.2,0-3.3,0-3.3,4.4v1.1h0ZM112.3,170.1c-3.8-.6-7.4-1.7-10.9-3.3-5.4-3.3-10.9-8.7-9.8-14.2,0-2.2,2.2-3.3,4.4-2.2l1.1,1.1,9.8,10.9c2.2,1.1,4.4,4.4,5.4,7.6M68.7,317.4v14.2c0,3.3,1.1,3.3,4.4,3.3s3.3-2.2,3.3-5.5l2.2-10.9c0-3.3,0-5.5-2.2-5.5-3.3,0-6.5,1.1-7.6,4.4M620.3,25.1c-2.2-6.5-7.6-14.2-10.9-17.4-2.2-3.3-3.3-4.4-6.5,0-1.2.6-2.2,1.4-3.3,2.2-3.3,4.4-5.5,9.8,0,10.9l14.2,1.1,5.5,4.4,2.2-1.1h-1.1ZM140.6,473.4c-4.2,2.1-8,5-10.9,8.7l-5.4,10.9c-1.5,3.5-2.6,7.2-3.3,10.9h1.1c3.3,0,9.8-6.5,10.9-6.5,4.4-5.5,6.5-10.9,8.7-21.8l-1.1-2.2h0ZM487.3,51.2c0-5.5-5.5-15.3-7.6-18.5-3.3-3.3-6.5-4.4-10.9,0-.8.7-1.5,1.4-2.2,2.2-3.3,4.4-3.3,5.5,2.2,7.6l9.8,5.5,7.6,7.6v-4.4h1.1s0,0,0,0ZM207.1,225.8c-1.1,0-2.2,0-3.3-2.2l-3.3-14.2c0-2.2,0-3.3,3.3-3.3l18.5,5.4c2.2,0,2.2,2.2,1.1,3.3l-14.2,10.9h-2.2ZM194.1,301l-3.3,3.3c-3.3,2.2-10.9,3.3-15.3,6.5-2.2,1.1,0-3.3,0-5.5l-3.3-12-3.3-6.5c-2.2-2.2,2.2-2.2,3.3-3.3l7.6-2.2h2.2v2.2c-3.3,2.2-3.3,3.3-2.2,6.5v9.8l2.2,4.4c2.2,0,5.4-2.2,5.4-3.3v-5.5l2.2-2.2,4.4,8.7v-1.1h0ZM256.2,122.1l-8.7-3.3-2.2-3.3v-12c0-2.2,1.1-3.3,3.3-2.2,3.3,0,5.5,0,8.7,2.2,3.3,1.1,8.7,10.9,7.6,15.3-2.2,3.3-4.4,3.3-8.7,3.3M81.8,278.1l-6.5,1.1-8.7,1.1-8.7-2.2c-2.2,0-4.4,2.2-5.4,5.5,0,3.3,2.2,5.5,5.4,6.5,7.2,1.5,14.5,2.3,21.8,2.2,1.4,0,2.2-.7,2.2-2.2v-12h0s0,0,0,0ZM219.1,317.4c0,3.3,2.2,13.1,4.4,15.3l15.3-3.3c4.4-1.1,6.5-5.5,5.5-9.8,0-3.3-2.2-4.4-4.4-5.5-1.1-.1-2.2-.1-3.3,0-6.5,0-10.9,1.1-16.4,3.3h-1.1,0ZM215.9,289v5.5c-2.2,4.4-6.5,6.5-10.9,6.5s-6.5-1.1-7.6-5.5l-2.2-14.2-5.4-1.1-1.1-2.2,6.5-2.2c2.9,0,4.7,1.1,5.4,3.3l2.2,15.3c0,2.2,1.1,3.3,4.4,3.3s3.3,0,3.3-3.3v-12l-4.4-5.5c-1.1-1.1-2.2-2.2,0-3.3,7.6-2.2,7.6-4.4,8.7,4.4l2.2,10.9h-1.1,0ZM226.8,299.9s-2.2,0-3.3,2.2c-.9,1-2,1.7-3.3,2.2l-1.1-1.1,2.2-6.5c1.1-3.3,2.2-3.3,5.4-2.2l2.2,2.2c2.2,2.2,4.4,3.3,6.5,2.2,3.3-1.1,1.1-4.4,0-5.5l-10.9-5.5c-3.3-2.2-4.4-4.4-4.4-7.6s2.2-5.5,5.4-6.5h5.4c2.2,0,3.3,0,4.4-2.2,1.1-1.1,3.3-2.2,3.3,0v9.8h-3.3c-2.2-3.3-4.4-5.5-6.5-4.4-2.2,0-3.3,1.1-2.2,3.3l4.4,3.3,6.5,3.3c5.5,3.3,4.4,6.5,4.4,9.8s-3.3,5.5-7.6,5.5c-2.7,0-5.4-.7-7.6-2.2M70.9,98.2c-6.5,0-10.9-2.2-16.3-1.1-5.4,0-9.8,2.2-14.2,3.3l-2.2,2.2,2.2,2.2,6.5,1.1,41.4-4.4,2.2-3.3-4.4-2.2-14.2-2.2-2.2,4.4h1.1,0ZM140.6,304.3l1.1,4.4v2.2h-2.2c-3.3-1.1-6.5-3.3-9.8-1.1v3.3l10.9,4.4c4.4,1.1,5.4,3.3,4.4,8.7,0,4.4-4.4,6.5-8.7,7.6-2.1.4-4.4.4-6.5,0v4.4h-2.2c-.8-1.1-1.5-2.1-2.2-3.3l-1.1-7.6v-2.2c2.2,0,3.3,3.3,5.4,4.4l7.6,1.1,2.2-3.3-3.3-2.2-8.7-4.4c-3.3-1.1-3.3-4.4-3.3-6.5,0-3.3,1.1-6.5,5.4-7.6l5.4-2.2,1.1-4.4h2.2l2.2,4.4h0s0,0,0,0h0ZM112.3,475.5c-1.7-6.9-3.5-13.9-5.4-20.7l-2.2-1.1-1.1,1.1-5.4,15.3c-.4,1.4-.4,2.9,0,4.4l7.6,21.8,3.3,2.2,1.1-3.3,2.2-19.6h0ZM280.2,290.1l2.2,5.5,15.3,13.1,10.9,5.5c5.8,1.9,10.8,5.8,14.2,10.9l4.4,4.4c2.2,3.3,5.5,5.5,10.9,6.5h2.2c0-2.2-1.1-4-3.3-5.5-8.1-7.9-16.9-15.2-26.2-21.8-5.6-3.5-11-7.1-16.4-10.9l-7.6-4.4-6.5-3.3h0ZM234.4,346.8c5.5,0,10.9,0,15.3-4.4,5.5-3.3,7.6-13.1,5.5-18.5,0-1.2-.5-2.3-1.1-3.3-2.2-2.2-3.3-2.2-4.4,1.1l-1.1,7.6-1.1,4.4c-3.6-.5-7.3-.5-10.9,0-4.4,0-12,3.3-12,7.6s6.5,5.5,10.9,5.5h-1.1,0ZM90.5,341.4l1.1-3.3v-22.9l2.2-2.2,2.2,1.1,9.8,10.9v-14.2c-1.1-3.3-3.3-5.5-1.1-5.5h8.7l-3.3,16.4,2.2,14.2h-2.2c-.7,0-1.4,0-2.2,0l-13.1-14.2c-.6.6-.9,1.4-1.1,2.2,0,3.3,2.2,7.6,4.4,10.9,2.2,1.1,2.2,2.2-1.1,3.3l-7.6,1.1,1.1,2.2h0s0,0,0,0ZM66.5,278.1l10.9-1.1c3.3,0,6.5-1.1,6.5-4.4s-3.3-4.4-5.4-5.5c-8.7-2.2-24-2.2-34.9,3.3l-6.5,5.5c-3.3,2.2-2.2,4.4,0,5.5l8.7,4.4,2.2-8.7,5.4-4.4c4.4-2.2,9.8-2.2,15.3-2.2h2.2l-1.1,2.2-4.4,2.2-3.3,1.1c0,2.2,2.2,2.2,4.4,2.2M391.4,287.9c-4.4,0-8.7-3.3-8.7-10.9l-7.6,7.6c0,2.2,6.5,6.5,10.9,7.6l7.6,8.7,4.4-10.9c0-8.7-1.1-15.3-3.3-18.5-3.3-4.4-9.8-7.6-15.3-10.9-2.2,2.2,1.1,8.7,7.6,13.1-1.1,4.4-1.1,10.9,5.5,14.2h-1.1ZM278,375.2c.2-2.2.2-4.4,0-6.5l-2.2-7.6v-2.2c2.2-6.5,3.3-12,2.2-17.5-.5-6.9-.5-13.8,0-20.7v-1.1c3.3,0,4.4,1.1,5.5,3.3v6.5c1.1,5.5,0,10.9,0,17.5l-1.1,34.9,1.1,5.5c1.1,3.3,0,7.6-2.2,10.9h-2.2c0-5.5-4.4-10.9-5.5-17.5l1.1-1.1c2.2,0,3.3-2.2,3.3-4.4M38.2,322.8c0,2.2,0,6.5,3.3,8.7v2.2l-10.9-1.1s3.3-3.3,3.3-5.5l2.2-20.7-2.2-3.3c.2-.8.5-1.6,1.1-2.2,7.6,2.2,8.7,2.2,10.9,5.5l4.4,13.1c.8-.1,1.6-.5,2.2-1.1v-10.9c0-2.2,0-3.3,3.3-3.3h6.5v3.3c-4.4,0-4.4,1.1-6.5,10.9l-1.1,10.9-1.1,4.4h-3.3c-2.4-6.4-5.3-12.6-8.7-18.5h-1.1l-1.1,4.4c0,.7,0,1.5,0,2.2l-1.1,1.1h0s0,0,0,0ZM173.3,541c-1.8.1-3.6.1-5.4,0,0-2.2,1.1-2.2,2.2-2.2h4.4c6.5,1.1,10.9-3.3,17.4-4.4h22.9c6.5,3.3,13.1,5.5,18.5,1.1,3.5-2.4,7.1-4.6,10.9-6.5.9-.4,1.8-.6,2.7-.6s1.9.2,2.7.6c0,0,2.2,3.3,1.1,4.4-.3.8-.7,1.4-1.3,2-.6.6-1.2,1-2,1.3-9.8,3.3-19.6,5.5-30.5,6.5-10.9,0-20.7,0-31.6-2.2h-12s0,0,0,0h0ZM121,241c-3.3,0-10.9,4.4-10.9,7.6v2.2c0,5.4,0,10.9,3.3,15.3,2.2,2.2,3.3,3.3,5.4,1.1,5.4-3.3,10.9-6.5,14.2-10.9,3.3-2.2,5.4-6.6,7.6-10.9,0-2.2-2.2-3.3-4.4-4.4-3.3-1.1-7.6-1.1-8.7,0-2.2,0-3.3,2.2-3.3,4.4-.5,2.2-1.3,4.4-2.2,6.6l-3.3,4.4c-.3-2.2-.3-4.4,0-6.6,0-2.2,0-5.4,2.2-8.7M170.1,310.8c0,3.3-2.2,5.5-6.5,7.6-2.2,1.1-5.4,3.3-10.9,3.3,0,0-2.2,0-3.3-2.2,0-6.5-2.2-12-3.3-17.5l2.2-4.4c4.4-4.4,8.7-5.5,14.2-5.5l5.4,2.2,2.2,16.4h0,0ZM153.7,123.2c0,9.8-2.2,18.5-6.5,27.3-.8,2-1.9,3.8-3.3,5.4l-3.3-6.5-6.5-18.6c-.9-1.4-1.6-2.8-2.2-4.4l7.6-12c0-2.2,2.2-2.2,3.3,0l10.9,8.7h0,0ZM431.7,398.1h3.3c1.2-.5,2.3-1.3,3.3-2.2l4.4-5.5-1.1-24-2.2-2.2h-9.8l-13.1,10.9s-1.1,2.2,0,2.2l2.2,1.1,10.9-5.5c.2.7.2,1.5,0,2.2-4.4,4.4-7.6,9.8-13.1,12v2.2l1.1,2.2,6.5-3.3,7.6-6.5c1.1,1.1,2.2,3.3,0,4.4l-2.2,2.2-6.5,5.5v2.2h1.1c2.2,0,4.4,0,6.5-2.2l5.5-5.5,2.2,2.2-6.5,7.6h0s0,0,0,0h0ZM294.3,128.7c0-3.3,4.4-7.6,7.6-6.5h1.1l1.1,6.5,2.2,4.4c6.5,0,13.1-3.3,15.3-8.7,4.4-5.4,6.5-10.9,8.7-16.4,1.1-2.2,2.2-4.4,4.4-3.3,1.1,0,2.2,2.2,1.1,4.4l-10.9,32.7c-1.1,3.3-2.2,3.3-5.5,2.2l-18.5-6.5c-1.8-.6-3.4-1.8-4.6-3.4-1.2-1.6-1.9-3.4-2-5.4M480.8,555.2c5.5,0,9.8-1.1,13.1-3.3l8.7-5.5,6.5-2.2c3.3,0,5.5-3.3,5.5-4.4,0-3.3-2.2-3.3-4.4-4.4l-16.3-2.2h-5.5l-10.9,8.7c-1.1,1.1-6.5,3.3-7.6,6.5-2.2,1.1-2.2,3.3,2.2,4.4l8.7,2.2h0ZM444.8,533.4l7.6,2.2c4.4,1.1,7.6,2.2,10.9,1.1,2.2,0,4.4-2.2,4.4-5.5s-2.2-4.4-4.4-5.5l-20.7-4.4c-3.3-1.1-6.5-1.1-9.8,1.1-4.4,4.4-9.8,6.5-15.3,7.6l-4.4,1.1v3.3l1.1,2.2h15.3l15.3-3.3h0s0,0,0,0ZM80.7,337c0,2.2-1.1,3.3-4.4,3.3-3.7,0-7.3-.3-10.9-1.1-3.3-1.1-3.3-2.2-4.4-4.4l1.1-21.8,5.4-3.3,12,2.2c2.2,0,4.4,4.4,4.4,5.5v6.5c0,5.5-2.2,9.8-3.3,12v1.1h0ZM88.3,42.5c-.1-.7-.1-1.5,0-2.2h6.5c3.3,1.1,4.4,1.1,5.4-1.1,2.2-5.5,1.1-9.8-3.3-10.9-2.9-.5-5.8-.5-8.7,0l-13.1,3.3c-4.4,1.1-5.4,5.5-2.2,8.7,4.4,4.4,8.7,9.8,14.2,13.1,4.4,4.4,8.7,4.4,14.2,3.3,2.2,0,3.3-1.1,3.3-3.3.1-.8.1-1.5,0-2.3-.2-.8-.5-1.5-1-2.1-1-.9-2.1-1.6-3.3-2.2l-12-4.4s0,0,0,0h0ZM456.8,292.3h2.2l1.1,12v3.3l3.3-2.2,1.1-7.6c4.4-10.9,1.1-19.6-3.3-30.5,0-2.2-2.2-2.2-4.4-1.1-1.1,0-2.2,2.2-1.1,3.3v4.4l-4.4,10.9-1.1,5.5-1.1,39.3v1.1c-.2.7-.2,1.5,0,2.2.8-.2,1.5-.6,2.2-1.1l2.2-6.5c0-6.5,3.3-6.5,3.3-13.1v-19.6h0ZM323.8,27.2h1.1v3.3c-1.1,5.4-4.4,9.8-8.7,14.2-2.2,1.1-2.2,4.4,0,5.5,2.2,3.3,5.5,0,7.6-1.1,4.4-5.5,6.5-10.9,8.7-17.4,3.3-6.5,3.3-16.4,0-21.8-2.2-2.2-5.5-3.3-7.6-1.1-6.5,6.5-13.1,16.4-13.1,26.2l1.1,4.4,5.5-4.4,5.5-6.5v-1.1h0ZM550.5,201.8h10.9c5.5,2.2,7.6,5.4,8.7,7.6l1.1,3.3c-1.6.6-3.3.8-5,.6-1.7-.2-3.3-.8-4.8-1.7-1.7-1.6-3.5-3.1-5.5-4.4-3.3-1.1-7.6-2.2-10.9,0,0,2.2,3.3,6.6,5.5,8.7,7.6,5.4,10.9,6.5,17.4,6.5h10.9l1.1-5.4c0-6.6,0-13.1-5.5-18.5-6.5-6.5-16.4-5.4-21.8-3.3-1.6.4-3.1,1.2-4.4,2.2.4,1.3,1.1,2.4,2.2,3.3v1.1h0,0ZM46.9,223.6v-6.5l2.2-10.9c.2-1.4.2-2.9,0-4.4l-7.6,1.1c-2.2,1.1-3.3,3.3-3.3,7.6v10.9l2.2,17.5c0,3.3,2.2,4.4,4.4,2.2l5.4-5.4,10.9-13.1c4.4-4.4,4.4-8.7,3.3-13.1-1.1-3.3-3.3-4.4-5.4-4.4-3.3,0-4.4,2.2-5.4,4.4,0,3.3-2.2,5.4-3.3,8.7-.9,1.9-2,3.8-3.3,5.4M318.3,170.1c0,8.7,0,18.6-2.2,28.4l-3.3,3.3-3.3-3.3c-4.4-12-8.7-24-10.9-37.1l-3.3-7.6c0-3.3,0-4.4,3.3-3.3,6.5,0,10.9,3.3,17.4,5.4l1.1,4.4v8.7l1.1,1.1h0ZM66.5,106.9l-2.2,14.2c0,4.4,2.2,7.6,6.5,8.7,10.9,5.4,24,6.6,36,6.6l2.2-2.2-1.1-2.2h-3.3l-16.3-7.6c-1.6-.4-3.1-1.1-4.4-2.2-1.1-2.2,0-4.4,2.2-4.4l5.4,1.1,10.9,5.4c0,1.1,1.1,2.2,2.2,0,1.1-1.1,2.2-2.2,0-4.4l-7.6-6.5c-8.7-3.3-17.4-6.6-30.5-5.4v-1.1h0ZM604,150.5l-1.1-10.9c-2.2-7.6-8.7-13.1-16.3-13.1s-5.5,0-4.4,4.4l5.5,7.6c2.2,4.4,4.4,7.6,4.4,10.9,0,1.5-.4,3-1.1,4.4-3.3-1.1-4.4-4.4-4.4-5.4-1.1-3.3-1.1-5.4-3.3-7.6,0-2.2-1.1-2.2-2.2-2.2s-2.2,0-2.2,2.2c0,8.7,1.1,19.6,10.9,27.3l6.5,4.4c2.2,1.1,3.3,0,4.4-2.2,2.1-6.3,3.2-13,3.3-19.6M597.4,77.4h-7.6s-2.2,4.4,0,4.4c0,1.1,1.1,2.2,3.3,2.2,4.4,0,7.6,0,13.1,2.2l3.3,1.1-2.2,1.1c-7.6,1.1-13.1,2.2-19.6-2.2l-2.2-1.1c-2.2-1.1-3.3,0-2.2,2.2,0,3.3,3.3,6.5,9.8,8.7,4.4,2.2,8.7,4.4,13.1,4.4l16.3-1.1c3.3,0,6.5-2.2,6.5-4.4l-1.1-6.6-4.4-4.4c-6.5-6.6-10.9-10.9-21.8-10.9,0,0-2.2,4.4-4.4,4.4M494.9,244.3c-2.2-5.4-5.5-7.6-10.9-8.7h-6.5l-9.8-2.2c-3.3,0-5.5,3.3-6.5,7.6v2.2l6.5,2.2,3.3,4.4c0,1.1-2.2,3.3-5.5,3.3s-3.3,3.3-2.2,6.5c0,3.3,1.1,6.5,4.4,9.8l4.4-3.3c2.2-2.2,2.2-4.4,2.2-6.5,0-7.6,3.3-12,8.7-17.4l-2.2,12c-1.1,8.7-4.4,15.3-12,21.8h3.3c1.4.3,2.8.2,4.1-.2,1.3-.4,2.5-1.1,3.5-2,3.3-3.3,5.5-6.5,6.5-10.9l2.2-4.4,1.1,3.3v10.9l4.4-3.3c3.3-7.6,4.4-18.6,1.1-25.1M367.4,371.9c-2.2-13.1-10.9-21.8-19.6-28.4l-4.4-3.3h-4.4v3.3l2.2,26.2,2.2,18.5c0,3.3,2.2,4.4,5.5,3.3l12-6.5c3.3-2.2,6.5-4.4,4.4-13.1h2.2ZM73,161.4c0-7.6-2.2-13.1-4.4-19.6-2.2-6.5-6.5-9.8-8.7-9.8-3.3,0-8.7,6.6-10.9,10.9-1.4,4.6-1.8,9.4-1.1,14.2,0,8.7,2.2,16.4,7.6,24,0,2.2,3.3,4.4,5.4,2.2l7.6-7.6c2.2-4.4,4.4-9.8,4.4-14.2M413.2,139.6c0-7.6-6.5-10.9-8.7-17.5-3.3-6.6-5.5-6.6-10.9-1.1-5.5,5.4-9.8,10.9-10.9,18.5-3.3,7.6-2.2,15.3,0,22.9,0,2.2,1.1,5.4,4.4,4.4.8-.4,1.4-1.1,1.8-1.9.4-.8.5-1.6.4-2.5,0-6.6,1.1-13.1,4.4-17.5l3.3-3.3v4.4l-2.2,14.2v8.7c3.3,3.3,4.4,3.3,5.5,1.1,6.5-9.8,13.1-24,13.1-30.5M397.9,66.5c0,3.3-2.2,5.4-4.4,4.4-6.5-2.2-10.9-8.7-17.4-10.9-2.2-1.1-3.3,0-4.4,3.3l-2.2,15.3c0,10.9,5.5,15.3,10.9,20.7v3.3l-21.8,10.9c-1.1,1.1-4.4,2.2-6.5,0-2.2-1.1-2.2-3.3-2.2-6.6l7.6-31.6c4.4-16.4,10.9-21.8,22.9-22.9h10.9c3.3,0,5.5,0,5.5,3.3v10.9h1.1,0s0,0,0,0ZM599.6,69.8l12-4.4c9.8-3.3,15.3-9.8,17.4-19.6,1.1-3.3,0-4.4-3.3-5.5l-6.5-1.1c-5.5-2.2-6.5,0-8.7,6.5-2.2,4.4-4.4,9.8-8.7,13.1-1.1,1.1-6.5-2.2-7.6-3.3,8.7-5.5,15.3-14.2,19.6-25.1,0-1.1,0-3.3-2.2-4.4-3.2-.8-6.6-.8-9.8,0-10.9,0-27.2,10.9-32.7,24-1.1,1.1,0,4.4,0,4.4h6.5l1.1-2.2c4.4-7.6,10.9-10.9,18.5-14.2h2.2c.2.7.2,1.5,0,2.2-1,.9-2.1,1.7-3.3,2.2l-7.6,5.5-5.5,4.4v3.3l3.3,1.1h4.4l4.4,7.6c1.1,2.2,3.3,4.4,6.5,4.4v1.1h0ZM49.1,38.2l5.4,7.6c3.3,4.4,4.4,8.7,5.4,13.1,1.1,3.3,3.3,3.3,5.4,2.2,1.3-.8,2.4-1.9,3.2-3.2.8-1.3,1.2-2.9,1.2-4.4-.5-3.1-1.6-6-3.3-8.7-2.2-7.6,0-15.3,6.5-20.7,3.3-1.1,4.4-4.4,4.4-7.6l-3.3-10.9c0-2.2-3.3-2.2-4.4-1.1-8.7,4.4-18.5,16.4-10.9,27.3v2.2c-1.1,0-2.2,0-3.3,0l-15.3-15.3c-2-1.5-4.2-2.6-6.5-3.3,0,1.1-2.2,5.5,0,14.2,0,7.6,2.2,15.3,7.6,26.2l5.4,6.5,6.5,2.2v-6.5c-1.2-5.2-2.7-10.2-4.4-15.3l-1.1-4.4h1.1,0s0,0,0,0ZM420.8,168c0-4.2,1.1-8.4,3.3-12,2.2,0,4.4,0,5.5,2.2,3.3,7.6,9.8,15.3,18.5,19.6,2.2,2.2,5.5,2.2,7.6,2.2l2.2-14.2c0-5.4-2.2-10.9-6.5-14.2-3.3-4.4-8.7-7.6-13.1-10.9l-5.5,1.1v4.4c2.2,3.3,7.6,6.6,8.7,9.8v3.3c-.8-.2-1.5-.6-2.2-1.1-2.3-1.7-4.5-3.5-6.5-5.4-3.2-2.6-6.1-5.5-8.7-8.7-2.2-2.2-4.4-2.2-5.5,0-4.4,7.6-7.6,15.3-7.6,24-2.2,10.9,3.3,20.7,12,25.1,4.4,2.2,7.6,1.1,9.8-2.2l4.4-10.9v-4.4l-7.6-7.6c-.9-.9-2-1.7-3.3-2.2-.2.7-.2,1.5,0,2.2v10.9c.1.7.1,1.4,0,2.2-1-.3-2-.9-2.7-1.6s-1.3-1.7-1.6-2.7l-1.1-7.6v-1.1h0ZM290,214.9c0,5.4,0,7.6-8.7,5.4l-7.6-1.1c-3.3-1.1-6.5-2.2-8.7-5.4-3.3-4.4-7.6-4.4-10.9,0l-3.3,2.2-2.2,2.2v-3.3c0-4.4,2.2-6.6,5.5-8.7l8.7-3.3c7.6-2.2,10.9-6.6,10.9-15.3l1.1-16.4c0-3.3,0-4.4-4.4-3.3l-18.5,7.6c-1,.4-1.9,1-2.6,1.7s-1.3,1.7-1.7,2.6l-4.4,9.8-1.1,1.1-2.2-1.1-4.4-6.6c-1.4-2.6-2.8-5.1-4.4-7.6-3.3-3.3-3.3-4.4,0-6.6l10.9-8.7c4.4-4.4,6.5-10.9,6.5-17.5v-10.9c0-4.4,0-5.4,5.5-4.4,2.2,0,5.5,0,7.6,2.2l14.2,6.6c2.2,2.2,4.4,4.4,4.4,6.5,0,4.4-2.2,6.6-5.5,5.4-4.9-2.2-10-4.1-15.3-5.4-3.3,0-5.5,0-6.5,3.3,0,5.4,4.4,5.4,4.4,7.6-2.2,4.4-8.7,5.4-9.8,9.8,0,3.3,0,5.4,3.3,4.4l9.8-3.3,13.1-6.6c5.5-2.2,8.7-1.1,9.8,5.4l7.6,44.7v6.6h-1.1,0ZM508,445c-6.5.7-13.1,1.1-19.6,1.1l2.2-2.2c5.5-2.2,10.9-4.4,14.2-7.6,2.2-2.2,2.2-3.3,2.2-5.5-6.9,3.1-14.3,5.3-21.8,6.5h-2.2l18.5-13.1c3.3-2.2,0-3.3,0-4.4l-19.6,6.5h-1.1l3.3-3.3,18.5-10.9v-2.2h-3.3l-21.8,2.2h-2.2v-1.1c4.5-2.1,8.6-5.1,12-8.7,1.1-2.2,1.1-3.3,0-4.4l-3.3,2.2-12,1.1v-2.2l8.7-5.5,5.5-4.4v-2.2c-4.6,1.5-9.4,2.6-14.2,3.3-1.1.2-2.2.2-3.3,0l1.1-2.2,15.3-7.6c2.2-1.1,3.3-3.3,3.3-4.4h-2.2l-14.2,4.4-3.3-2.2,2.2-2.2,19.6-8.7,10.9-8.7,6.5-6.5v-1.1c-10.9,5.5-14.2,8.7-17.4,10.9-5.5,3.5-11.3,6.4-17.4,8.7-.8-.1-1.6-.5-2.2-1.1,0-.7,0-1.5,0-2.2,2.2,0,5.5-4.4,7.6-7.6l19.6-9.8,9.8-6.5v-4.4l-21.8,10.9v-3.3c5.5-3.3,13.1-8.7,18.5-15.3v-2.2l-3.3,1.1-10.9,4.4h-1.1l1.1-4.4c5.4-4,10.2-8.8,14.2-14.2v-4.4c-4.4,3.3-9.8,5.5-14.2,6.5h-1.1v-2.2c5.5-5.5,9.8-8.7,13.1-14.2v-2.2l-12,3.3h-2.2v-3.3l9.8-10.9v-2.2c-2.5.5-5.1.9-7.6,1.1-1.1,0-2.2,0-3.3-2.2l3.3-1.1,4.4-3.3c.9-.5,1.6-1.3,2.2-2.2l-3.3-1.1-9.8,1.1c-4.4,1.5-6.9,2.9-7.6,4.4l-7.6,24c0,2.2-2.2,4.4-4.4,5.5-3.3,1.1-2.2,3.3-3.3,5.5-1.1,6.5-2.2,6.5-4.4,10.9l-6.5,10.9h-2.2v-7.6l-3.3-9.8v-4.4l1.1-9.8,1.1-18.5-1.1-1.1c-.6.6-.9,1.4-1.1,2.2l-3.3,13.1c-2.2,9.8,0,17.5,0,27.3-1.1,7.6-3.3,15.3-2.2,22.9v4.4l7.6-2.2c5.5-2.2,9.8-2.2,15.3-7.6,3.3-3.3,3.3-9.8,4.4-15.3,2.2-6.5,4.4-8.7,6.5-10.9l2.2,1.1-3.3,9.8c-1.1,3.3-3.3,8.7,0,9.8h3.3v2.2c-3.3,3.3-6.5,7.6-21.8,12-2.2,0-6.5,5.5-6.5,7.6-.4,3.3-.4,6.6,0,9.8,2.2,15.3,9.8,30.5,18.5,45.8,7.6,12,13.1,21.8,21.8,30.5,3.3,3.3,7.6,5.5,14.2,3.3l8.7-5.5v-3.3l-2.2-1.1h0,0ZM22.9,330.5c1.1,6.5,4.4,10.9,10.9,14.2,7.6,4.4,19.6,5.5,29.4,6.5l39.2-3.3c20.7-4.4,44.7-13.1,63.2-21.8,12.1-6.6,24.9-11.7,38.2-15.3,13.6-3.3,27.8-3.3,41.4,0,6.5,0,7.6,0,7.6-4.4l-2.2-8.7c-1.1-10.9-1.1-19.6-5.5-29.5,0-1.1-2.2-3.3-5.5-4.4-3.3-2.2-6.5-3.3-10.9-3.3-6.9-1-13.8-1-20.7,0-11,1.6-21.7,4.9-31.6,9.8l-29.4,16.4c-13.2,7.8-28.3,12-43.6,12l-28.3-1.1c-14.4-.5-28.6-4.3-41.4-10.9-2.2-2.2-4.4-1.1-5.5,2.2l-2.2,7.6c-2.2,8.7-4.4,21.8-3.3,33.8M228.9,426.5c4.4,0,10.9,2.2,10.9,7.6-.3.8-.7,1.5-1.1,2.2h-1.1c-2.2-4.4-5.5-6.5-10.9-5.5-4.2,1-8,3.3-10.9,6.5-2.2,2.2,1.1,3.3,4.4,5.5l5.4,3.3-3.3,6.5c-2.3-.9-4.4-2-6.5-3.3l3.3-4.4h6.5c0,5.5-7.6,24-4.4,25.1,9.8,1.1,21.8-10.9,24-29.5,0-6.5,3.3-10.9,10.9-12,7.6-3.3,10.9-7.6,10.9-16.4-1.1-5.5,1.1-3.3,4.4-7.6l2.2-3.3c0,2.2,2.2,4.4,1.1,6.5-2.2,6.5,0,13.1,3.3,19.6l7.6,18.5,4.4,2.2c5.5,10.9,13.1,29.5,21.8,37.1,7.6,6.5,15.3,17.5,21.8,24,5.5,3.3,7.6,13.1,13.1,15.3,3.3,0,3.3,3.3,3.3,6.5s0,4.4,2.2,4.4h7.6c2.2-1.1,4.4,0,3.3,2.2,0,1.1-1.1,2.2-3.3,2.2h-7.6l-3.3,1.1,1.1,3.3,13.1,3.3,2.2,1.1-2.2,3.3c-1.8.4-3.7.4-5.5,0-3.3,0-7.6-3.3-10.9-4.4l-3.3-3.3h-4.4v5.5l1.1,3.3-3.3,1.1-9.8-6.5c-3.3-2.2-6.5-2.2-10.9,0l-10.9,7.6c-4.4,2.2-8.7,7.6-14.2,7.6s-10.9-5.5-13.1-6.5l-15.3-3.3c-5.5-1.1-10.9,0-15.3,3.3l-21.8,3.3h-32.7c-4.4,0-8.9.8-13.1,2.2h-4.4c-3.3,0-6.5,0-8.7-2.2-1.5-.9-3.1-1.4-4.8-1.6-1.7-.2-3.4,0-5,.5h-10.9c-3.3-4.4-10.9-10.9-14.2-9.8-13.1,2.2-19.6,10.9-32.7,6.5-8.7-2.2-14.2-4.4-22.9-1.1h-10.9c-3.3,0-4.4,0-3.3-4.4v-1.1c0-3.3-2.2-6.5-5.4-5.5-4.4,1.1-6.5,5.5-9.8,6.5-5.4,3.3-10.9,2.2-18.5,0-4.4-2.2-8.7-1.1-13.1,1.1-3.3,1.1-7.6,8.7-10.9,8.7l-3.3-2.2v-3.3c1.1-3.3,5.4-6.5,7.6-7.6,7.6-3.3,15.3-4.4,24-3.3,4.4,1.1,8.7,2.2,12,0,3.3-1.1,6.5-1.1,8.7-3.3,5.4-2.2,9.8-4.4,15.3-2.2,4.4-2.2,5.4-3.3,7.6-6.5v-15.3l5.4-13.1c0-2.2,2.2-2.2,3.3-2.2,4.4,5.5,8.7,10.9,6.5,16.4-1.1,4.4,6.5,6.5,5.4,10.9-1.1,2.2,0,4.4,2.2,4.4h2.2c2.2,0,2.2-1.1,2.2-4.4,0-12.4-2.6-24.7-7.6-36l-3.3-8.7c-3.3-5.5-2.2-10.9,0-16.4l3.3-10.9c1.9-5.2,5.9-9.5,10.9-12l3.3,1.1c7.6,10.9,10.9,25.1,6.5,39.3l-2.2,12v3.3l2.2-2.2c4.4-5.5,8.7-10.9,10.9-17.4,3.3-6.5,8.7-8.7,15.3-10.9,6.5,0,8.7,0,6.5,6.5l-3.3,10.9c-.6,3.2-1.8,6.2-3.7,8.9-1.9,2.6-4.3,4.8-7.2,6.4-3.3,0-6.5,3.3-8.7,5.5-1.2.6-2.3,1.3-3.3,2.2v3.3h5.4c2.2-3.3,5.4-4.4,8.7-6.5l10.9-6.5c1.4,0,2.2,1.1,2.2,3.3,0,3.3,0,7.6-3.3,8.7l-12,3.3c-2,1.2-3.9,2.6-5.4,4.4l-4.4,8.7v3.3h3.3l10.9-10.9c3.3-2.2,4.4-1.1,5.4,2.2.3,1.6,1.1,3.1,2.2,4.4l4.4-3.3,2.2-4.4c0-3.3,5.4-16.4,8.7-20.7l3.3,1.1v14.2c0,5.5,1.1,6.5,5.4,4.4l13.1-6.5h3.3v3.3l-4.4,5.5v4.4h3.3l7.6-4.4h12l12,4.4c3.3,0,7.6,0,10.9-2.2,5.2-2.7,10.7-4.8,16.4-6.5,8.2-2.6,15.7-7.1,21.8-13.1l4.4-3.3c2.2-1.1,3.3-6.5,3.3-7.6v-21.8l2.2-4.4h2.2v38.2c0,2.2-3.3,5.5-5.5,5.5-13.1,5.5-27.2,10.9-41.4,14.2-6.5,2.2-13.1,1.1-19.6,1.1h-15.3c-4.4,0-9.8,4.4-14.2,4.4l-32.7,3.3-29.4,7.6c-2.4.6-4.6,1.7-6.5,3.3l-1.1,2.2,3.3,1.1h6.5c6.5-.2,13.1-.2,19.6,0l4.4,2.2c3.3,2.2,6.5,2.2,10.9,2.2,3.3-1.1,6.5,0,9.8,2.2,5.4,4.4,6.5,4.4,13.1,1.1,5.4-3.3,10.9-3.3,16.4-2.2,6.5,0,13.1,0,19.6,2.2l15.3,2.2c9.8,0,17.4-1.1,22.9-8.7l8.7-12c2.2-3.3,4.4-4.4,7.6-4.4l21.8-2.2c3.3,0,5.5,4.4,5.5,6.5s-1.1,4.4-3.3,3.3h-16.4c-5.5-1.1-9.8,0-13.1,4.4-2.2,2.2-1.1,3.3,1.1,4.4h4.4c2.2,0,3.3,2.2,4.4,4.4,0,2.2,4.4,3.3,9.8,3.3l17.4-1.1c2.2,0,4.4-4.4,6.5-6.5,4.4-5.5,6.5-7.6,14.2-5.5,5.5,0,8.7-4.4,13.1-4.4s3.3-7.6,1.1-10.9c-2.1-3.9-4.7-7.6-7.6-10.9-7.6-5.5-13.1-16.4-19.6-25.1-5.5-5.5-10.9-8.7-15.3-15.3-3.4-5.7-6.7-11.5-9.8-17.5l-6.5-13.1-6.5-9.8c-3.3-3.3-10.9,0-15.3,1.1l-4.4,3.3c10.9,8.7,10.9,21.8,7.6,30.5,0,3.3-2.2,3.3-5.5,2.2l-7.6-3.3h-6.5l-19.6,10.9c-3.3-4.4-8.7-14.2-8.7-18.5s2.2-7.6,3.3-10.9c-3.8-1.9-7.4-4.1-10.9-6.5v-3.3c7.6-6.5,16.4-13.1,24-13.1v-1.1h0s0,0,0,0h0ZM600.7,187.6l-16.3-1.1c-3.3,0-9.8,0-9.8,3.3l3.3,3.3c7.6,5.4,30.5,6.6,39.2,5.4.4-2.2.4-4.4,0-6.5-3.3-6.6-10.9-13.1-18.5-15.3-7.6-2.2-17.4-2.2-24,0l-2.2-5.4c2-10.1,2-20.5,0-30.5,0-5.4-1.1-7.6-4.4-10.9-1.1-2.2-3.3-2.2-4.4,0-2,1.3-3.8,2.7-5.5,4.4-7.6,9.8-6.5,15.3-5.5,29.5l4.4,1.1c2.2,0,3.3-1.5,3.3-4.4l1.1-10.9c.2-.8.6-1.5,1.1-2.2l3.3,2.2v4.4c0,7.6-3.3,13.1-3.3,16.4s5.5,3.3,4.4,5.4c0,2.2-8.7,3.3-14.2,4.4-3.3-4.4-6.5-8.7-13.1-10.9-3.3-1.1-7.6-2.2-4.4-4.4l4.4-2.2c7.6-3.3,5.5-7.6,4.4-15.3,0-2.2-1.1-3.3-3.3-3.3-4.4,0-6.5,0-10.9,2.2l-4.4,4.4-8.7,9.8h-3.3v-2.2l6.5-17.5c0-3.3,2.2-4.4,4.4-4.4,5.6,1.8,11.7,2.1,17.4.7,5.8-1.3,11-4.2,15.3-8.4,2.2-4.4,2.2-5.4-2.2-8.7-6.5-5.4-15.3-8.7-25.1-5.4-1.7.7-3.2,1.8-4.4,3.3l-2.2,4.4h12l3.3-1.1,2.2,1.1-2.2,2.2-6.5,1.1-13.1,3.3c-2.2,1.1-3.3,0-3.3-2.2,0-3.3,0-6.6,3.3-8.7,5.5-4.4,8.7-9.8,10.9-16.4,0-4.4-3.3-9.8-4.4-13.1v-2.2l14.2,6.5c2.2,12,9.8,20.7,21.8,24l10.9,4.4c4.4,0,6.5,0,6.5-4.4v-5.4l7.6-2.2c6.5,0,13.1,3.3,19.6,5.4l2.2,3.3h-3.3c-5.5,0-9.8-2.2-14.2-3.3-3.3,0-5.5,1.1-6.5,4.4,2.2,3.3,10.9,7.6,15.3,8.7,4.4,1.1,21.8,3.3,21.8-1.1-.2-4.8-.9-9.6-2.2-14.2,0-4.4-4.4-6.6-7.6-7.6-7.6-2.2-13.1-3.3-21.8-3.3h-3.3l-8.7,3.3v-5.4c-2.2-7.6-5.5-8.7-10.9-10.9v-5.4c5.5-3.3,10.9-7.6,13.1-10.9l-7.6-4.4c-6.5-2.2-7.6-5.5-13.1-7.6-3.5-1.3-7.2-2.1-10.9-2.2-4.4,0-9.8,0-10.9,2.2,0,0,0,2.2,2.2,3.3,3.3,3.3,10.9,4.4,14.2,7.6h1.1l-1.1,1.1c-4.9,0-9.8-1.1-14.2-3.3l-4.4-3.3c-3.3-1.1-4.4,0-6.5,3.3-1.1,3.3,0,4.4,3.3,5.4,7.6,4.4,13.1,7.6,22.9,8.7l2.2,4.4c-4-.3-8-.6-12-1.1-2.6-.5-5.2-1.2-7.6-2.2l-16.3-8.7-10.9-3.3c-1.1-1.1-2.2-2.2,0-3.3l29.4-18.5h5.5c4.4,0,6.5,2.2,10.9,3.3,3.3,1.1,5.5,2.2,6.5,0,.7-5.8,2.6-11.3,5.5-16.4,4.4-6.5,10.9-9.8,18.5-15.3,4.4-9.8,14.2-20.7,17.4-20.7,10.9,0,19.6,17.5,21.8,24,1.1,5.5-6.5,9.8-1.1,9.8s8.7,0,8.7,4.4c0,6.5-2.2,14.2-5.5,18.5-3.3,4.4-7.6,10.9-13.1,14.2v2.2c8.7,5.4,18.5,10.9,18.5,19.6s-1.1,8.7-4.4,10.9c-2.2,2.2-4.4,4.4-4.4,7.6v16.4c0,4.4-13.1,5.4-14.2,7.6,2,11.1.4,22.5-4.4,32.7l3.3,5.4c13.1,9.8,15.3,18.5,16.3,25.1-3.3,4.4-9.8,7.6-10.9,7.6-9.8,0-28.3-6.5-32.7-7.6-1.1,3.3,0,5.4,1.1,10.9,2.2,4.4,5.5,7.6,5.5,13.1s0,5.4-6.5,6.6c-10.5.8-21-2.3-29.4-8.7l-4.4-2.2c-3.3-2.2-6.5,0-7.6,2.2l-2.2,6.6c-1.1,4.4-3.3,4.4-7.6,3.3-14.2-3.3-20.7-17.5-20.7-30.5l1.1-2.2,2.2,1.1c0,3.3,0,5.4,2.2,7.6,0,3.3,1.1,7.6,3.3,10.9,3.3,4.4,6.5,7.6,10.9,7.6s3.3-1.1,4.4-4.4c3.3-5.4,6.5-10.9,5.5-17.4,0-2.2-1.1-5.4-3.3-7.6l-4.4-4.4,3.3-2.2c6.5,3.3,10.9,2.2,14.2,0,3.3,0,4.4-2.2,5.5-4.4,7.2-1.8,14.5-3.3,21.8-4.4,8.7,0,17.4,1.1,25.1,4.4v2.2h-1.1,0s0,0,0,0ZM437.2,410.1l2.2,13.1v22.9c-2.2,13.1,0,27.3-2.2,40.4l-2.2,26.2c0,3.3,0,4.4,3.3,4.4,6.5,2.2,10.9,2.2,14.2,2.2,9.8,0,16.4-4.4,15.3-9.8l-2.2-10.9c-2.2-10.9-2.2-15.3-2.2-26.2h2.2l7.6,30.5c2.2,6.5,0,18.5,2.2,25.1,16.4,2.2,36,0,43.6,0,0-14.2,0-28.4-5.5-33.8l-14.2-10.9c-6.8-5.1-12.7-11.4-17.4-18.5-7.6-10.9-8.7-15.3-15.3-26.2l-14.2-25.1c-1.5-2.7-3.4-5.3-5.5-7.6l-15.3-3.3c-7.6,0-12-1.1-16.4-5.5-3.3-4.4-4.4-6.5-2.2-10.9,0-3.3,0-4.4-2.2-6.5-2.2-3.3-2.2-5.5,0-7.6,5.5-4.4,12-9.8,19.6-10.9h1.1l-1.1-6.5-13.1,2.2c-9.8,0-17.4-4.4-20.7-16.4l-8.7-21.8c0-3.3,0-6.5,2.2-10.9l-7.6-10.9c-5.5-2.2-10.9-4.4-14.2-8.7-2.2-2.2-3.3-2.2-4.4-1.1l-3.3,3.3c-2.2,2.2-5.5,2.2-8.7,0-3.3,0-5.5-4.4-5.5-7.6s3.3-7.6,0-9.8c-2.2-3.3-5.5-7.6-1.1-10.9l4.4-1.1c2.1-1.1,3.8-2.9,4.7-5.1,1-2.2,1.2-4.6.7-6.9,0-4.4-2.2-5.4-6.5-5.4s-7.6-3.3-7.6-6.6,4.4-6.5,7.6-5.4c1.1,0,3.3,0,4.4,2.2,0,1.1,1.1,3.3,3.3,3.3,5.5,0,10.9-6.5,10.9-12s-2.2-3.3-6.5-2.2c-6.5,0-15.3,3.3-24,6.6-4.4,2.2-5.5,5.4-2.2,9.8l1.1,3.3c1.1,2.2,1.1,3.3,0,4.4l-3.3,1.1c-2.2,2.2-2.2,4.4,0,7.6.3.8.6,1.5,1.1,2.2,2.2,2.2,2.2,3.3,0,5.5-2.2,2.2-2.2,5.5-1.1,8.7l2.2,19.6v21.8c0,4.4,3.3,8.7,7.6,14.2l16.4,18.5c8.1,7.3,13.2,17.5,14.2,28.4,0,5.5,2.2,7.6,7.6,10.9,10.9,3.3,15.3,8.7,16.4,17.5,2.2,15.3-5.5,29.5-18.5,28.4-6.5,0-10.9-5.5-10.9-8.7s2.2-7.6,5.5-8.7c1.1-.2,2.2-.2,3.3,0,.1.7.1,1.5,0,2.2l-1.1,4.4v5.5c2.2,1.1,4.4,2.2,7.6,1.1,2.2,0,4.4-3.3,6.5-6.5,5.5-10.9,2.2-24-9.8-27.3h-12c-7.6,5.5-14.2,7.6-20.7,13.1-.4.7-.6,1.4-.6,2.2s.2,1.5.6,2.2c0,24.8,1.4,49.6,4.4,74.2l2.2,8.7,3.3,3.3,3.3-3.3,5.5-8.7h2.2l1.1,1.1v17.5l3.3,3.3,2.2-3.3,1.1-5.5c.5-.4,1-.7,1.5-.9.6-.2,1.2-.2,1.8-.2v10.9l3.3,2.2,2.2-3.3,3.3-5.5,7.6-6.5c1.1-.3,2.2-.3,3.3,0,.1.7.1,1.5,0,2.2l-5.5,13.1-2.2,5.5h3.3s2.2,0,2.2-2.2v-2.2l3.3-3.3c1.1.8,1.9,2,2.2,3.3l2.2,5.5,3.3,2.2,2.2-1.1,2.2-6.5,3.3,1.1,2.2,4.4,13.1,1.1v-38.2l3.3-34.9,2.2-32.7h2.2v-1.1h.1ZM177.7,265c6.5-4.4,10.9-8.7,10.9-14.2v-3.3c-1.4-.4-2.9-.4-4.4,0-3.3,3.3-8.7,8.7-13.1,10.9l-6.5,1.1s-1.1,0,0-1.1l10.9-8.7c2.2-2.2,1.1-4.4-2.2-5.4-4.4,0-9.8,1.1-13.1,4.4-7.6,6.6-10.9,18.6-10.9,27.3l-3.3,1.1c-1.1-5.5-2.2-10.9,0-17.5l3.3-7.6c0-2.2,0-4.4-2.2-5.4l-2.2,1.1c-3.3,9.8-8.7,14.2-17.4,19.6l-9.8,5.5c-3.3-1.1-5.4-3.3-8.7-7.6l-10.9-15.3c-.5-.7-1.2-1.2-1.9-1.6s-1.6-.6-2.4-.6h-16.3c-2.9-.6-5.7-1.8-8.1-3.4-2.4-1.7-4.5-3.9-6.1-6.4-3.3-4.4-4.4-4.4-7.6,0l-10.9,7.6c-.6,1.2-1.3,2.3-2.2,3.3-3.3,1.1-4.4,0-5.5-2.2-3.3-8.7-4.4-17.4-4.4-27.3v-14.2c-2.3-2.2-4.8-4-7.6-5.4-8.7-3.3-15.3-9.8-21.8-16.4-1.3-1.1-2-2.7-2.2-4.4,0,0,0-3.3,3.3-4.4,4.4-3.3,10.9-4.4,16.4-4.4l17.4,2.2c4.4,0,5.4-3.3,4.4-8.7-1.1-13.1,3.3-21.8,10.9-28.4,5.4-6.6,4.4-13.1,3.3-19.6,0-3.3-1.1-4.4-4.4-4.4-5.8,1.4-9.4,5.1-10.9,10.9,0,4.4-2.2,8.7-4.4,13.1l-14.2,15.3c-1.1,2.2-3.3,2.2-4.4,0-5.6-3.6-9.8-9.1-11.8-15.5-2-6.4-1.7-13.3.9-19.4,0-4.4,3.3-8.7,5.5-10.9v3.3l-2.2,7.6c-3.3,9.8-3.3,18.5,3.3,27.3l2.2,1.1h3.3l10.9-10.9c5.5-5.4,6.5-10.9,5.5-17.5-.6-2.6-1.4-5.1-2.2-7.6v-2.2l-3.3,1.1c-4.4,4.4-5.5,7.6-7.6,14.2-.3,1.3-1.1,2.5-2.2,3.3v-4.4c0-6.5,2.2-12,6.5-16.4,2.2-3.3,2.2-4.4,0-5.4-10.9-2.2-18.5-5.4-25.1-14.2-1.2-1.2-2-2.7-2.2-4.4,0-2.2,0-3.3,3.3-4.4,7.6-5.4,16.4-10.9,25.1-14.2h6.5c-4.5-12.8-8.1-26-10.9-39.3l3.3-10.9h7.6l10.9,6.5c3.3,2.2,4.4,2.2,6.5-1.1,3.3-5.4,8.7-10.9,14.2-15.3l4.4-1.1c2.2,0,3.3,1.1,5.4,4.4l8.7,16.4c3.3,5.5,6.5,5.5,10.9,2.2l16.4-10.9c4.4-4.4,5.4-4.4,10.9-1.1,4.4,3.3,9.8,8.7,12,14.2,0,1.1,10.9-4.4,12-7.6,0-4.4,2.2-7.6,3.3-10.9C153.7,1.1,157,0,159.2,0c3.3,0,7.6,3.3,10.9,5.4l9.8,4.4c3.3,3.3,4.4,3.3,6.5-1.1,3.3-4.4,5.4-5.4,10.9-5.4,13.1,0,24,3.3,32.7,13.1,0,2.2,2.2,2.2,4.4,0,3.3-3.3,6.5-4.4,12-4.4h10.9c3.3,0,4.4,0,7.6-3.3,2.2-4.4,6.5-8.7,10.9-8.7,7.6,0,18.5,10.9,22.9,20.7l-2.2,1.1c-2.3-2.4-4.9-4.6-7.6-6.6-4.1-2.6-8.5-4.8-13.1-6.5-4.4-2.2-6.5,0-6.5,5.4l4.4,17.5c1.1,5.5,6.5,9.8,10.9,12v2.2h-10.9c-6.5,1.1-12,4.4-18.5,6.5-2.2,1.1-2.2,2.2,0,4.4l10.9,9.8c9.8,7.6,19.6,5.4,32.7,1.1l4.4-1.1c5.5-1.1,10.9,0,14.2,4.4l12,10.9c3.3,3.3,4.4,6.5,2.2,10.9-3.8,7.4-7.8,14.6-12,21.8l-3.3,3.3c-1.1,0-2.2-3.3-1.1-6.5l2.2-2.2c4-5.9,6.6-12.6,7.6-19.6,0-5.4-2.2-8.7-7.6-6.5l-5.5,1.1c-2.2,1.1-3.3,0-3.3-2.2l-2.2-4.4c-1.1-3.3-3.3-4.4-6.5-2.2-4.5,2.7-8.2,6.5-10.9,10.9-4.1,7.7-5.6,16.5-4.4,25.1l1.1,2.2c1-.4,1.7-1.2,2.2-2.2,2.2-3.3,2.2-7.6,3.3-10.9l1.1-8.7h3.3c3.3,0,4.4,1.1,4.4,3.3-5.5,6.5-7.6,15.3-10.9,24l-4.4,2.2-4.4-2.2-6.5-16.4c-3.3-17.4-4.4-18.5-5.5-19.6-7.2-11.4-16.4-21.4-27.2-29.5l-2.2-2.2,3.3-1.1,9.8-4.4c4.4-1.1,7.6-4.4,9.8-8.7l3.3-6.5c2.2-3.3,2.2-5.5,0-7.6-5.5-5.5-10.9-6.5-17.4-5.5-6.5,1.1-10.9,6.5-13.1,13.1v6.5c0,3.3,0,4.4,3.3,2.2l13.1-8.7,2.2-1.1c-2.2,5.4-5.5,9.8-10.9,12-3.2,2.3-6.5,4.5-9.8,6.5-2.2,1.1-3.3,0-4.4-2.2v-12c0-10.9-6.5-19.6-15.3-22.9l-8.7-4.4c-1.1.9-2,2.1-2.6,3.4-.6,1.3-.8,2.8-.7,4.2,0,6.6,0,10.9,2.2,18.6l1.1,6.5c1.1,3.3,5.4,4.4,8.7,4.4s4.4-3.3,1.1-8.7l-4.4-7.6-1.1-3.3v-1.1l2.2,1.1c5.5,6.3,9.6,13.8,12,21.8,2.2,2.2,0,3.3-2.2,4.4-7.6,0-15.3,0-21.8,2.2-10.9,2.2-15.3,6.5-19.6,14.2l-2.2,7.6,15.3-1.1c5.4-.8,10.6-2.7,15.3-5.4l10.9-10.9h4.4c14.2,6.5,24,15.3,30.5,29.5l2.2,3.3v2.2h-1.1l-7.6-2.2-2.2-3.3-2.2-6.6c-1.5-1.4-3.3-2.2-5.5-2.2l-4.4,2.2c-2.2,1.1-3.3,1.1-4.4,0l-2.2-10.9c0-3.3-2.2-3.3-5.4-2.2-6.7,3.2-12.1,8.6-15.3,15.3-3.3,6.5-4.4,10.9-1.1,27.3,0,3.3,3.3,7.6,6.5,8.7l28.4,8.7h1.1v2.2l-10.9,7.6c-2.2,0-3.6-.7-4.4-2.2-2.2-4.8-6.1-8.7-10.9-10.9-2.2,0-3.6.7-4.4,2.2l-4.4,10.9c0,1.1-1.1,2.2-3.3,0-7.6-5.4-16.4-6.6-26.2-4.4-5.4,0-7.6,1.1-6.5,6.6,2.2,7.6,6.5,13.1,13.1,17.4l12,6.6c1.3-.4,2.4-1.1,3.3-2.2,2.2-2.2,1.1-4.4,0-6.6l-17.4-10.9,3.3-3.3h3.3c7.6,4.4,13.1,10.9,19.6,15.3,2.2,3.3,4.4,3.3,5.4-1.1l3.3-12v-1.1h2.2l1.1,10.9-2.2,9.8c0,3.3-3.3,4.4-5.4,4.4-7.6-1.1-14.2,1.1-20.7,3.3-3.2.6-6.5,1-9.8,1.1l-6.5-1.1-1.1-2.2c1.1-.2,2.2-.2,3.3,0,3.3,0,7.6,0,10.9-2.2-1.2-1.4-2.7-2.5-4.4-3.3-6.5-5.4-14.2,0-20.7,3.3-2.2,1.4-2.9,3.6-2.2,6.5,2.2,5.4,6.5,6.6,10.9,6.6h14.2l10.9-5.4h4.4l-1.1,4.4-9.8,5.4-2.2,1.1-3.3,3.3c1.1,1.1,2.2,3.3,4.4,3.3l12,3.3c7.6,1.1,10.9,0,10.9-7.6l4.4-10.9c1.1-2.2,3.3-2.2,4.4,0l14.2,25.1c0,2.2,0,3.3-2.2,3.3-10.6-1.2-21.1-2.7-31.6-4.4-3.3,0-6.5-3.3-10.9-4.4-4.4-2.2-10.9-4.4-16.4-4.4s-8.7,3.3-6.5,8.7l7.6,21.8c2.2,4.4,7.6,6.6,13.1,7.6,2.2,0,1.1-2.2,0-3.3l-8.7-18.6v-2.2h2.2c4.4,8.7,9.8,15.3,14.2,21.8v5.4l-4.4,1.1c-10.9-1.1-21.8-4.4-31.6-8.7l-2.2-4.4h6.5c2.2,0,4.4,0,3.3-2.2-1.3-2-3.2-3.5-5.4-4.4-5.1-2.9-10.6-5.1-16.4-6.6-3.3,0-5.4,1.1-4.4,4.4,0,3.3,2.2,6.6,4.4,10.9.3,1.1.3,2.2,0,3.3l-12-2.2c-8.7-4.4-8.7-6.5-8.7-16.4v-7.6c1.1-3.3,2.2-4.4,4.4-3.3l25.1,7.6,7.6,4.4c2.2,0,3.3,0,3.3-2.2,0-1.4-.5-2.7-1.3-3.9-.8-1.1-1.8-2.1-3.1-2.7l-27.2-10.9c-2.2-1.1-3.3-2.2-2.2-4.4,4.4-6.5,5.4-13.1,4.4-20.7l1.1-2.2,3.3,2.2c.3,1.1.3,2.2,0,3.3,1.1,6.5,5.4,10.9,10.9,15.3,5.1,5.8,11.6,7.6,19.6,5.4l3.3-2.2-3.3-3.3-7.6-2.2c-7.6-3.3-9.8-8.7-7.6-17.5l7.6-21.8,1.1-10.9c0-3.3,2.2-3.3,3.3-3.3l17.4-1.1c4.4,0,8.7-5.4,10.9-8.7l5.4-8.7c-1.4-1.6-3.4-2.8-5.4-3.3l-6.5,1.1c2.2-4.4,3.3-7.6,3.3-12l-1.1-8.7c-1.1-2.2-3.3-3.3-5.4-1.1-4.4,3.3-7.6,7.6-8.7,13.1-1.3,5.8-2.4,11.6-3.3,17.5,1.2-.6,2.3-1.3,3.3-2.2l5.4-2.2h4.4c-1.1,2.2-3.3,2.2-4.4,3.3-2.6,2.2-5.6,4.1-8.7,5.4-3.3,1.1-4.4,0-3.3-3.3l1.1-8.7-1.1-13.1-6.5-17.5c-1.2-2.7-2.7-5.2-4.4-7.6-1.1-2.2-3.3-1.1-6.5,3.3-5.4,5.4-7.6,10.9-9.8,21.8v2.2l-4.4,3.3-2.2-1.1,3.3-12c0-5.4-2.2-8.7-5.4-10.9l-8.7,6.5c-1.4,1.9-2.2,4.2-2.2,6.6s.8,4.7,2.2,6.5c4.4,6.6,4.4,14.2,2.2,22.9l-4.4-17.4-5.4-10.9c-2.2-2.2-3.3-7.6-2.2-10.9,2.2-3.3,9.8-4.4,10.9-8.7,3.3-3.3,2.2-5.4,5.4-9.8,2.2-2.2,6.5-7.6,10.9-5.5,8.7,5.5,19.6,6.5,30.5,4.4,4.4,0,5.4,0,7.6-5.5,0-3.3,1.1,0,5.4-2.2,6.5-2.2,9.8-7.6,9.8-15.3v-10.9l-3.3-10.9h-3.3l-9.8,15.3-3.3,7.6c0,1.1-2.2,2.2-3.3,0-1.9-2.1-4.1-3.9-6.5-5.5-1.1-2.2-1.1-7.6-1.1-13.1,2.2,0,3.3,2.2,4.4,4.4,0,3.3,1.1,6.5,4.4,7.6,2.2,2.2,5.4-4.4,5.4-9.8-.1-1.2-.5-2.3-1.1-3.3-3.3-5.4-10.9-10.9-16.4-10.9s-9.8,7.6-7.6,14.2l2.2,4.4c-13.1,6.5-16.4,10.9-21.8,17.5,0,1.1-1.1,3.3,0,4.4,2.2,4.4,0,6.5-4.4,9.8-2.4,1.3-5,2.4-7.6,3.3h-2.2c-.2-.7-.2-1.5,0-2.2l10.9-21.8c3.3-7.6-4.4-15.3-10.9-17.5-3.3-2.2-7.6-1.1-10.9,2.2-6.5,10.9-6.5,22.9,1.1,34.9l1.1,1.1c1.1,2.2,1.1,3.3-1.1,3.3l-17.4,1.1c-3.5.2-6.8,1.2-9.8,2.9-3,1.7-5.6,4.1-7.6,6.9-1.1,2.2-3.3,2.2-4.4,0-5.4-2.2-8.7-1.1-13.1,1.1l-16.3,6.5-5.5,1.1-2.2-1.1s0-2.2,2.2-2.2l9.8-2.2,3.3-1.1,1.1-4.4-3.3-2.2c-4.4-.1-8.8.2-13.1,1.1-9.8,0-16.4,4.4-22.9,10.9-3.3,3.3-3.3,6.6,0,8.7,7.6,5.4,15.3,10.9,26.2,8.7l7.6-6.6,7.6-7.6c3.3-3.3,9.8-8.7,14.2-3.3,6.5,7.6,7.6,16.4,18.5,14.2,4.4,0,5.4-1.1,7.6-5.4v-4.4c0-3.3,0-4.4-4.4-3.3l-5.4,2.2h-3.3l1.1-4.4,6.5-3.3c7.9-2,15.9-3.9,24-5.4.7-.1,1.4-.1,2.2,0v2.2c-3.3,6.5-7.6,8.7-13.1,10.9l-2.2,4.4c-4.4,10.9-2.2,21.8,5.5,30.5l8.7,7.6c6.5,3.3,7.6,8.7,9.8,14.2l4.4,10.9c-4.4,3.3-8.7,6.5-10.9,10.9-1.1,2.2-2.2,1.1-3.3,0l-2.2-7.6c-3.3-6.6-7.6-10.9-15.3-10.9l-8.7-2.2c-3.3,0-5.4,1.1-6.5,5.4-2.2,8.7-2.2,17.5,6.5,26.2l6.5,4.4c-1.5.6-2.9,1.4-4.4,2.2-3.8,1-7.5,2.4-10.9,4.4-3.4,1.9-6.3,4.5-8.7,7.6,0,2.2,4.4,4.4,7.6,5.4,10.9,4.4,19.6,4.4,29.4,0,5.4-1.1,5.4,0,6.5,4.4l2.2,12c1.1,3.3,0,4.4-3.3,3.3-15.3-4.4-32.7-10.9-45.8-19.6-5.2-2.4-10.7-4.3-16.3-5.4-2.2,1.1-4.4,3.3-5.4,2.2-4.4,0-13.1-3.3-16.3-5.4-1-.4-1.8-1.2-2.2-2.2.7-.2,1.5-.2,2.2,0l19.6,1.1,3.3-1.1c-.5-.9-1.3-1.7-2.2-2.2-10.9-8.7-22.9-6.5-34.9-4.4-4.4,0-5.5,2.2-2.2,5.4,6.5,8.7,14.2,15.3,25.1,16.4h21.8c12,7.6,25.1,15.3,39.2,19.6v2.2c-5.4,0-10.9,0-15.3,2.2l-14.2,2.2c-4.4,0-5.4,4.4-3.3,8.7,4.4,5.4,10.9,8.7,17.4,10.9,5.4,1.1,10.9,0,15.3-1.1,6.5-3.3,9.8-7.6,15.3-10.9,3.3-2.2,8.7,0,12,1.1l15.3,4.4c7.6,2.2,16.4,2.2,25.1,3.3h34.9c-1.8,4.2-3.3,8.6-4.4,13.1-1.1,2.2,0,3.3,2.2,3.3,3.3,0,7.6-3.3,9.8-6.6v-8.7l2.2-3.3,5.4,1.1-3.3,8.7-2.2,4.4,5.4,1.1c7.6,0,8.7-1.1,8.7-8.7-.2-2.2-.6-4.4-1.1-6.5,0-5.4,0-9.8,5.4-12,4.4-2.2,9.8-2.2,14.2-1.1,15.3,1.1,31.6,10.9,41.4,18.6,6.5,4.4,0,10.9,0,20.7v14.2c0,4.4,2.2,7.6,3.3,8.7l17.4,10.9c5.5,4.4,7.6,6.5,15.3,8.7h4.4c.4-2.2.4-4.4,0-6.5l-13.1-5.5-3.3-2.2,4.4-2.2,8.7-2.2c.8-.2,1.5-.6,2.2-1.1l-2.2-2.2-10.9-3.3c-1.1,0-2.2,0-2.2-2.2,1-.9,2-1.7,3.3-2.2h9.8c1-.4,1.7-1.2,2.2-2.2l-2.2-2.2-10.9-5.5-2.2-3.3h12l2.2-2.2c-.2-.8-.6-1.5-1.1-2.2l-8.7-5.5c-2.2,0-3.3-2.2-3.3-4.4h4.4l7.6,2.2h3.3c.1-.6.1-1.2,0-1.8s-.5-1.1-1-1.5l-4.4-2.2-6.5-6.5c-1.1,0,0-2.2,0-2.2h1.1l8.7,2.2c1.1.2,2.2.2,3.3,0l-1.1-3.3-7.6-5.4v-4.4l3.3,1.1h4.4l3.3,1.1c.2-.7.2-1.5,0-2.2-.6-2.2-1.3-4.4-2.2-6.6v-2.2h2.2l9.8,3.3h3.3l-1.1-3.3-2.2-4.4v-2.2h3.3l10.9,5.4h3.3l-3.3-6.6,1.1-1.1,7.6,2.2,7.6,1.1c.7.1,1.5.1,2.2,0l-2.2-6.6c1.1-.3,2.2-.3,3.3,0,3.3,0,5.5,3.3,9.8,3.3l13.1-1.1c17.4-3.3,30.5-4.4,46.9-8.7,7.1-2.4,14-5.4,20.7-8.7h2.2c4.4,12,14.2,16.4,24,17.4h9.8c2.2,0,3.3,0,2.2-3.3-2.2-10.9-7.6-18.5-15.3-26.2l-6.5-3.3c-2.2-3.3-2.2-6.6,0-8.7l18.5-10.9c3.2-2.1,5.8-5.1,7.6-8.5,1.7-3.4,2.5-7.3,2.3-11.1,0-2.2,0-4.4-3.3-5.4-1.2.5-2.4,1.2-3.3,2.2l-4.4,9.8-2.2,2.2-4.4,2.2v-5.4c0-2.2,0-3.3,2.2-5.4l9.8-10.9v-3.3h-2.2c-4.5.5-8.7,2.4-12,5.5l-7.6,10.9-10.9,25.1-2.2,7.6c-1.1,4.4-1.1,6.6,2.2,8.7l19.6,10.9,2.2,3.3h-3.3c-3,.1-6-.4-8.9-1.5s-5.4-2.8-7.5-5l-6.5-4.4-19.6,5.4c-4.4,0-6.5,2.2-8.7,5.4,0,2.2-3.3,3.3-6.5,2.2l-13.1-4.4c-5.5-1.1-12,0-18.5,1.1h-3.3c-2.2,1.1-3.3,0-2.2-2.2l2.2-10.9v-4.4c-2.2,0-4.4,0-5.5,2.2l-5.5,10.9c-1.5,1.4-3.3,1.8-5.5,1.1-4.3-2-8.3-4.6-12-7.6l-7.6-12c0-1.4.7-2.2,2.2-2.2l10.9,8.7,3.3,6.5h4.4v-5.4c2.2-4.4,1.1-10.9-2.2-14.2l-15.3-10.9c-8.7-5.4-9.8-4.4-12,0-2.9,5-4.4,10.6-4.4,16.4,2.2,13.1,5.5,18.6,21.8,26.2-.4,1-1.2,1.8-2.2,2.2,0,1.1-1.1,2.2-3.3,2.2l-19.6-1.1c-2.2,0-3.3,0-3.3-2.2-5.5-19.6-2.2-40.4,7.6-58.9l3.3-3.3c3.9-2.3,7.9-4.5,12-6.6,2.2,0,3.3,0,4.4,2.2l3.3,19.6c3.3,0,5.5-1.1,6.5-3.3,4.4-7.6,6.5-17.5,2.2-26.2,0-1.1,0-3.3,2.2-3.3l32.7-14.2c5.5,0,14.2,0,25.1,2.2,2.2,0,5.5,4.4,10.9,6.6-6.5,2.2-13.1,7.6-18.5,13.1-2.2,1.1-3.3,3.3-2.2,7.6l9.8-2.2c5.5-2.2,7.6-2.2,12-2.2h3.3c0,1.2-.4,2.3-1.1,3.3-2.2,1.1-4.4,0-5.5,2.2-2.2,0-3.3,2.2-2.2,4.4l4.4,3.3c5.5,0,10.9-1.1,15.3-3.3,2.2-2.2,10.9-14.2,6.5-15.3-3.3,0-9.8,0-12-2.2.3-.8.7-1.4,1.3-2,.6-.6,1.2-1,2-1.3l10.9,1.1h21.8c2.2-2.2,3.3-3.3,2.2-4.4-1.9-4.1-4.6-7.8-8-10.8s-7.3-5.3-11.6-6.7h-50.1l-3.3-2.2,2.2-1.1,10.9-6.5c4.4-3.3,7.6-7.6,9.8-14.2.3-1.1.3-2.2,0-3.3-3.3-12-10.9-21.8-24-21.8l-6.5-2.2c-2.2,0-3.3,1.1-3.3,3.3v10.9c0,2.2,0,3.3,3.3,3.3l18.5,5.4c3.3,2.2,4.4,4.4,0,7.6l-10.9,6.6c0,1.1-1.1,0-1.1,0l-1.1-8.7c-.2-.8-.6-1.5-1.1-2.2-1.2.1-2.4.6-3.4,1.4-1,.8-1.7,1.8-2.1,3-1.4,3.2-2.5,6.5-3.3,9.8,0,4.4-3.3,6.5-7.6,8.7-1.1,0-3.3,0-3.3-2.2l2.2-6.5c2.9-6.9,4.1-14.4,3.3-21.8v-13.1c-.4-1-.4-2.1,0-3.2.4-1,1.2-1.8,2.1-2.3l18.5-6.5c1.1,0,3.3,0,5.5,2.2l13.1,14.2c3.3,4.4,4.4,4.4,6.5,0,3.3-3.3,5.5-7.6,10.9-9.8,1.1,0,1.1-2.2-1.1-3.3l-14.2-4.4-3.3-1.1-2.2-2.2,2.2-2.2,19.6-7.6,4.4-1.1c2.2-1.1,3.3-3.3,3.3-5.4l-2.2-7.6c0-3.3-2.2-4.4-4.4-5.4-5.5,0-10.9,0-15.3,2.2-4,1.9-7.7,4.5-10.9,7.6-.6,1-.9,2.1-.9,3.3s.3,2.3.9,3.3c.7.1,1.5.1,2.2,0,4.2-1.3,8.3-3.1,12-5.5l4.4-4.4,2.2,3.3c-11.7,6.1-23.7,11.5-36,16.4l-21.8,6.5h-2.2v-2.2c4.3-5.9,8.6-11.7,13.1-17.4v4.4l-3.3,6.6v2.2h2.2c6.5-1.1,13.1-8.7,13.1-16.4s-1.1-3.3-4.4-3.3-8.7,0-13.1,2.2c-7.6,2.2-10.9,6.5-14.2,14.2-1,3.2-1.7,6.5-2.2,9.8,0,3.3-4.4,4.4-7.6,6.5-4.4,3.3-7.6,3.3-12,3.3-3.7.8-7.4,1.9-10.9,3.3v-3.3l6.5-12c4.4-5.5,3.3-8.7-3.3-10.9-4.7-1.8-9.9-1.9-14.6-.3-4.8,1.6-8.8,4.8-11.5,9l-7.6,17.4c-1.1,3.3,0,5.5,3.3,5.5,5.5,1.1,13.1,0,17.4-2.2v9.8l-4.4,6.6c-2.2,3.3-4.4,4.4-7.6,3.3-6-2.9-11.8-6.2-17.4-9.8-6.5-3.3-13.1-6.5-19.6-6.5-1.1.2-2.2.2-3.3,0-2.2,0-2.2-1.1,0-2.2v-6.5l-7.6-15.3-3.3-7.6,8.7,3.3,2.2,10.9,4.4,6.5c1.1,1.1,3.3,2.2,4.4,1.1,0,0,2.2-1.1,2.2-3.3,0-3.3-4.4-10.9,2.2-25.1,3.3-6.6,13.1-18.5,18.5-18.5s6.5,1.1,7.6,6.6l3.3,8.7c0,3.3,2.2,3.3,4.4,3.3,5.5,0,14.2-4.4,20.7-4.4,4.4-1.1,7.6,9.8,9.8,13.1,3.3,5.5,4.4,10.9,8.7,4.4,4.9-7.4,10-14.7,15.3-21.8,8.7-4.4,19.6-5.4,28.4-4.4,2.2,0,3.3,1.1,2.2,4.4v7.6h3.3c0-2.2,3.3-3.3,4.4-4.4l3.3-4.4c5.5-5.4,10.9-8.7,21.8-8.7s9.8,1.1,14.2,3.3c3.3,0,4.4,1.1,3.3,4.4l-3.3,10.9c-1.1,4.4,0,5.5,4.4,7.6l8.7,6.5,4.4-1.1c4.4-9.8,13.1-18.5,20.7-22.9,3.3-2.2,4.4-2.2,5.5,1.1l4.4,15.3v7.6l4.4-5.5,7.6-7.6c4.8-5.6,11.3-9.5,18.5-10.9,7.4-.4,14.8.7,21.8,3.3,3.3,0,0,4.4-2.2,7.6,0,2.2-2.2,3.3-3.3,4.4,0,2.2-1.1,2.2-3.3,0l-5.5-7.6c-3.3-3.3-9.8-1.1-14.2,1.1-9.1,5.2-16.6,12.7-21.8,21.8-2.2,5.5-13.1,18.5-17.4,21.8h-3.3v-2.2c8-12,12.5-26,13.1-40.3-2.2,0-4.4,0-6.5,2.2-3.1,2-5.7,4.6-7.6,7.6-6.3,10.6-10.1,22.6-10.9,34.9,0,2.2,0,5.4-3.3,6.6l-10.9,5.4h-2.2c2.2-9.8,0-16.4-5.5-25.1,0-2.2-2.2-2.2-4.4-2.2l-4.4,3.3c-8.7,7.6-13.1,18.6-13.1,32.7s2.2,1.1,4.4,0c1.3-1.2,2.5-2.7,3.3-4.4l7.6-14.2,3.3-2.2c.3,1.1.3,2.2,0,3.3l-1.1,8.7c-1.1,3.3-5.5,8.7-9.8,10.9l1.1,4.4c9.8,0,15.3,0,22.9-5.4,8.7-4.4,14.2-7.6,18.5-7.6l16.3,5.4-3.3,2.2-9.8,7.6c-4.4,3.3-5.5,4.4-5.5,12l2.2,9.8,2.2,2.2,2.2-1.1,10.9-14.2,2.2-1.1v2.2c0,5.4-3.3,9.8-6.5,13.1l-2.2,3.3c-3.3,3.3-3.3,4.4,0,8.7,3.3,4.4,3.3,9.8,2.2,15.3-.9,5.1-1.6,10.2-2.2,15.3l-10.9,4.4-8.7,6.5c-4.4,3.3-4.4,5.4-4.4,6.6l2.2,2.2,4.4,2.2c4.4,1.1,13.1,0,15.3-5.4l1.1-5.4,3.3,1.1c2.2,5.4,3.3,9.8,7.6,13.1l-3.3,4.4c-2.2,4.4-3.3,6.5-6.5,6.5h-3.3c-2.2,0-4.4,0-4.4,3.3v9.8c0,3.3-1.1,6.6-4.4,5.4-6.5,0-10.9-5.4-18.5-4.4-5.5,0-8.7-1.1-12-3.3l-7.6-4.4-28.3,5.4-30.5,5.4-22.9,4.4c-2.2,0-2.2,2.2-3.3,4.4,0,6.6-3.3,12-4.4,18.6l2.2,3.3,2.2-2.2,4.4-6.6c2.2-3.3,9.8,0,10.9,4.4,1.1,2.2-2.2,3.3-2.2,6.5s4.4,4.4,4.4,7.6l-2.2,5.5c10.9,6.5,13.1,12,13.1,21.8s0,3.3,2.2,4.4l4.4,5.5c4.4,5.5,8.7,14.2,12,15.3h9.8v2.2c0,2.2-3.3,5.5-6.5,5.5-7.6,3.3-10.9-8.7-15.3-14.2-1.9-3.1-4.1-6-6.5-8.7-3.3,3.3-7.6,17.5-7.6,25.1l3.3,8.7,7.6,16.4c3.3,4.4,7.6,5.5,12,6.5,4.4,2.2,7.6,2.2,10.9,1.1h4.4v-8.7l3.3-26.2,1.1-17.4c0-3.3,3.3-8.7,7.6-12,4.4-3.3,6.5-7.6,5.5-13.1.2-2,1-3.9,2.2-5.5,0-3.3-2.2-3.3-5.5-3.3s-3.3-2.2-2.2-5.5l10.9-14.2c1.7-2.4,3.2-4.9,4.4-7.6,0-4.4,0-10.9,3.3-10.9h15.3c4.4,0,12,4.4,14.2,6.6v3.3l7.6,6.6c3.3,3.3,6.5,12,0,27.3,3.3,2.2,3.3,4.4,3.3,7.6s0,3.3,3.3,4.4,5.5,3.3,7.6,10.9c2.2,5.5,9.8,21.8,14.2,65.4-1.1,12-3.3,21.8-6.5,32.7,3.3,20.7,6.5,44.7,8.7,79.6l3.3,61.1c5.5,0,7.6,2.2,8.7-3.3l1.1-4.4c.5-.9,1.3-1.6,2.2-2.2.9.5,1.7,1.3,2.2,2.2l3.3,10.9,3.3,6.5,2.2,2.2h2.2c.2-1.8.2-3.6,0-5.5l1.1-8.7c0-1.1,0-2.2,2.2-3.3l2.2,2.2,5.5,10.9c0,2.2,0,3.3,2.2,4.4h2.2v-16.4l-2.2-7.6,1.1-3.3c.8.2,1.5.6,2.2,1.1l16.4,21.8,1.1,2.2h3.3c.4-.5.7-1,.9-1.5.2-.6.2-1.2.2-1.8l-1.1-5.5v-3.3l4.4,2.2,5.5,6.5,3.3,5.5,3.3,2.2c.3-.7.5-1.4.5-2.2s-.2-1.5-.5-2.2l-1.1-3.3c2.2,0,4.4,0,5.5,2.2l3.3,4.4c2.2,3.3,5.5,6.5,13.1,7.6v1.1l-6.5,3.3h-27.2c-7.2-1-14.5.6-20.7,4.4-4.4,2.2-8.7,2.2-14.2,2.2h-29.4c-17.4-1.1-24,1.1-41.4,3.3h-13.1c-7.6,0-22.9-3.3-22.9-7.6l2.2-8.7c0-1.5-1.1-2.5-3.3-3.3-1.8,0-3.6,0-5.5,0-8.7-1.1-18.5,0-27.2,1.1-5.5,0-10.9,2.2-15.3,3.3-13.1,1.1-19.6,0-26.2-5.5-4.4-4.4-6.5-5.5-9.8-10.9-5.5-7.6-15.3-16.4-26.2-24-10.9-8.7-24-25.1-32.7-36-2.2-2.2-5.5-13.1-6.5-16.4-1.8-4.5-2.5-9.4-2.2-14.2l4.4-2.2,12-3.3c2.2,0,4.4-2.2,4.4-3.3v-1.1l-1.1-1.1h-13.1l-5.5-4.4c0-2.2,2.2-3.3,3.3-4.4,7.6-1.1,13.1-3.3,17.4-6.5.2-.7.2-1.5,0-2.2l-15.3-1.1-4.4-3.3c0-2.2,2.2-2.2,3.3-3.3l8.7-4.4,6.5-4.4v-2.2c-5.5,0-10.9,0-17.4-2.2l-1.1-1.1c.4-1.3,1.2-2.4,2.2-3.3,3.3,0,10.9-1.1,14.2-3.3.9-.5,1.7-1.3,2.2-2.2-.5-.9-1.3-1.6-2.2-2.2-4.8-.3-9.5-1.1-14.2-2.2-1.1,0-2.2,0-2.2-2.2l2.2-2.2,13.1-2.2c1.4-.8,2.5-1.9,3.3-3.3l-3.3-2.2-10.9-2.2c-1.1-.2-2.2-.6-3.3-1.1v-2.2l3.3-1.1,7.6-2.2c2.2,0,4.4-2.2,4.4-3.3l.3-1.1-.3-1.1h-13.1l-4.4-2.2,3.3-2.2c3.3,0,7.6-2.2,10.9-4.4l1.1-2.2c-.7-.5-1.4-.8-2.2-1.1-3.7-.9-7.3-2-10.9-3.3-.2-1.1-.2-2.2,0-3.3l1.1-2.2h6.5c-.9-2.3-2-4.5-3.3-6.5-.5-.9-1.3-1.7-2.2-2.2-3.3-2.2-7.6-3.3-10.9-6.5-6.5-3.3-13.1-7.6-18.5-13.1-6.9-5.6-11.8-13.2-14.2-21.8-.9-5.4-.9-11,0-16.4,0-4.4,3.3-8.7,5.5-13.1v-3.3c-2.9-3.9-6.2-7.6-9.8-10.9-1.9-1.5-4.1-2.6-6.5-3.3l-15.3-4.4c-4.4-1.1-7.6-2.2-10.9-1.1-2,2.2-3.5,4.8-4.4,7.6l3.3,16.4c4.4,0,10.9,2.2,16.4,5.5,4.4,3.3,5.5,4.4,7.6,10.9,4.4,13.1,5.5,29.5,7.6,46.9,3.3,17.5-5.5,31.6-22.9,32.7-4.1,0-8.2-.7-12-2.2-3.3,0-6.5-2.2-7.6-6.5l-5.4-14.2c0-4.4-2.2-8.7-3.3-10.9l-38.2,13.1-32.7,16.4c-22.9,8.7-48,15.3-70.9,15.3s-26.2-3.3-34.9-6.5c-8.7-3.3-10.9-6.5-13.1-17.4-2.3-19.6.3-39.5,7.6-57.8,3.3-6.5,6.5-10.9,10.9-13.1,4.9-2,10-3.5,15.3-4.4,5.4-2.2,9.8-2.2,15.3-2.2l12,2.2c6.5,3.3,7.6,7.6,7.6,14.2v17.5c8.7,1.1,25.1,0,32.7-1.1,8-1.8,15.7-4.8,22.9-8.7,8.7-3.3,19.6-12,32.7-18.5l1.1,1.1h-.1c0-.1,0,0,0,0h0Z"/>
</svg>