<?xml version="1.0" encoding="UTF-8"?>
<svg id="vlpa" viewBox="0 0 824.9 391.1" xmlns="http://www.w3.org/2000/svg"><title>London North Eastern Railway</title><g transform="translate(-8.5,-104.6)"><polygon points="167.8 357.8 47.6 357.8 47.6 166.5 23.5 166.5 23.5 380.1 167.8 380.1" style="fill:#c82c30"/><polygon points="243.8 244.3 387.2 432.6 387.2 166.5 340.8 166.5 340.8 298 197.4 109.6 197.4 380.1 243.8 380.1" style="fill:#c82c30"/><polygon points="484.2 208.3 598.6 208.3 598.6 166.5 437.5 166.5 437.5 380.1 600.2 380.1 600.2 338.3 484.2 338.3 484.2 293.5 584.9 293.5 584.9 251.7 484.2 251.7" style="fill:#c82c30"/><path d="m752.8 292.9c33.6-6.1 58-26.9 58-62.2v-0.7c0-16.8-6.1-31.7-16.5-42.1-13.4-13.4-34.5-21.4-60.7-21.4h-91.8v213.6h24.1v-83h61l61.9 83h29.6zm-87-17.4v-86.7h65.9c34.5 0 54.6 15.9 54.6 42.1v0.6c0 27.5-22.9 43.9-54.9 43.9h-65.6z" style="fill:#c82c30"/></g></svg>
