<?xml version="1.0" encoding="UTF-8" standalone="no"?>
<!-- Created with Inkscape (http://www.inkscape.org/) -->

<svg
   xmlns:dc="http://purl.org/dc/elements/1.1/"
   xmlns:cc="http://creativecommons.org/ns#"
   xmlns:rdf="http://www.w3.org/1999/02/22-rdf-syntax-ns#"
   xmlns:svg="http://www.w3.org/2000/svg"
   xmlns="http://www.w3.org/2000/svg"
   version="1.1"
   width="1024"
   height="460"
   id="svg3254">
  <defs
     id="defs3256" />
  <metadata
     id="metadata3259">
    <rdf:RDF>
      <cc:Work
         rdf:about="">
        <dc:format>image/svg+xml</dc:format>
        <dc:type
           rdf:resource="http://purl.org/dc/dcmitype/StillImage" />
        <dc:title></dc:title>
      </cc:Work>
    </rdf:RDF>
  </metadata>
  <g
     transform="translate(0,-308)"
     id="layer1">
    <g
       transform="matrix(8.5431928,0,0,-8.5431928,-1209.4918,1251.72)"
       id="g3183">
      <g
         id="g3155">
        <g
           transform="translate(143.929,63.086)"
           id="g3099">
          <path
             d="m 0,0 c 0.467,0 1.683,-0.131 2.524,0.037 2.636,0.524 4.001,1.551 4.001,3.812 0,2.26 -1.196,3.064 -4.824,3.064 l -3.346,0 0,-12.779 c 0.261,0.018 0.542,0.056 0.822,0.056 0.262,0 0.524,-0.038 0.823,-0.056 L 0,0 z M 0,6.184 C 0.561,6.221 1.888,6.24 2.692,6.165 4.169,6.034 4.805,5.026 4.805,3.755 4.805,2.092 3.721,0.915 1.851,0.729 1.215,0.673 0.467,0.673 0,0.729"
             id="path3101"
             style="fill:#20262e;fill-opacity:1;fill-rule:nonzero;stroke:none" />
        </g>
        <g
           transform="translate(153.427,68.392)"
           id="g3103">
          <path
             d="m 0,0 c -0.523,0 -0.954,0.43 -0.954,0.953 0,0.523 0.431,0.953 0.954,0.953 0.505,0 0.954,-0.43 0.954,-0.953 C 0.954,0.43 0.505,0 0,0 m 0.748,-11.172 c -0.281,0.018 -0.505,0.056 -0.748,0.056 -0.262,0 -0.505,-0.038 -0.748,-0.056 l 0,8.93 c 0.243,-0.019 0.486,-0.056 0.748,-0.056 0.243,0 0.467,0.037 0.748,0.056"
             id="path3105"
             style="fill:#20262e;fill-opacity:1;fill-rule:nonzero;stroke:none" />
        </g>
        <g
           transform="translate(156.717,66.15)"
           id="g3107">
          <path
             d="m 0,0 c 0.243,-0.019 0.486,-0.056 0.748,-0.056 0.243,0 0.467,0.037 0.748,0.056 l 0,-1.7 c 0.654,1.139 1.682,1.812 3.01,1.812 2.169,0 3.01,-1.177 3.01,-3.643 l 0,-5.399 c -0.281,0.018 -0.505,0.056 -0.748,0.056 -0.262,0 -0.505,-0.038 -0.748,-0.056 l 0,4.969 c 0,1.738 -0.318,3.102 -2.075,3.102 -1.963,0 -2.449,-1.439 -2.449,-3.737 l 0,-4.334 C 1.215,-8.912 0.991,-8.874 0.748,-8.874 0.486,-8.874 0.243,-8.912 0,-8.93"
             id="path3109"
             style="fill:#20262e;fill-opacity:1;fill-rule:nonzero;stroke:none" />
        </g>
        <g
           transform="translate(166.626,59.032)"
           id="g3111">
          <path
             d="m 0,0 c 0.449,-0.729 1.272,-1.383 2.15,-1.383 0.916,0 1.832,0.71 1.832,1.701 0,2.522 -4.412,0.878 -4.412,4.147 0,1.794 1.365,2.765 3.047,2.765 C 3.59,7.23 4.394,6.95 4.73,6.744 4.543,6.314 4.394,5.866 4.281,5.418 l -0.168,0 C 3.87,6.034 3.216,6.651 2.524,6.651 1.589,6.651 0.822,6.109 0.822,5.1 c 0,-2.391 4.413,-1.121 4.413,-4.11 0,-1.999 -1.795,-2.951 -3.44,-2.951 -0.767,0 -1.683,0.205 -2.337,0.597 0.149,0.449 0.317,0.897 0.392,1.364"
             id="path3113"
             style="fill:#20262e;fill-opacity:1;fill-rule:nonzero;stroke:none" />
        </g>
        <g
           transform="translate(180.854,59.144)"
           id="g3115">
          <path
             d="m 0,0 c -0.505,-0.486 -1.496,-1.289 -2.767,-1.289 -2.262,0 -3.403,1.793 -3.235,3.886 l 2.637,0 c 1.252,0 2.524,-0.019 3.795,-0.056 0.187,3.12 -1.72,4.577 -3.795,4.577 -2.786,0 -4.282,-1.999 -4.282,-4.596 0,-2.896 1.833,-4.595 4.412,-4.595 1.141,0 2.3,0.448 3.216,1.102 L 0,0 z m -6.002,3.288 c 0.113,1.569 0.879,3.251 2.637,3.251 1.85,0 2.299,-1.625 2.337,-3.251"
             id="path3117"
             style="fill:#20262e;fill-opacity:1;fill-rule:nonzero;stroke:none" />
        </g>
        <g
           transform="translate(183.359,66.15)"
           id="g3119">
          <path
             d="m 0,0 c 0.243,-0.019 0.486,-0.056 0.748,-0.056 0.243,0 0.467,0.037 0.748,0.056 l 0,-1.7 c 0.654,1.139 1.682,1.812 3.01,1.812 2.169,0 3.01,-1.177 3.01,-3.643 l 0,-5.399 c -0.28,0.018 -0.505,0.056 -0.748,0.056 -0.262,0 -0.505,-0.038 -0.748,-0.056 l 0,4.969 c 0,1.738 -0.317,3.102 -2.075,3.102 -1.963,0 -2.449,-1.439 -2.449,-3.737 l 0,-4.334 C 1.215,-8.912 0.991,-8.874 0.748,-8.874 0.486,-8.874 0.243,-8.912 0,-8.93"
             id="path3121"
             style="fill:#20262e;fill-opacity:1;fill-rule:nonzero;stroke:none" />
        </g>
        <g
           transform="translate(195.157,68.579)"
           id="g3123">
          <path
             d="m 0,0 0,-2.429 1.982,0 c -0.056,-0.261 -0.056,-0.523 0,-0.71 l -1.982,0 0,-4.689 c 0,-1.14 -0.168,-3.026 1.384,-3.026 0.28,0 0.56,0.074 0.841,0.13 l 0,-0.448 c -0.505,-0.187 -1.028,-0.336 -1.571,-0.336 -1.421,0 -2.243,0.654 -2.15,2.933 l 0,5.436 -1.159,0 c 0.056,0.243 0.056,0.468 0,0.71 l 1.159,0 0,1.85"
             id="path3125"
             style="fill:#20262e;fill-opacity:1;fill-rule:nonzero;stroke:none" />
        </g>
        <g
           transform="translate(214.676,69.999)"
           id="g3127">
          <path
             d="m 0,0 c 0.486,-4.615 1.01,-9.21 1.515,-12.779 -0.337,0.019 -0.599,0.056 -0.879,0.056 -0.299,0 -0.599,-0.037 -0.879,-0.056 -0.318,3.755 -0.692,7.791 -0.953,9.64 -2.169,-3.867 -3.777,-6.856 -4.899,-9.435 l -0.205,0 -1.029,2.112 c -1.196,2.466 -2.505,4.894 -3.776,7.323 -0.412,-3.643 -0.916,-7.342 -0.916,-9.64 -0.243,0.019 -0.449,0.056 -0.655,0.056 -0.243,0 -0.449,-0.037 -0.673,-0.056 0.486,3.008 1.608,10.817 1.795,12.779 l 0.486,0 c 1.496,-2.97 3.29,-6.483 5.291,-9.79 1.776,3.195 3.496,6.446 5.385,9.79"
             id="path3129"
             style="fill:#20262e;fill-opacity:1;fill-rule:nonzero;stroke:none" />
        </g>
        <g
           transform="translate(224.847,63.124)"
           id="g3131">
          <path
             d="m 0,0 c 0,2.111 -1.065,3.139 -3.029,3.139 -1.103,0 -2.112,-0.411 -3.01,-1.028 l 0,-1.046 0.206,0 c 0.131,0.411 0.86,1.289 2.225,1.289 1.402,0 2.187,-0.803 2.187,-2.186 0,-0.897 -0.504,-1.009 -1.981,-1.252 -1.758,-0.28 -3.459,-0.56 -3.459,-2.69 0,-1.382 1.159,-2.279 2.486,-2.279 1.122,0 1.982,0.392 2.767,1.177 l 0.168,0.168 c 0.15,-1.102 0.954,-1.252 1.926,-1.084 0.206,0.038 0.43,0.131 0.561,0.187 l 0,0.412 C -0.056,-5.437 0,-5.063 0,-4.334 L 0,0 z m -1.496,-3.979 c 0,-0.131 -0.373,-0.449 -0.505,-0.579 -0.354,-0.355 -0.99,-0.711 -1.495,-0.711 -1.141,0 -1.832,0.58 -1.832,1.757 0,1.7 1.907,1.887 3.178,2.13 l 0.654,0.13"
             id="path3133"
             style="fill:#20262e;fill-opacity:1;fill-rule:nonzero;stroke:none" />
        </g>
        <g
           transform="translate(227.801,59.032)"
           id="g3135">
          <path
             d="m 0,0 c 0.448,-0.729 1.271,-1.383 2.15,-1.383 0.916,0 1.832,0.71 1.832,1.701 0,2.522 -4.412,0.878 -4.412,4.147 0,1.794 1.365,2.765 3.047,2.765 C 3.59,7.23 4.394,6.95 4.73,6.744 4.543,6.314 4.394,5.866 4.281,5.418 l -0.168,0 C 3.87,6.034 3.215,6.651 2.524,6.651 1.589,6.651 0.822,6.109 0.822,5.1 c 0,-2.391 4.413,-1.121 4.413,-4.11 0,-1.999 -1.795,-2.951 -3.44,-2.951 -0.767,0 -1.683,0.205 -2.337,0.597 0.149,0.449 0.317,0.897 0.392,1.364"
             id="path3137"
             style="fill:#20262e;fill-opacity:1;fill-rule:nonzero;stroke:none" />
        </g>
        <g
           transform="translate(234.401,61.76)"
           id="g3139">
          <path
             d="m 0,0 c -0.168,-2.84 1.888,-4.689 4.412,-4.689 3.085,0 4.674,2.26 4.674,4.633 0,2.783 -1.776,4.559 -4.337,4.559 C 2.057,4.503 0,2.69 0,0 m 4.73,3.923 c 2.075,0 2.711,-2.204 2.711,-3.886 0,-1.457 -0.692,-4.147 -2.879,-4.147 -2.132,0 -2.917,1.98 -2.917,3.83 0,1.98 0.711,4.203 3.085,4.203"
             id="path3141"
             style="fill:#20262e;fill-opacity:1;fill-rule:nonzero;stroke:none" />
        </g>
        <g
           transform="translate(245.581,66.15)"
           id="g3143">
          <path
             d="m 0,0 c 0.243,-0.019 0.486,-0.056 0.748,-0.056 0.243,0 0.467,0.037 0.748,0.056 l 0,-1.7 c 0.654,1.139 1.682,1.812 3.01,1.812 2.169,0 3.01,-1.177 3.01,-3.643 l 0,-5.399 c -0.281,0.018 -0.505,0.056 -0.748,0.056 -0.262,0 -0.504,-0.038 -0.748,-0.056 l 0,4.969 c 0,1.738 -0.318,3.102 -2.075,3.102 -1.963,0 -2.449,-1.439 -2.449,-3.737 l 0,-4.334 C 1.215,-8.912 0.991,-8.874 0.748,-8.874 0.486,-8.874 0.243,-8.912 0,-8.93"
             id="path3145"
             style="fill:#20262e;fill-opacity:1;fill-rule:nonzero;stroke:none" />
        </g>
        <g
           transform="translate(255.49,59.032)"
           id="g3147">
          <path
             d="m 0,0 c 0.449,-0.729 1.271,-1.383 2.151,-1.383 0.915,0 1.832,0.71 1.832,1.701 0,2.522 -4.413,0.878 -4.413,4.147 0,1.794 1.365,2.765 3.048,2.765 C 3.59,7.23 4.394,6.95 4.73,6.744 4.544,6.314 4.394,5.866 4.282,5.418 l -0.169,0 C 3.87,6.034 3.216,6.651 2.524,6.651 1.589,6.651 0.823,6.109 0.823,5.1 c 0,-2.391 4.412,-1.121 4.412,-4.11 0,-1.999 -1.795,-2.951 -3.44,-2.951 -0.766,0 -1.683,0.205 -2.337,0.597 0.15,0.449 0.318,0.897 0.392,1.364"
             id="path3149"
             style="fill:#20262e;fill-opacity:1;fill-rule:nonzero;stroke:none" />
        </g>
      </g>
      <g
         transform="translate(200.357,76.344)"
         id="g3151">
        <path
           d="m 0,0 c -5.713,-1.162 -7.584,4.05 -7.491,11.988 0.093,7.938 2.046,18.241 7.842,18.178 C 6.146,30.103 15.698,19.576 14.532,11.746 13.496,4.798 5.978,1.217 0,0 m 5.572,33.345 c -6.592,2.363 -13.158,-8.631 -16.602,-17.66 -3.445,-9.03 -3.5,-15.721 3.512,-16.651 7.34,-0.973 17.432,0.144 21.537,7.671 4.625,8.481 -1.855,24.277 -8.447,26.64"
           id="path3153"
           style="fill:#c80d43;fill-opacity:1;fill-rule:nonzero;stroke:none" />
      </g>
    </g>
  </g>
</svg>
