<svg version="1.1" id="Layer_1" xmlns="http://www.w3.org/2000/svg" x="0" y="0" viewBox="0 0 935 261.7" style="enable-background:new 0 0 935 261.7" xml:space="preserve"><style>.st0{fill:#00aeef}</style><path class="st0" d="M9.5 190h8c10.3 0 11.4-6.5 11.4-9.1 0-8.1-7.4-9.9-18.8-9.9h-.6v19zm0-21.6c7.8-.2 16.4-1.2 16.4-9.2 0-5.6-4.4-7.4-9.3-7.4H9.5v16.6zm9.9-20.6c8.1 0 12.8 4.7 12.8 10.6 0 5.4-4.2 9.8-9.7 10.7h.6c6.7 0 12.3 4 12.3 11.3 0 4-1.9 7.8-5 10.3-3.5 2.7-6.7 3.1-12.7 3.1H3.2v-46h16.2zM72.6 193.9V187c-4.2 5.4-8.9 8.2-15.8 8.2-6.2 0-12.7-2.6-14.9-8.9-.7-2.1-.8-5-.8-8.5v-30.1h6.2v28.6c0 5.7 0 10.1 4.9 12.9 1.9 1 4.1 1.6 6.3 1.5 5.3 0 10.3-3.3 14-7.2v-35.8h6.3v46l-6.2.2zM89 147.8h6.3v46H89zM105.3 193.9v-46.1h6.5v42h22.4v4.1zM146.1 190.2h5.5c3.1 0 7-.1 9.9-1.1 7.6-2.7 11.2-10 11.2-17.7 0-8.2-3.7-16.2-12.2-18.6-2.5-.6-5-.8-7.5-.7h-7l.1 38.1zm9.4-42.1c3.4 0 6.9.4 10.2 1.4 9 3.2 13.8 12.2 13.8 21.4 0 9.8-5.1 18.5-14.5 21.7-3.5 1.2-8 1.4-11.7 1.4h-13.4v-46h15.6zM186 147.8h6.3v46H186zM238.3 194.1l-31.4-37.4v36.8h-5.4v-46h5.4l28.1 33.6s-.3-28.4-.3-33.6h5.6v46.6h-2zM287.8 172.5v17.9c-5.5 3-11.7 4.6-17.9 4.8-9.1 0-23.1-5.3-23.1-23.7 0-13.8 9.4-25 23.7-25 7.3 0 14.8 3.3 16.2 11.2l-1.5.6c-3.7-5-7.8-7.4-14-7.4-11.6 0-17.7 9.2-17.7 20s5.9 20.3 17.6 20.3c3.7-.1 7.4-1 10.7-2.6v-12.2h-10.4v-3.9h16.4zM332 190.9c4.6 0 10.6-2.3 10.6-9.2 0-5.5-3.9-7.3-8.4-8.5l-5-1.3c-9-2.4-10.8-8-10.8-12.3 0-6.3 4.9-13.2 14.9-13.2 7.4 0 13.1 4.2 14.2 12.3l-1.6.6c-1.1-2.1-4.2-8.5-11.9-8.5s-9.4 5.5-9.4 8.2c0 5.4 3.9 6.9 10.2 8.4l1.9.4c5.7 1.4 12.4 4.4 12.4 12.9 0 2.7-1.6 14.5-16.6 14.5-7.9 0-15.2-3.8-15.9-13.4l1.7-.5c1.5 3.8 5.5 9.6 13.7 9.6M375.3 150.5c-11.1 0-15.8 10.9-15.8 20.5s4.9 20.1 15.8 20.1c11.3 0 15.6-10.9 15.6-20.5s-4.6-20.1-15.6-20.1m.1 44.7c-14.1 0-22.4-10.8-22.4-24.3s8-24.4 22.4-24.4c14.1 0 22.3 10.9 22.3 24.3s-8.1 24.4-22.3 24.4M439.6 159.5c-2.9-5.3-8.5-8.6-14.5-8.6-11.8 0-16.8 9.2-16.8 19.9 0 13.7 8.7 19.8 16.9 19.8 6.4 0 11.3-3.2 14.8-8.4l1.8.7c-1.4 5.2-6.3 12.3-17.7 12.3-14.1 0-22.3-10.7-22.3-24.2 0-13.8 8.4-24.6 22.8-24.6 8.1 0 15.5 4.1 16.8 12.2l-1.8.9zM448.8 147.8h6.3v46h-6.3zM464.9 193.9v-46.1h28.2v4h-21.9v16h19.3v4h-19.3v18.1H496v4zM519.1 152v41.9h-6.5V152h-14.5v-4.2h35.4v4.2zM558.6 196.1c-3.7 8.3-8.9 11.6-18.1 11.6h-1.8v-2.2c9.2-.6 12.2-5.2 15.8-12.7l1-2.1-17.9-43h6.7l14.4 35.4 15.5-35.3h5.5l-21.1 48.3zM68.3 39.8c1.1-.5 2.7-1 3.8-1.5-2.6-19-15.6-28.4-33.2-28.4C17.8 9.9 4.3 24 4.3 40.6c0 21.4 19 26.7 25 28.3 1.7.4 9.6 2.6 11.2 2.9C50.8 74.7 54.3 77 57 80.6c2.5 3.2 3.7 7.2 3.6 11.2 0 13.3-10.8 21.3-24.7 21.3-7.6 0-14.9-2.5-20.9-7.1-4.9-4-8.8-9.2-11.1-15.2-1.3.5-2.6.9-4 1.2.9 14.4 10.1 31.1 37 31.1s38.5-17.7 38.5-33.5c0-21.3-18.7-27-24.4-28.6-2.7-.8-15.3-3.8-17.7-4.7-7-2.3-14.7-6.6-14.7-17.2 0-10.9 8.6-19.2 21.8-19.2 17.7 0 24.8 13.9 27.9 19.9M116.4 62.1l48.6-49h-15.3l-48.5 49v-49H86.7v107h14.5V65.9l52.5 54.2h18.8zM183 13.1h14.6v107H183zM231 71.5c8.8.5 9.7.5 12.9.5 31.4 0 43.8-14.7 43.8-31.8 0-13.6-7.9-20.8-14.7-23.8-6.1-2.7-13-3.2-23.2-3.2h-33.5v107.1H231V71.5zm0-49.5h16.2c13 0 17.7 3 20.9 6.8 2.9 3.6 4.4 8 4.4 12.6 0 9.3-5.8 18.5-19.7 22.3-7.1 1.8-14.5 2.4-21.8 2V22zM340.9 22.8h33.5v-9.7h-82v9.7H326v97.3h14.9zM476.3 66.2c0-27.9-16.5-56.2-51.9-56.2-34.6-.1-52.2 26.6-52.2 56.9 0 34 21.5 56.4 52.3 56.4 32.3 0 51.8-24.4 51.8-57.1zm-15.5-.1c0 27.3-13.2 47.9-36.2 47.9-20 0-36.8-16.8-36.8-47.5 0-26.8 14.3-47.1 36.7-47.1 24.6-.1 36.3 23.1 36.3 46.7M577.4 13.1h-13l.8 79.3c-3-4.8-4.1-6.1-9.8-12.9l-55.5-66.4h-12.4v107.1H500V33.4c2.6 4.2 5.6 8.1 8.8 11.9l64.1 76.3h4.6l-.1-108.5zM935 206.7 890.5 26.5 904.2.4h-30.4v7.4h-9.3V0H838v7.9h-9V.4h-30.8l9.4 18.7-3.1 6.2h-46.1l-3.1-6.2L764.7.4h-30.9v7.5h-9V0h-26.5v7.8h-9.4V.4h-30.4l13.7 26.1-44.5 180.2 127-11.7v-57.9c0-15.2 11.9-27.6 26.5-27.6s26.6 12.4 26.6 27.6v58.3L935 206.7zM680.9 261.7c-3 0-6-.8-8.7-2.3l-1.3 1.5h-1.8l-.3-11h1.8c1.6 4.6 4.6 9.7 10.2 9.7 4.1 0 6.1-2.2 6.1-5.3 0-2.5-1.6-4.4-4.9-5.6-2.4-.9-4.4-1.5-6.4-2.4-3.8-1.6-5.9-4.5-5.9-8.5 0-4.9 4.3-9 10.6-9 2.7 0 5.4.8 7.7 2.1l1.1-1.4h1.9l.2 10.6h-1.9c-1.6-4.8-3.6-9.2-8.8-9.2-3 0-5.3 2-5.3 4.7s1.5 4.2 4.6 5.4c2.1.9 4.4 1.5 6.2 2.4 3.7 1.5 6.6 3.8 6.6 8.6.1 5.5-4.7 9.6-11.7 9.7M701.5 234.1c-1.9 0-3.5-1.6-3.5-3.5 0-2 1.6-3.6 3.6-3.6s3.6 1.6 3.6 3.6c-.1 1.9-1.7 3.5-3.7 3.5m-5.6 26.8v-1.5c.7 0 1.3-.1 2-.3.8-.3 1.3-1.1 1.3-2v-13.2c0-.9-.5-1.8-1.3-2.3-.8-.4-1.7-.7-2.7-.7v-1.5l9.3-.5.3.3v17.6c-.1.9.4 1.7 1.3 2.1.6.3 1.3.4 2 .5v1.5h-12.2zM725.1 260.9v-1.5c.7 0 1.3-.1 2-.3.8-.3 1-1 1-2v-10.8c0-3.1-1.4-4.7-3.5-4.7-2.2 0-4.1 1.2-5.3 3v12.2c-.1.8.4 1.6 1.1 2 .6.2 1.3.4 2 .5v1.5h-12v-1.5c.7 0 1.3-.1 2-.3.8-.3 1.4-1.1 1.3-2v-13.1c0-1-.5-1.9-1.3-2.4-.7-.4-1.5-.6-2.3-.6v-1.5l8.9-.5.3.3v3.1h.1c1.9-1.7 3.6-3.8 7.7-3.8 4.5 0 6.7 2.9 6.7 7.3v11.1c-.1.9.4 1.7 1.2 2 .6.3 1.3.4 2 .5v1.5h-11.9zM749.1 261.6c-7.5 0-11.2-5-11.2-11.7-.1-6.2 4.8-11.4 11-11.5h.5c5.4 0 8 2.6 8 5.7 0 1.8-.9 3.2-3 3.2-1.7 0-3.3-.9-3.3-2.5.1-1.2.3-2.5.7-3.7-.4-.7-1.2-.9-2.4-.9-2.6 0-5.2 2.4-5.2 9.5 0 5.3 2.6 9 6.4 9 3.1 0 4.8-1.5 6.3-4.2l1.6 1c-1.7 3.7-5.4 6-9.4 6.1M770.1 240.2c-2.6 0-4.5 2.4-4.7 7.2h8.6c.1-3.8-.7-7.2-3.9-7.2m.7 21.4c-7.9 0-11.5-5.3-11.5-11.7 0-5.9 4.1-11.4 11-11.4 7.2 0 9.8 4.4 9.8 9.4v1.5h-14.7c0 5.8 2.2 9.5 7.3 9.5 3 0 4.8-1.6 6.3-4.1l1.6 1.1c-1.9 3.4-5.7 5.7-9.8 5.7M795 259.3c1.3-.1 2.5-.2 3.8-.4 1.6-.3 2.6-1.1 2.6-2.5v-22.2h-6.3v-2h1.5c3 .1 5.9-1.1 8-3.3h2.9c-.1 3.3-.2 5.3-.2 6.8v20.6c0 1.3.7 2 2.3 2.5 1.2.3 2.5.4 3.8.5v1.6H795v-1.6zM828.2 230.6c-2.8 0-5 2.2-5 5v.3c0 3.6 2.8 4.8 8 7.2 1.5-1.4 2.1-3.8 2.1-6.6 0-3.5-1.9-5.9-5.1-5.9m-3.3 15.5c-2 1.6-3.1 4-3 6.6 0 4.4 2.5 7.1 6.3 7.1s6.1-2.4 6.1-5.9c0-3.8-3.4-5-9.4-7.8m2.8 15.6c-7.3 0-11.6-3.7-11.6-8.6 0-3.8 2.4-6.3 7.3-7.7-4.1-2-6-4.9-6-8.1 0-4.8 4.8-8.6 11.4-8.6 6.3 0 10.4 3.4 10.4 7.9 0 3.1-1.9 5.6-6.3 7.2 5.3 2.1 7.5 4.8 7.5 8.6-.2 5.1-5.1 9.3-12.7 9.3M854 261.4c-5.6 0-9.9-2.9-9.9-6.3-.1-1.7 1.1-3.1 2.7-3.2h.3c2.1 0 3.3 1.3 3.3 2.9-.1 1.3-.4 2.6-.8 3.8 1.1.7 2.4 1 3.7 1 3.7 0 7.1-3 7.1-9 0-4.2-2.7-7.1-6.4-7.1-2.4-.1-4.7 1-6.2 2.9l-1.6-.6 2-16.1h17.2v5.4h-15.6l-1 7.9c2.1-1.4 4.6-2.1 7.1-2.1 4.5 0 10.9 2.4 10.9 9.6.1 6.6-5.8 10.9-12.8 10.9M880.9 261.5c-5.9 0-10-3-10-6.5-.1-1.7 1.1-3.1 2.7-3.2h.3c2.1 0 3.3 1.2 3.3 2.8-.1 1.3-.4 2.6-.8 3.9 1.2.8 2.7 1.3 4.2 1.2 3.5 0 6.7-2.3 6.7-7.7 0-3.4-1.1-6.2-5.8-6.2h-2.9V243h1.9c3.9 0 5.5-2.2 5.5-6.7 0-3.1-1.3-5.5-4.8-5.5-1.3 0-2.6.5-3.7 1.3.4 1.3.7 2.6.8 4 0 1.6-1.3 2.8-3.3 2.8-1.9 0-2.9-1.4-2.9-3.2 0-3.2 3.9-6.8 10.5-6.8 8.2 0 10.1 4.8 10.1 7.3 0 2.9-1.5 6.2-7.2 7.6v.4c3.6.3 8.5 2.1 8.5 7.8s-5.8 9.5-13.1 9.5"/></svg>