<?xml version="1.0" encoding="UTF-8"?>
<svg id="logo" xmlns="http://www.w3.org/2000/svg" viewBox="0 0 433.94 283.19">
  <path d="M13.97,266.33c3.87,0,6.34-2.51,6.34-6.52,0-2.65-1.05-4.6-2.92-5.61-.96-.5-2.1-.77-4.56-.77h-6.47v12.89h7.61ZM3.22,250.61h9.48c3.28,0,4.74.32,6.01.86,3.01,1.32,4.83,4.37,4.83,8.25,0,4.33-2.46,7.66-6.06,8.66v.09s.32.41.82,1.28l6.97,12.9h-3.6l-7.24-13.49H6.36v13.49h-3.15v-32.03Z"/>
  <path d="M47.05,268.79c-.18-4.78-3.1-7.02-6.51-7.02-3.83,0-7.16,2.41-7.89,7.02h14.4ZM40.63,259.18c6.33,0,9.57,4.87,9.57,10.57,0,.55-.09,1.59-.09,1.59h-17.59c.14,5.88,4.14,9.07,8.89,9.07,4.19,0,6.97-2.77,6.97-2.77l1.42,2.37s-3.33,3.19-8.48,3.19c-6.83,0-11.98-4.92-11.98-11.98,0-7.52,5.1-12.03,11.3-12.03"/>
  <path d="M56.99,262.59h-3.01v-2.6h3.06v-6.61h3.05v6.61h5.74v2.6h-5.74v11.39c0,5.38,3.42,6.06,5.15,6.06.64,0,1.05-.09,1.05-.09v2.78s-.5.09-1.33.09c-2.64,0-7.97-.87-7.97-8.52v-11.71Z"/>
  <path d="M71.39,259.72h3.1v22.92h-3.1v-22.92ZM71.3,250.61h3.23v3.87h-3.23v-3.87Z"/>
  <path d="M81.96,259.72h3.05v4.06c0,1-.09,1.82-.09,1.82h.09c1.09-3.46,3.64-6.11,7.24-6.11.64,0,1.23.14,1.23.14v3.06s-.55-.09-1.14-.09c-3.24,0-5.65,2.55-6.65,5.93-.45,1.46-.64,3.01-.64,4.47v9.66h-3.1v-22.92Z"/>
  <path d="M114.04,268.79c-.18-4.78-3.1-7.02-6.51-7.02-3.83,0-7.16,2.41-7.89,7.02h14.4ZM107.61,259.18c6.33,0,9.57,4.87,9.57,10.57,0,.55-.09,1.59-.09,1.59h-17.59c.14,5.88,4.15,9.07,8.89,9.07,4.19,0,6.97-2.77,6.97-2.77l1.41,2.37s-3.32,3.19-8.48,3.19c-6.83,0-11.98-4.92-11.98-11.98,0-7.52,5.1-12.03,11.3-12.03"/>
  <path d="M123.11,259.72h3.05v3.42c0,1-.09,1.82-.09,1.82h.09c1.09-3.1,4.74-5.79,8.29-5.79,4.24,0,6.42,1.96,7.11,5.74h.09c1.23-3.1,4.56-5.74,8.43-5.74,5.56,0,7.61,3.24,7.61,8.89v14.58h-3.1v-13.81c0-3.74-.77-6.83-4.97-6.83-3.51,0-6.38,3.1-7.25,6.47-.32,1-.41,2.1-.41,3.32v10.85h-3.1v-13.81c0-3.46-.5-6.83-4.83-6.83-3.73,0-6.56,3.23-7.52,6.74-.23.96-.32,2.01-.32,3.06v10.85h-3.1v-22.92Z"/>
  <path d="M180.98,268.79c-.18-4.78-3.1-7.02-6.51-7.02-3.83,0-7.16,2.41-7.89,7.02h14.4ZM174.55,259.18c6.33,0,9.57,4.87,9.57,10.57,0,.55-.09,1.59-.09,1.59h-17.59c.14,5.88,4.15,9.07,8.89,9.07,4.19,0,6.97-2.77,6.97-2.77l1.41,2.37s-3.32,3.19-8.48,3.19c-6.83,0-11.98-4.92-11.98-11.98,0-7.52,5.1-12.03,11.3-12.03"/>
  <path d="M190.05,259.72h3.05v3.42c0,1-.09,1.82-.09,1.82h.09c.82-2.1,3.73-5.79,9.16-5.79s7.66,3.24,7.66,8.89v14.58h-3.1v-13.76c0-3.6-.55-6.79-4.97-6.79-3.92,0-7.29,2.69-8.34,6.47-.27.96-.37,2-.37,3.1v10.98h-3.09v-22.92Z"/>
  <path d="M217.93,262.59h-3.01v-2.6h3.05v-6.61h3.05v6.61h5.74v2.6h-5.74v11.39c0,5.38,3.42,6.06,5.15,6.06.64,0,1.05-.09,1.05-.09v2.78s-.5.09-1.32.09c-2.64,0-7.97-.87-7.97-8.52v-11.71Z"/>
  <path d="M245,276.68s3.33,3.51,8.39,3.51c3.51,0,6.38-2.1,6.38-5.56,0-8.06-15.99-6.01-15.99-15.94,0-4.61,4.06-8.61,9.98-8.61,5.56,0,8.56,3.1,8.56,3.1l-1.55,2.64s-2.82-2.73-7.01-2.73-6.75,2.69-6.75,5.51c0,7.61,15.99,5.42,15.99,15.95,0,4.78-3.69,8.66-9.7,8.66-6.56,0-10.16-4.1-10.16-4.1l1.86-2.41Z"/>
  <path d="M279.54,280.41c4.92,0,8.93-4.01,8.93-9.34s-4.01-9.07-8.93-9.07-8.93,3.87-8.93,9.07,4.01,9.34,8.93,9.34M279.54,259.18c6.7,0,12.12,5.1,12.12,11.89s-5.42,12.12-12.12,12.12-12.12-5.19-12.12-12.12,5.42-11.89,12.12-11.89"/>
  <path d="M297.22,250.61h3.1v25.93c0,3.01,1.37,3.46,2.55,3.46.41,0,.77-.05.77-.05v2.78s-.55.09-1.14.09c-1.91,0-5.28-.59-5.28-5.6v-26.61Z"/>
  <path d="M308.39,259.72h3.1v13.76c0,3.6.55,6.79,4.97,6.79,5.24,0,8.48-4.6,8.48-9.57v-10.98h3.1v22.92h-3.01v-3.42c0-1,.09-1.82.09-1.82h-.09c-.91,2.23-3.92,5.79-8.98,5.79-5.37,0-7.65-2.92-7.65-8.89v-14.58Z"/>
  <path d="M336.37,262.59h-3.01v-2.6h3.05v-6.61h3.05v6.61h5.74v2.6h-5.74v11.39c0,5.38,3.42,6.06,5.15,6.06.64,0,1.05-.09,1.05-.09v2.78s-.5.09-1.32.09c-2.64,0-7.97-.87-7.97-8.52v-11.71Z"/>
  <path d="M350.77,259.72h3.1v22.92h-3.1v-22.92ZM350.67,250.61h3.23v3.87h-3.23v-3.87Z"/>
  <path d="M371.77,280.41c4.92,0,8.93-4.01,8.93-9.34s-4.01-9.07-8.93-9.07-8.93,3.87-8.93,9.07,4.01,9.34,8.93,9.34M371.77,259.18c6.7,0,12.12,5.1,12.12,11.89s-5.42,12.12-12.12,12.12-12.12-5.19-12.12-12.12,5.42-11.89,12.12-11.89"/>
  <path d="M389.68,259.72h3.05v3.42c0,1-.09,1.82-.09,1.82h.09c.82-2.1,3.73-5.79,9.16-5.79s7.65,3.24,7.65,8.89v14.58h-3.1v-13.76c0-3.6-.55-6.79-4.97-6.79-3.91,0-7.29,2.69-8.34,6.47-.27.96-.36,2-.36,3.1v10.98h-3.1v-22.92Z"/>
  <path d="M416.52,277.63s2.55,2.78,6.83,2.78c2.46,0,4.6-1.23,4.6-3.64,0-5.01-12.35-3.78-12.35-11.26,0-4.1,3.69-6.33,7.83-6.33,4.83,0,7.06,2.51,7.06,2.51l-1.41,2.37s-1.96-2.1-5.74-2.1c-2.32,0-4.55,1-4.55,3.55,0,5.06,12.35,3.69,12.35,11.26,0,3.73-3.24,6.42-7.84,6.42-5.56,0-8.47-3.33-8.47-3.33l1.69-2.23Z"/>
  <path d="M20.25,66.27H0v-24.66h21.29V5.53h31.93v36.08h30.12v24.66h-30.12v55.81c0,22.58,17.13,25.7,26.48,25.7,3.63,0,5.97-.26,5.97-.26v27s-4.15.78-10.12.78c-18.69,0-55.3-5.45-55.3-49.84v-59.19Z"/>
  <path d="M368.51,66.27h-20.25v-24.66h21.29V5.53h31.93v36.08h30.12v24.66h-30.12v55.81c0,22.58,17.13,25.7,26.48,25.7,3.63,0,5.97-.26,5.97-.26v27s-4.15.78-10.13.78c-18.69,0-55.3-5.45-55.3-49.84v-59.19Z"/>
  <path d="M223.73,149.34c18.17,0,33.23-14.8,33.23-41.02s-13.5-41.54-32.97-41.54c-17.13,0-33.23,12.46-33.23,41.79,0,20.51,11.42,40.76,32.97,40.76M158.83,71.98c0-3.63-2.08-5.71-5.71-5.71h-14.8v-24.66h34.01c12.2,0,16.36,5.71,16.36,12.46v.78c0,3.12-.26,5.97-.26,5.97h.52s11.42-22.33,42.57-22.33c35.83,0,58.67,28.3,58.67,69.31s-25.7,69.31-60.48,69.31c-26.22,0-38.16-18.69-38.16-18.69h-.52s.77,4.67.77,11.42v56.07h-32.97V71.98Z"/>
  <rect x="108.78" width="3.71" height="174.98"/>
  <rect x="312.3" width="3.71" height="174.98"/>
</svg>