<svg xmlns="http://www.w3.org/2000/svg" viewBox="0 0 24 24" fill="none" stroke="currentColor" stroke-width="1.8" stroke-linecap="round" stroke-linejoin="round"><path d="M22 8.5s-.2-1.7-.8-2.4c-.8-.9-1.7-.9-2.1-1C16.2 4.9 12 4.9 12 4.9s-4.2 0-7.1.2c-.4.1-1.3.1-2.1 1C2.2 6.8 2 8.5 2 8.5S1.8 10.5 1.8 12.4v1.8c0 1.9.2 3.9.2 3.9s.2 1.7.8 2.4c.8.9 1.9.9 2.4 1 1.7.2 6.8.2 6.8.2s4.2 0 7.1-.2c.4-.1 1.3-.1 2.1-1 .6-.7.8-2.4.8-2.4s.2-2 .2-3.9v-1.8c0-1.9-.2-3.9-.2-3.9Z"/><path d="m10 9 5 3.2-5 3.1V9Z"/></svg>